{
.appVersion = "1338";
classes = (
{
automatic = 1;
code = "A Aacute Abreve Acircumflex Adieresis Agrave Amacron Aogonek Aring Atilde AE AEacute B C Cacute Ccaron Ccedilla Cdotaccent D Eth Dcaron Dcroat E Eacute Ecaron Ecircumflex Edieresis Edotaccent Egrave Emacron Eogonek F G Gbreve Gcommaaccent Gdotaccent H I Iacute Icircumflex Idieresis Idotaccent Igrave Imacron Iogonek J K Kcommaaccent L Lacute Lcaron Lcommaaccent Lslash M N Nacute Ncaron Ncommaaccent Ntilde O Oacute Ocircumflex Odieresis Ograve Ohungarumlaut Omacron Oslash Oslashacute Otilde OE P Thorn Q R Racute Rcaron Rcommaaccent S Sacute Scaron Scedilla Scommaaccent Germandbls T Tcaron Tcedilla Tcommaaccent U Uacute Ucircumflex Udieresis Ugrave Uhungarumlaut Umacron Uogonek Uring V W Wacute Wcircumflex Wdieresis Wgrave X Y Yacute Ycircumflex Ydieresis Ygrave Z Zacute Zcaron Zdotaccent Delta";
name = Uppercase;
}
);
copyright = "Copyright (c) 2020 by Alfredo Marco Pradil and Creative Sauce Fz LLC (creative-sauce.com)";
customParameters = (
{
name = licenseURL;
value = "http://scripts.sil.org/OFL";
},
{
name = license;
value = "Copyright (c) 2020 by Alfredo Marco Pradil and Creative Sauce Fz LLC (creative-sauce.com) with Reserved Font Name Open Sauce Two.\012\012This Font Software is licensed under the SIL Open Font License, Version 1.1.\012This license is copied below, and is also available with a FAQ at:\012http://scripts.sil.org/OFL";
}
);
date = "2020-05-26 05:17:47 +0000";
designer = "Alfredo Marco Pradil";
designerURL = "http://www.creative-sauce.com";
familyName = "Open Sauce Two";
featurePrefixes = (
{
automatic = 1;
code = "languagesystem DFLT dflt;\012\012languagesystem latn dflt;\012languagesystem latn AZE;\012languagesystem latn CRT;\012languagesystem latn KAZ;\012languagesystem latn TAT;\012languagesystem latn TRK;\012languagesystem latn ROM;\012languagesystem latn MOL;\012";
name = Languagesystems;
}
);
features = (
{
automatic = 1;

glyphs = (
{
color = 1;
glyphname = A;
lastChange = "2020-04-15 13:25:30 +0000";
layers = (
{
anchors = (
{
name = bottom;
position = "{310, 0}";
},
{
name = ogonek;
position = "{657, 0}";
},
{
name = top;
position = "{445, 763}";
}
);
guideLines = (
{
position = "{442, 436}";
}
);
layerId = "FD6EB2BB-8839-4CDB-86BF-4EEAE3F02079";
paths = (
{
closed = 1;
nodes = (
"144 0 LINE SMOOTH",
"149 0 OFFCURVE",
"153 2 OFFCURVE",
"155 7 CURVE SMOOTH",
"213 130 LINE SMOOTH",
"215 135 OFFCURVE",
"220 137 OFFCURVE",
"225 137 CURVE SMOOTH",
"462 137 LINE SMOOTH",
"468 137 OFFCURVE",
"471 135 OFFCURVE",
"472 128 CURVE SMOOTH",
"487 9 LINE SMOOTH",
"488 2 OFFCURVE",
"491 0 OFFCURVE",
"497 0 CURVE SMOOTH",
"657 0 LINE SMOOTH",
"663 0 OFFCURVE",
"667 5 OFFCURVE",
"666 11 CURVE SMOOTH",
"544 754 LINE SMOOTH",
"543 760 OFFCURVE",
"539 763 OFFCURVE",
"533 763 CURVE SMOOTH",
"356 763 LINE SMOOTH",
"351 763 OFFCURVE",
"346 761 OFFCURVE",
"344 756 CURVE SMOOTH",
"-42 12 LINE SMOOTH",
"-46 5 OFFCURVE",
"-42 0 OFFCURVE",
"-35 0 CURVE SMOOTH"
);
},
{
closed = 1;
nodes = (
"296 292 OFFCURVE",
"293 297 OFFCURVE",
"296 304 CURVE SMOOTH",
"409 543 LINE SMOOTH",
"413 552 OFFCURVE",
"421 550 OFFCURVE",
"422 541 CURVE SMOOTH",
"451 303 LINE SMOOTH",
"452 297 OFFCURVE",
"447 292 OFFCURVE",
"441 292 CURVE SMOOTH",
"303 292 LINE SMOOTH"
);
}
);
width = 720;
},
{
anchors = (
{
name = bottom;
position = "{298, 0}";
},
{
name = ogonek;
position = "{620, 0}";
},
{
name = top;
position = "{433, 763}";
}
);
guideLines = (
{
position = "{425, 436}";
}
);
layerId = "11907447-A26F-432E-A335-7727E0303767";
paths = (
{
closed = 1;
nodes = (
"55 0 LINE SMOOTH",
"60 0 OFFCURVE",
"64 2 OFFCURVE",
"67 7 CURVE SMOOTH",
"159 180 LINE SMOOTH",
"162 185 OFFCURVE",
"166 187 OFFCURVE",
"171 187 CURVE SMOOTH",
"500 187 LINE SMOOTH",
"506 187 OFFCURVE",
"510 184 OFFCURVE",
"511 178 CURVE SMOOTH",
"541 9 LINE SMOOTH",
"542 3 OFFCURVE",
"546 0 OFFCURVE",
"552 0 CURVE SMOOTH",
"620 0 LINE SMOOTH",
"627 0 OFFCURVE",
"630 5 OFFCURVE",
"629 11 CURVE SMOOTH",
"487 754 LINE SMOOTH",
"486 760 OFFCURVE",
"482 763 OFFCURVE",
"476 763 CURVE SMOOTH",
"389 763 LINE SMOOTH",
"384 763 OFFCURVE",
"380 761 OFFCURVE",
"377 756 CURVE SMOOTH",
"-28 12 LINE SMOOTH",
"-32 5 OFFCURVE",
"-28 0 OFFCURVE",
"-21 0 CURVE SMOOTH"
);
},
{
closed = 1;
nodes = (
"213 269 OFFCURVE",
"209 274 OFFCURVE",
"213 281 CURVE SMOOTH",
"412 652 LINE SMOOTH",
"416 660 OFFCURVE",
"423 660 OFFCURVE",
"425 650 CURVE SMOOTH",
"492 280 LINE SMOOTH",
"493 274 OFFCURVE",
"490 269 OFFCURVE",
"483 269 CURVE SMOOTH",
"220 269 LINE SMOOTH"
);
}
);
width = 694;
},
{
anchors = (
{
name = bottom;
position = "{296, 0}";
},
{
name = ogonek;
position = "{613, 0}";
},
{
name = top;
position = "{430, 763}";
}
);
guideLines = (
{
position = "{148, 437}";
}
);
layerId = "2F4EEC1B-9E89-4E08-AD53-AB625B6E887D";
paths = (
{
closed = 1;
nodes = (
"34 0 LINE SMOOTH",
"39 0 OFFCURVE",
"43 2 OFFCURVE",
"46 7 CURVE SMOOTH",
"151 199 LINE SMOOTH",
"154 204 OFFCURVE",
"158 206 OFFCURVE",
"163 206 CURVE SMOOTH",
"507 206 LINE SMOOTH",
"513 206 OFFCURVE",
"517 203 OFFCURVE",
"518 197 CURVE SMOOTH",
"554 9 LINE SMOOTH",
"555 3 OFFCURVE",
"559 0 OFFCURVE",
"565 0 CURVE SMOOTH",
"613 0 LINE SMOOTH",
"620 0 OFFCURVE",
"623 5 OFFCURVE",
"622 11 CURVE SMOOTH",
"472 754 LINE SMOOTH",
"471 760 OFFCURVE",
"467 763 OFFCURVE",
"461 763 CURVE SMOOTH",
"398 763 LINE SMOOTH",
"393 763 OFFCURVE",
"389 761 OFFCURVE",
"386 756 CURVE SMOOTH",
"-25 12 LINE SMOOTH",
"-29 5 OFFCURVE",
"-26 0 OFFCURVE",
"-18 0 CURVE SMOOTH"
);
},
{
closed = 1;
nodes = (
"196 268 OFFCURVE",
"192 273 OFFCURVE",
"196 280 CURVE SMOOTH",
"412 675 LINE SMOOTH",
"416 683 OFFCURVE",
"423 683 OFFCURVE",
"425 673 CURVE SMOOTH",
"502 279 LINE SMOOTH",
"503 273 OFFCURVE",
"500 268 OFFCURVE",
"493 268 CURVE SMOOTH",
"203 268 LINE SMOOTH"
);
}
);
width = 688;
}
);
leftKerningGroup = A;
note = A;
rightKerningGroup = A;
unicode = 0041;
},
{
color = 1;
glyphname = Aring;
lastChange = "2020-04-15 12:07:03 +0000";
layers = (
{
layerId = "11907447-A26F-432E-A335-7727E0303767";
paths = (
{
closed = 1;
nodes = (
"51 0 LINE SMOOTH",
"56 0 OFFCURVE",
"61 2 OFFCURVE",
"63 7 CURVE SMOOTH",
"155 180 LINE SMOOTH",
"157 185 OFFCURVE",
"162 187 OFFCURVE",
"167 187 CURVE SMOOTH",
"496 187 LINE SMOOTH",
"502 187 OFFCURVE",
"506 184 OFFCURVE",
"507 178 CURVE SMOOTH",
"537 9 LINE SMOOTH",
"538 3 OFFCURVE",
"542 0 OFFCURVE",
"548 0 CURVE SMOOTH",
"621 0 LINE SMOOTH",
"628 0 OFFCURVE",
"631 5 OFFCURVE",
"630 11 CURVE SMOOTH",
"496 715 LINE SMOOTH",
"495 720 OFFCURVE",
"496 724 OFFCURVE",
"501 727 CURVE SMOOTH",
"533 749 OFFCURVE",
"556 784 OFFCURVE",
"563 821 CURVE SMOOTH",
"575 888 OFFCURVE",
"528 939 OFFCURVE",
"464 939 CURVE SMOOTH",
"399 939 OFFCURVE",
"337 887 OFFCURVE",
"325 821 CURVE SMOOTH",
"319 784 OFFCURVE",
"328 750 OFFCURVE",
"353 729 CURVE SMOOTH",
"357 725 OFFCURVE",
"359 721 OFFCURVE",
"356 715 CURVE SMOOTH",
"-28 12 LINE SMOOTH",
"-32 5 OFFCURVE",
"-27 0 OFFCURVE",
"-20 0 CURVE SMOOTH"
);
},
{
closed = 1;
nodes = (
"211 269 OFFCURVE",
"208 274 OFFCURVE",
"211 281 CURVE SMOOTH",
"409 653 LINE SMOOTH",
"413 661 OFFCURVE",
"419 661 OFFCURVE",
"421 651 CURVE SMOOTH",
"487 280 LINE SMOOTH",
"488 274 OFFCURVE",
"485 269 OFFCURVE",
"478 269 CURVE SMOOTH",
"218 269 LINE SMOOTH"
);
},
{
closed = 1;
nodes = (
"403 764 OFFCURVE",
"382 789 OFFCURVE",
"388 823 CURVE SMOOTH",
"394 854 OFFCURVE",
"422 878 OFFCURVE",
"454 878 CURVE SMOOTH",
"489 878 OFFCURVE",
"507 853 OFFCURVE",
"501 823 CURVE SMOOTH",
"495 789 OFFCURVE",
"467 764 OFFCURVE",
"434 764 CURVE SMOOTH"
);
}
);
width = 695;
},
{
layerId = "FD6EB2BB-8839-4CDB-86BF-4EEAE3F02079";
paths = (
{
closed = 1;
nodes = (
"134 0 LINE SMOOTH",
"139 0 OFFCURVE",
"143 2 OFFCURVE",
"145 7 CURVE SMOOTH",
"203 130 LINE SMOOTH",
"205 135 OFFCURVE",
"210 137 OFFCURVE",
"215 137 CURVE SMOOTH",
"452 137 LINE SMOOTH",
"458 137 OFFCURVE",
"461 135 OFFCURVE",
"462 128 CURVE SMOOTH",
"477 9 LINE SMOOTH",
"478 2 OFFCURVE",
"481 0 OFFCURVE",
"487 0 CURVE SMOOTH",
"657 0 LINE SMOOTH",
"663 0 OFFCURVE",
"667 5 OFFCURVE",
"666 11 CURVE SMOOTH",
"548 729 LINE SMOOTH",
"547 735 OFFCURVE",
"549 738 OFFCURVE",
"552 742 CURVE SMOOTH",
"569 762 OFFCURVE",
"582 788 OFFCURVE",
"587 816 CURVE SMOOTH",
"600 890 OFFCURVE",
"550 949 OFFCURVE",
"477 949 CURVE SMOOTH",
"403 949 OFFCURVE",
"334 890 OFFCURVE",
"321 816 CURVE SMOOTH",
"316 790 OFFCURVE",
"319 764 OFFCURVE",
"330 743 CURVE SMOOTH",
"333 738 OFFCURVE",
"332 733 OFFCURVE",
"330 729 CURVE SMOOTH",
"-42 12 LINE SMOOTH",
"-45 5 OFFCURVE",
"-42 0 OFFCURVE",
"-35 0 CURVE SMOOTH"
);
},
{
closed = 1;
nodes = (
"287 292 OFFCURVE",
"284 297 OFFCURVE",
"287 304 CURVE SMOOTH",
"399 542 LINE SMOOTH",
"403 551 OFFCURVE",
"411 549 OFFCURVE",
"412 540 CURVE SMOOTH",
"440 303 LINE SMOOTH",
"441 297 OFFCURVE",
"436 292 OFFCURVE",
"430 292 CURVE SMOOTH",
"294 292 LINE SMOOTH"
);
},
{
closed = 1;
nodes = (
"417 766 OFFCURVE",
"400 787 OFFCURVE",
"405 818 CURVE SMOOTH",
"410 844 OFFCURVE",
"432 865 OFFCURVE",
"463 865 CURVE SMOOTH",
"495 865 OFFCURVE",
"508 845 OFFCURVE",
"503 818 CURVE SMOOTH",
"498 787 OFFCURVE",
"475 766 OFFCURVE",
"445 766 CURVE SMOOTH"
);
}
);
width = 720;
},
{
layerId = "2F4EEC1B-9E89-4E08-AD53-AB625B6E887D";
paths = (
{
closed = 1;
nodes = (
"31 0 LINE SMOOTH",
"36 0 OFFCURVE",
"41 2 OFFCURVE",
"43 7 CURVE",
"148 199 LINE",
"150 204 OFFCURVE",
"155 206 OFFCURVE",
"160 206 CURVE SMOOTH",
"503 206 LINE SMOOTH",
"509 206 OFFCURVE",
"513 203 OFFCURVE",
"514 197 CURVE SMOOTH",
"551 9 LINE SMOOTH",
"552 3 OFFCURVE",
"556 0 OFFCURVE",
"562 0 CURVE SMOOTH",
"613 0 LINE SMOOTH",
"620 0 OFFCURVE",
"623 5 OFFCURVE",
"622 11 CURVE SMOOTH",
"478 721 LINE SMOOTH",
"477 726 OFFCURVE",
"479 731 OFFCURVE",
"484 734 CURVE SMOOTH",
"517 754 OFFCURVE",
"543 787 OFFCURVE",
"550 826 CURVE SMOOTH",
"561 887 OFFCURVE",
"518 934 OFFCURVE",
"460 934 CURVE SMOOTH",
"399 934 OFFCURVE",
"343 886 OFFCURVE",
"332 826 CURVE SMOOTH",
"326 789 OFFCURVE",
"339 757 OFFCURVE",
"364 735 CURVE SMOOTH",
"368 731 OFFCURVE",
"370 727 OFFCURVE",
"367 721 CURVE SMOOTH",
"-25 12 LINE SMOOTH",
"-29 5 OFFCURVE",
"-26 0 OFFCURVE",
"-18 0 CURVE SMOOTH"
);
},
{
closed = 1;
nodes = (
"192 267 OFFCURVE",
"188 272 OFFCURVE",
"192 279 CURVE SMOOTH",
"409 677 LINE SMOOTH",
"413 685 OFFCURVE",
"420 685 OFFCURVE",
"422 675 CURVE SMOOTH",
"499 278 LINE SMOOTH",
"500 272 OFFCURVE",
"497 267 OFFCURVE",
"490 267 CURVE SMOOTH",
"199 267 LINE SMOOTH"
);
},
{
closed = 1;
nodes = (
"397 764 OFFCURVE",
"374 791 OFFCURVE",
"381 828 CURVE SMOOTH",
"386 861 OFFCURVE",
"418 888 OFFCURVE",
"453 888 CURVE SMOOTH",
"489 888 OFFCURVE",
"509 861 OFFCURVE",
"504 828 CURVE SMOOTH",
"497 792 OFFCURVE",
"466 764 OFFCURVE",
"431 764 CURVE SMOOTH"
);
}
);
width = 688;
}
);
leftKerningGroup = A;
leftMetricsKey = A;
rightKerningGroup = A;
rightMetricsKey = A;
unicode = 00C5;
},
{
color = 1;
glyphname = AE;
lastChange = "2020-04-15 12:07:00 +0000";
layers = (
{
anchors = (
{
name = bottom;
position = "{487, 0}";
},
{
name = top;
position = "{622, 763}";
}
);
background = {
components = (
{
name = A;
}
);
};
layerId = "11907447-A26F-432E-A335-7727E0303767";
paths = (
{
closed = 1;
nodes = (
"55 0 LINE SMOOTH",
"60 0 OFFCURVE",
"65 2 OFFCURVE",
"67 7 CURVE SMOOTH",
"159 180 LINE SMOOTH",
"161 185 OFFCURVE",
"166 187 OFFCURVE",
"171 187 CURVE SMOOTH",
"500 187 LINE SMOOTH",
"506 187 OFFCURVE",
"509 184 OFFCURVE",
"510 178 CURVE SMOOTH",
"538 9 LINE SMOOTH",
"539 3 OFFCURVE",
"542 0 OFFCURVE",
"548 0 CURVE SMOOTH",
"998 0 LINE SMOOTH",
"1005 0 OFFCURVE",
"1008 5 OFFCURVE",
"1007 11 CURVE SMOOTH",
"995 74 LINE SMOOTH",
"994 80 OFFCURVE",
"990 83 OFFCURVE",
"984 83 CURVE SMOOTH",
"625 83 LINE SMOOTH",
"619 83 OFFCURVE",
"615 86 OFFCURVE",
"614 92 CURVE SMOOTH",
"569 331 LINE SMOOTH",
"568 337 OFFCURVE",
"571 342 OFFCURVE",
"578 342 CURVE SMOOTH",
"932 342 LINE SMOOTH",
"939 342 OFFCURVE",
"942 347 OFFCURVE",
"941 353 CURVE SMOOTH",
"930 415 LINE SMOOTH",
"929 421 OFFCURVE",
"925 424 OFFCURVE",
"919 424 CURVE SMOOTH",
"560 424 LINE SMOOTH",
"554 424 OFFCURVE",
"550 427 OFFCURVE",
"549 433 CURVE SMOOTH",
"504 669 LINE SMOOTH",
"503 675 OFFCURVE",
"506 680 OFFCURVE",
"513 680 CURVE SMOOTH",
"868 680 LINE SMOOTH",
"875 680 OFFCURVE",
"878 685 OFFCURVE",
"877 691 CURVE SMOOTH",
"865 754 LINE SMOOTH",
"864 760 OFFCURVE",
"860 763 OFFCURVE",
"854 763 CURVE SMOOTH",
"389 763 LINE SMOOTH",
"384 763 OFFCURVE",
"379 761 OFFCURVE",
"377 756 CURVE SMOOTH",
"-28 12 LINE SMOOTH",
"-32 5 OFFCURVE",
"-28 0 OFFCURVE",
"-21 0 CURVE SMOOTH"
);
},
{
closed = 1;
nodes = (
"215 269 OFFCURVE",
"212 274 OFFCURVE",
"215 281 CURVE SMOOTH",
"413 654 LINE SMOOTH",
"417 662 OFFCURVE",
"423 662 OFFCURVE",
"425 652 CURVE SMOOTH",
"491 280 LINE SMOOTH",
"492 274 OFFCURVE",
"489 269 OFFCURVE",
"482 269 CURVE SMOOTH",
"222 269 LINE SMOOTH"
);
}
);
width = 1072;
},
{
anchors = (
{
name = bottom;
position = "{464, 0}";
},
{
name = top;
position = "{599, 763}";
}
);
background = {
components = (
{
name = A;
}
);
};
layerId = "FD6EB2BB-8839-4CDB-86BF-4EEAE3F02079";
paths = (
{
closed = 1;
nodes = (
"144 0 LINE SMOOTH",
"149 0 OFFCURVE",
"154 2 OFFCURVE",
"156 7 CURVE SMOOTH",
"214 130 LINE SMOOTH",
"216 135 OFFCURVE",
"220 137 OFFCURVE",
"225 137 CURVE SMOOTH",
"462 137 LINE SMOOTH",
"468 137 OFFCURVE",
"471 135 OFFCURVE",
"472 128 CURVE SMOOTH",
"487 9 LINE SMOOTH",
"488 2 OFFCURVE",
"491 0 OFFCURVE",
"497 0 CURVE SMOOTH",
"965 0 LINE SMOOTH",
"971 0 OFFCURVE",
"975 5 OFFCURVE",
"974 11 CURVE SMOOTH",
"951 151 LINE SMOOTH",
"950 157 OFFCURVE",
"947 160 OFFCURVE",
"941 160 CURVE SMOOTH",
"652 160 LINE SMOOTH",
"646 160 OFFCURVE",
"643 163 OFFCURVE",
"642 169 CURVE SMOOTH",
"622 291 LINE SMOOTH",
"621 297 OFFCURVE",
"625 302 OFFCURVE",
"631 302 CURVE SMOOTH",
"915 302 LINE SMOOTH",
"921 302 OFFCURVE",
"925 307 OFFCURVE",
"924 313 CURVE SMOOTH",
"901 452 LINE SMOOTH",
"900 458 OFFCURVE",
"897 461 OFFCURVE",
"891 461 CURVE SMOOTH",
"602 461 LINE SMOOTH",
"596 461 OFFCURVE",
"593 464 OFFCURVE",
"592 470 CURVE SMOOTH",
"572 592 LINE SMOOTH",
"571 598 OFFCURVE",
"575 603 OFFCURVE",
"581 603 CURVE SMOOTH",
"865 603 LINE SMOOTH",
"871 603 OFFCURVE",
"875 608 OFFCURVE",
"874 614 CURVE SMOOTH",
"851 754 LINE SMOOTH",
"850 760 OFFCURVE",
"846 763 OFFCURVE",
"840 763 CURVE SMOOTH",
"356 763 LINE SMOOTH",
"351 763 OFFCURVE",
"346 761 OFFCURVE",
"344 756 CURVE SMOOTH",
"-42 12 LINE SMOOTH",
"-45 5 OFFCURVE",
"-42 0 OFFCURVE",
"-35 0 CURVE SMOOTH"
);
},
{
closed = 1;
nodes = (
"297 292 OFFCURVE",
"294 297 OFFCURVE",
"297 304 CURVE SMOOTH",
"409 542 LINE SMOOTH",
"413 551 OFFCURVE",
"421 549 OFFCURVE",
"422 540 CURVE SMOOTH",
"450 303 LINE SMOOTH",
"451 297 OFFCURVE",
"446 292 OFFCURVE",
"440 292 CURVE SMOOTH",
"304 292 LINE SMOOTH"
);
}
);
width = 1028;
},
{
anchors = (
{
name = bottom;
position = "{483, 0}";
},
{
name = top;
position = "{617, 763}";
}
);
background = {
components = (
{
name = A;
}
);
};
layerId = "2F4EEC1B-9E89-4E08-AD53-AB625B6E887D";
paths = (
{
closed = 1;
nodes = (
"34 0 LINE SMOOTH",
"39 0 OFFCURVE",
"44 2 OFFCURVE",
"46 7 CURVE",
"151 199 LINE",
"153 204 OFFCURVE",
"158 206 OFFCURVE",
"163 206 CURVE SMOOTH",
"506 206 LINE SMOOTH",
"512 206 OFFCURVE",
"516 203 OFFCURVE",
"517 197 CURVE SMOOTH",
"550 9 LINE SMOOTH",
"551 3 OFFCURVE",
"555 0 OFFCURVE",
"561 0 CURVE SMOOTH",
"986 0 LINE SMOOTH",
"993 0 OFFCURVE",
"996 4 OFFCURVE",
"995 11 CURVE SMOOTH",
"986 53 LINE SMOOTH",
"985 59 OFFCURVE",
"981 62 OFFCURVE",
"975 62 CURVE SMOOTH",
"621 62 LINE SMOOTH",
"615 62 OFFCURVE",
"611 65 OFFCURVE",
"610 71 CURVE SMOOTH",
"555 342 LINE SMOOTH",
"554 348 OFFCURVE",
"557 353 OFFCURVE",
"564 353 CURVE SMOOTH",
"914 353 LINE SMOOTH",
"921 353 OFFCURVE",
"924 358 OFFCURVE",
"923 364 CURVE SMOOTH",
"916 405 LINE SMOOTH",
"915 411 OFFCURVE",
"911 414 OFFCURVE",
"905 414 CURVE SMOOTH",
"550 414 LINE SMOOTH",
"544 414 OFFCURVE",
"540 417 OFFCURVE",
"539 423 CURVE SMOOTH",
"485 690 LINE SMOOTH",
"484 696 OFFCURVE",
"487 701 OFFCURVE",
"494 701 CURVE SMOOTH",
"846 701 LINE SMOOTH",
"853 701 OFFCURVE",
"856 705 OFFCURVE",
"855 712 CURVE SMOOTH",
"846 754 LINE SMOOTH",
"845 760 OFFCURVE",
"841 763 OFFCURVE",
"835 763 CURVE SMOOTH",
"398 763 LINE SMOOTH",
"393 763 OFFCURVE",
"388 761 OFFCURVE",
"386 756 CURVE",
"-25 12 LINE SMOOTH",
"-29 5 OFFCURVE",
"-26 0 OFFCURVE",
"-18 0 CURVE SMOOTH"
);
},
{
closed = 1;
nodes = (
"195 267 OFFCURVE",
"191 272 OFFCURVE",
"195 279 CURVE SMOOTH",
"412 676 LINE SMOOTH",
"416 684 OFFCURVE",
"423 684 OFFCURVE",
"425 674 CURVE SMOOTH",
"502 278 LINE SMOOTH",
"503 272 OFFCURVE",
"500 267 OFFCURVE",
"493 267 CURVE SMOOTH",
"202 267 LINE SMOOTH"
);
}
);
width = 1061;
}
);
leftKerningGroup = A;
leftMetricsKey = A;
rightKerningGroup = A;
rightMetricsKey = A;
unicode = 00C6;
},
{
color = 1;
glyphname = B;
lastChange = "2020-04-15 12:07:12 +0000";
layers = (
{
anchors = (
{
name = bottom;
position = "{288, 0}";
},
{
name = top;
position = "{423, 763}";
}
);
layerId = "FD6EB2BB-8839-4CDB-86BF-4EEAE3F02079";
paths = (
{
closed = 1;
nodes = (
"336 0 LINE SMOOTH",
"366 0 OFFCURVE",
"470 0 OFFCURVE",
"554 56 CURVE SMOOTH",
"619 100 OFFCURVE",
"664 186 OFFCURVE",
"664 265 CURVE SMOOTH",
"664 331 OFFCURVE",
"629 377 OFFCURVE",
"565 397 CURVE SMOOTH",
"557 400 OFFCURVE",
"556 403 OFFCURVE",
"564 407 CURVE SMOOTH",
"641 443 OFFCURVE",
"686 525 OFFCURVE",
"686 612 CURVE SMOOTH",
"686 647 OFFCURVE",
"677 674 OFFCURVE",
"659 697 CURVE SMOOTH",
"625 741 OFFCURVE",
"557 763 OFFCURVE",
"457 763 CURVE SMOOTH",
"154 763 LINE SMOOTH",
"148 763 OFFCURVE",
"144 760 OFFCURVE",
"143 754 CURVE SMOOTH",
"12 11 LINE SMOOTH",
"11 5 OFFCURVE",
"14 0 OFFCURVE",
"21 0 CURVE SMOOTH"
);
},
{
closed = 1;
nodes = (
"221 160 OFFCURVE",
"218 165 OFFCURVE",
"219 171 CURVE SMOOTH",
"243 306 LINE SMOOTH",
"244 312 OFFCURVE",
"248 315 OFFCURVE",
"254 315 CURVE SMOOTH",
"382 315 LINE SMOOTH",
"447 315 OFFCURVE",
"486 306 OFFCURVE",
"486 260 CURVE SMOOTH",
"486 234 OFFCURVE",
"475 200 OFFCURVE",
"450 183 CURVE SMOOTH",
"424 164 OFFCURVE",
"386 160 OFFCURVE",
"341 160 CURVE SMOOTH",
"228 160 LINE SMOOTH"
);
},
{
closed = 1;
nodes = (
"273 455 OFFCURVE",
"270 460 OFFCURVE",
"271 466 CURVE SMOOTH",
"293 594 LINE SMOOTH",
"294 600 OFFCURVE",
"298 603 OFFCURVE",
"304 603 CURVE SMOOTH",
"389 603 LINE SMOOTH",
"441 603 OFFCURVE",
"466 598 OFFCURVE",
"481 585 CURVE SMOOTH",
"491 576 OFFCURVE",
"497 564 OFFCURVE",
"497 548 CURVE SMOOTH",
"497 489 OFFCURVE",
"458 455 OFFCURVE",
"387 455 CURVE SMOOTH",
"280 455 LINE SMOOTH"
);
}
);
width = 703;
},
{
anchors = (
{
name = bottom;
position = "{285, 0}";
},
{
name = top;
position = "{420, 763}";
}
);
layerId = "11907447-A26F-432E-A335-7727E0303767";
paths = (
{
closed = 1;
nodes = (
"329 0 LINE SMOOTH",
"393 0 OFFCURVE",
"482 14 OFFCURVE",
"546 67 CURVE SMOOTH",
"601 114 OFFCURVE",
"632 186 OFFCURVE",
"632 259 CURVE SMOOTH",
"632 337 OFFCURVE",
"588 388 OFFCURVE",
"505 399 CURVE SMOOTH",
"497 400 OFFCURVE",
"497 400 OFFCURVE",
"504 401 CURVE SMOOTH",
"595 417 OFFCURVE",
"657 515 OFFCURVE",
"657 615 CURVE SMOOTH",
"657 652 OFFCURVE",
"647 683 OFFCURVE",
"626 707 CURVE SMOOTH",
"594 743 OFFCURVE",
"539 763 OFFCURVE",
"452 763 CURVE SMOOTH",
"174 763 LINE SMOOTH",
"168 763 OFFCURVE",
"164 760 OFFCURVE",
"163 754 CURVE SMOOTH",
"32 11 LINE SMOOTH",
"31 5 OFFCURVE",
"34 0 OFFCURVE",
"41 0 CURVE SMOOTH"
);
},
{
closed = 1;
nodes = (
"141 83 OFFCURVE",
"138 88 OFFCURVE",
"139 94 CURVE SMOOTH",
"182 341 LINE SMOOTH",
"183 347 OFFCURVE",
"187 350 OFFCURVE",
"193 350 CURVE SMOOTH",
"401 350 LINE SMOOTH",
"439 350 OFFCURVE",
"540 350 OFFCURVE",
"540 252 CURVE SMOOTH",
"540 207 OFFCURVE",
"522 154 OFFCURVE",
"483 123 CURVE SMOOTH",
"433 83 OFFCURVE",
"364 83 OFFCURVE",
"334 83 CURVE SMOOTH",
"148 83 LINE SMOOTH"
);
},
{
closed = 1;
nodes = (
"202 432 OFFCURVE",
"199 437 OFFCURVE",
"200 443 CURVE SMOOTH",
"240 671 LINE SMOOTH",
"241 677 OFFCURVE",
"245 680 OFFCURVE",
"251 680 CURVE SMOOTH",
"417 680 LINE SMOOTH",
"472 680 OFFCURVE",
"516 669 OFFCURVE",
"540 641 CURVE SMOOTH",
"553 627 OFFCURVE",
"560 608 OFFCURVE",
"560 584 CURVE SMOOTH",
"560 494 OFFCURVE",
"495 432 OFFCURVE",
"393 432 CURVE SMOOTH",
"209 432 LINE SMOOTH"
);
}
);
width = 690;
},
{
anchors = (
{
name = bottom;
position = "{280, 0}";
},
{
name = top;
position = "{414, 763}";
}
);
layerId = "2F4EEC1B-9E89-4E08-AD53-AB625B6E887D";
paths = (
{
closed = 1;
nodes = (
"323 0 LINE SMOOTH",
"392 0 OFFCURVE",
"469 15 OFFCURVE",
"528 61 CURVE SMOOTH",
"586 107 OFFCURVE",
"619 181 OFFCURVE",
"619 255 CURVE SMOOTH",
"619 334 OFFCURVE",
"576 387 OFFCURVE",
"499 398 CURVE SMOOTH",
"492 399 OFFCURVE",
"492 399 OFFCURVE",
"499 401 CURVE SMOOTH",
"583 418 OFFCURVE",
"645 517 OFFCURVE",
"645 617 CURVE SMOOTH",
"645 647 OFFCURVE",
"638 674 OFFCURVE",
"624 695 CURVE SMOOTH",
"596 739 OFFCURVE",
"538 763 OFFCURVE",
"445 763 CURVE SMOOTH",
"174 763 LINE SMOOTH",
"168 763 OFFCURVE",
"164 760 OFFCURVE",
"163 754 CURVE SMOOTH",
"33 11 LINE SMOOTH",
"32 5 OFFCURVE",
"35 0 OFFCURVE",
"42 0 CURVE SMOOTH"
);
},
{
closed = 1;
nodes = (
"115 62 OFFCURVE",
"112 67 OFFCURVE",
"113 73 CURVE SMOOTH",
"161 352 LINE SMOOTH",
"162 358 OFFCURVE",
"166 361 OFFCURVE",
"172 361 CURVE SMOOTH",
"406 361 LINE SMOOTH",
"463 361 OFFCURVE",
"550 345 OFFCURVE",
"550 249 CURVE SMOOTH",
"550 196 OFFCURVE",
"527 141 OFFCURVE",
"487 108 CURVE SMOOTH",
"439 69 OFFCURVE",
"374 62 OFFCURVE",
"327 62 CURVE SMOOTH",
"122 62 LINE SMOOTH"
);
},
{
closed = 1;
nodes = (
"178 423 OFFCURVE",
"175 428 OFFCURVE",
"176 434 CURVE SMOOTH",
"221 692 LINE SMOOTH",
"222 698 OFFCURVE",
"226 701 OFFCURVE",
"232 701 CURVE SMOOTH",
"420 701 LINE SMOOTH",
"478 701 OFFCURVE",
"523 689 OFFCURVE",
"549 661 CURVE SMOOTH",
"564 644 OFFCURVE",
"572 621 OFFCURVE",
"572 592 CURVE SMOOTH",
"572 495 OFFCURVE",
"500 423 OFFCURVE",
"395 423 CURVE SMOOTH",
"185 423 LINE SMOOTH"
);
}
);
width = 677;
}
);
leftKerningGroup = B;
note = B;
rightKerningGroup = B;
unicode = 0042;
},
{
color = 1;
glyphname = C;
lastChange = "2020-04-15 12:07:19 +0000";
layers = (
{
anchors = (
{
name = bottom;
position = "{339, 0}";
},
{
name = top;
position = "{474, 763}";
}
);
guideLines = (
{
position = "{111, 259}";
},
{
position = "{642, 505}";
},
{
position = "{546, 525}";
}
);
layerId = "FD6EB2BB-8839-4CDB-86BF-4EEAE3F02079";
paths = (
{
closed = 1;
nodes = (
"692 90 OFFCURVE",
"744 249 CURVE SMOOTH",
"746 255 OFFCURVE",
"742 259 OFFCURVE",
"735 259 CURVE SMOOTH",
"560 259 LINE SMOOTH",
"555 259 OFFCURVE",
"550 256 OFFCURVE",
"548 251 CURVE SMOOTH",
"520 177 OFFCURVE",
"457 143 OFFCURVE",
"384 143 CURVE SMOOTH",
"283 143 OFFCURVE",
"232 208 OFFCURVE",
"232 314 CURVE SMOOTH",
"232 469 OFFCURVE",
"317 619 OFFCURVE",
"468 619 CURVE SMOOTH",
"541 619 OFFCURVE",
"592 586 OFFCURVE",
"594 515 CURVE SMOOTH",
"594 509 OFFCURVE",
"598 505 OFFCURVE",
"604 505 CURVE SMOOTH",
"780 505 LINE SMOOTH",
"786 505 OFFCURVE",
"790 508 OFFCURVE",
"790 515 CURVE SMOOTH",
"795 673 OFFCURVE",
"697 779 OFFCURVE",
"500 779 CURVE SMOOTH",
"230 779 OFFCURVE",
"41 564 OFFCURVE",
"41 292 CURVE SMOOTH",
"41 119 OFFCURVE",
"137 -17 OFFCURVE",
"360 -17 CURVE SMOOTH",
"557 -17 OFFCURVE"
);
}
);
width = 779;
},
{
anchors = (
{
name = bottom;
position = "{323, 0}";
},
{
name = top;
position = "{458, 763}";
}
);
guideLines = (
{
position = "{633, 231}";
}
);
layerId = "11907447-A26F-432E-A335-7727E0303767";
paths = (
{
closed = 1;
nodes = (
"643 79 OFFCURVE",
"695 220 CURVE SMOOTH",
"698 227 OFFCURVE",
"694 231 OFFCURVE",
"687 231 CURVE SMOOTH",
"607 231 LINE SMOOTH",
"602 231 OFFCURVE",
"598 228 OFFCURVE",
"596 223 CURVE SMOOTH",
"557 123 OFFCURVE",
"471 72 OFFCURVE",
"364 72 CURVE SMOOTH",
"222 72 OFFCURVE",
"153 164 OFFCURVE",
"153 298 CURVE SMOOTH",
"153 504 OFFCURVE",
"274 691 OFFCURVE",
"473 691 CURVE SMOOTH",
"579 691 OFFCURVE",
"647 641 OFFCURVE",
"655 562 CURVE SMOOTH",
"656 555 OFFCURVE",
"660 552 OFFCURVE",
"666 552 CURVE SMOOTH",
"746 552 LINE SMOOTH",
"752 552 OFFCURVE",
"756 556 OFFCURVE",
"756 562 CURVE SMOOTH",
"751 687 OFFCURVE",
"656 773 OFFCURVE",
"490 773 CURVE SMOOTH",
"234 773 OFFCURVE",
"60 551 OFFCURVE",
"60 287 CURVE SMOOTH",
"60 122 OFFCURVE",
"148 -10 OFFCURVE",
"351 -10 CURVE SMOOTH",
"517 -10 OFFCURVE"
);
}
);
width = 748;
},
{
anchors = (
{
name = bottom;
position = "{346, 0}";
},
{
name = top;
position = "{480, 763}";
}
);
layerId = "2F4EEC1B-9E89-4E08-AD53-AB625B6E887D";
paths = (
{
closed = 1;
nodes = (
"626 75 OFFCURVE",
"677 206 CURVE SMOOTH",
"680 212 OFFCURVE",
"676 216 OFFCURVE",
"669 216 CURVE SMOOTH",
"616 216 LINE SMOOTH",
"611 216 OFFCURVE",
"607 214 OFFCURVE",
"605 208 CURVE SMOOTH",
"563 108 OFFCURVE",
"470 52 OFFCURVE",
"354 52 CURVE SMOOTH",
"201 52 OFFCURVE",
"130 152 OFFCURVE",
"130 294 CURVE SMOOTH",
"130 512 OFFCURVE",
"259 711 OFFCURVE",
"470 711 CURVE SMOOTH",
"585 711 OFFCURVE",
"660 656 OFFCURVE",
"668 571 CURVE SMOOTH",
"669 564 OFFCURVE",
"673 561 OFFCURVE",
"679 561 CURVE SMOOTH",
"732 561 LINE SMOOTH",
"738 561 OFFCURVE",
"742 565 OFFCURVE",
"742 571 CURVE SMOOTH",
"734 690 OFFCURVE",
"641 773 OFFCURVE",
"483 773 CURVE SMOOTH",
"231 773 OFFCURVE",
"60 548 OFFCURVE",
"60 287 CURVE SMOOTH",
"60 121 OFFCURVE",
"146 -10 OFFCURVE",
"345 -10 CURVE SMOOTH",
"504 -10 OFFCURVE"
);
}
);
width = 733;
}
);
leftKerningGroup = C;
note = C;
rightKerningGroup = C;
unicode = 0043;
},
{
color = 1;
glyphname = D;
lastChange = "2020-04-15 12:07:31 +0000";
layers = (
{
anchors = (
{
name = bottom;
position = "{298, 0}";
},
{
name = center;
position = "{229, 382}";
},
{
name = top;
position = "{433, 763}";
}
);
layerId = "FD6EB2BB-8839-4CDB-86BF-4EEAE3F02079";
paths = (
{
closed = 1;
nodes = (
"241 0 LINE SMOOTH",
"534 0 OFFCURVE",
"721 187 OFFCURVE",
"721 475 CURVE SMOOTH",
"721 662 OFFCURVE",
"601 763 OFFCURVE",
"376 763 CURVE SMOOTH",
"154 763 LINE SMOOTH",
"148 763 OFFCURVE",
"144 760 OFFCURVE",
"143 754 CURVE SMOOTH",
"12 11 LINE SMOOTH",
"11 5 OFFCURVE",
"14 0 OFFCURVE",
"21 0 CURVE SMOOTH"
);
},
{
closed = 1;
nodes = (
"221 160 OFFCURVE",
"218 165 OFFCURVE",
"219 171 CURVE SMOOTH",
"293 594 LINE SMOOTH",
"294 600 OFFCURVE",
"298 603 OFFCURVE",
"304 603 CURVE SMOOTH",
"345 603 LINE SMOOTH",
"466 603 OFFCURVE",
"538 546 OFFCURVE",
"538 436 CURVE SMOOTH",
"538 269 OFFCURVE",
"441 160 OFFCURVE",
"267 160 CURVE SMOOTH",
"228 160 LINE SMOOTH"
);
}
);
width = 726;
},
{
anchors = (
{
name = bottom;
position = "{307, 0}";
},
{
name = center;
position = "{231, 382}";
},
{
name = top;
position = "{442, 763}";
}
);
layerId = "11907447-A26F-432E-A335-7727E0303767";
paths = (
{
closed = 1;
nodes = (
"239 0 LINE SMOOTH",
"527 0 OFFCURVE",
"708 190 OFFCURVE",
"708 475 CURVE SMOOTH",
"708 660 OFFCURVE",
"594 763 OFFCURVE",
"375 763 CURVE SMOOTH",
"174 763 LINE SMOOTH",
"168 763 OFFCURVE",
"164 760 OFFCURVE",
"163 754 CURVE SMOOTH",
"32 11 LINE SMOOTH",
"31 5 OFFCURVE",
"34 0 OFFCURVE",
"41 0 CURVE SMOOTH"
);
},
{
closed = 1;
nodes = (
"141 83 OFFCURVE",
"138 88 OFFCURVE",
"139 94 CURVE SMOOTH",
"240 671 LINE SMOOTH",
"241 677 OFFCURVE",
"245 680 OFFCURVE",
"251 680 CURVE SMOOTH",
"359 680 LINE SMOOTH",
"512 680 OFFCURVE",
"615 622 OFFCURVE",
"615 462 CURVE SMOOTH",
"615 230 OFFCURVE",
"493 83 OFFCURVE",
"253 83 CURVE SMOOTH",
"148 83 LINE SMOOTH"
);
}
);
width = 732;
},
{
anchors = (
{
name = bottom;
position = "{304, 0}";
},
{
name = center;
position = "{231, 382}";
},
{
name = top;
position = "{438, 763}";
}
);
layerId = "2F4EEC1B-9E89-4E08-AD53-AB625B6E887D";
paths = (
{
closed = 1;
nodes = (
"234 0 LINE SMOOTH",
"521 0 OFFCURVE",
"699 191 OFFCURVE",
"699 476 CURVE SMOOTH",
"699 660 OFFCURVE",
"585 763 OFFCURVE",
"369 763 CURVE SMOOTH",
"174 763 LINE SMOOTH",
"168 763 OFFCURVE",
"164 760 OFFCURVE",
"163 754 CURVE SMOOTH",
"33 11 LINE SMOOTH",
"32 5 OFFCURVE",
"35 0 OFFCURVE",
"42 0 CURVE SMOOTH"
);
},
{
closed = 1;
nodes = (
"115 62 OFFCURVE",
"112 67 OFFCURVE",
"113 73 CURVE SMOOTH",
"221 692 LINE SMOOTH",
"222 698 OFFCURVE",
"226 701 OFFCURVE",
"232 701 CURVE SMOOTH",
"358 701 LINE SMOOTH",
"526 701 OFFCURVE",
"631 631 OFFCURVE",
"631 466 CURVE SMOOTH",
"631 223 OFFCURVE",
"495 62 OFFCURVE",
"245 62 CURVE SMOOTH",
"122 62 LINE SMOOTH"
);
}
);
width = 723;
}
);
leftKerningGroup = B;
note = D;
rightKerningGroup = D;
unicode = 0044;
},
{
color = 1;
glyphname = E;
lastChange = "2020-04-15 13:25:42 +0000";
layers = (
{
anchors = (
{
name = bottom;
position = "{271, 0}";
},
{
name = ogonek;
position = "{522, 0}";
},
{
name = top;
position = "{406, 763}";
},
{
name = topleft;
position = "{77, 763}";
}
);
guideLines = (
{
angle = 180;
position = "{488, 461}";
},
{
angle = 180;
position = "{404, 302}";
}
);
layerId = "FD6EB2BB-8839-4CDB-86BF-4EEAE3F02079";
paths = (
{
closed = 1;
nodes = (
"557 149 LINE SMOOTH",
"558 155 OFFCURVE",
"555 160 OFFCURVE",
"548 160 CURVE SMOOTH",
"228 160 LINE SMOOTH",
"221 160 OFFCURVE",
"218 165 OFFCURVE",
"219 171 CURVE SMOOTH",
"240 293 LINE SMOOTH",
"241 299 OFFCURVE",
"245 302 OFFCURVE",
"251 302 CURVE SMOOTH",
"542 302 LINE SMOOTH",
"548 302 OFFCURVE",
"552 305 OFFCURVE",
"553 311 CURVE SMOOTH",
"577 450 LINE SMOOTH",
"578 456 OFFCURVE",
"575 461 OFFCURVE",
"568 461 CURVE SMOOTH",
"281 461 LINE SMOOTH",
"274 461 OFFCURVE",
"271 466 OFFCURVE",
"272 472 CURVE SMOOTH",
"293 594 LINE SMOOTH",
"294 600 OFFCURVE",
"298 603 OFFCURVE",
"304 603 CURVE SMOOTH",
"628 603 LINE SMOOTH",
"634 603 OFFCURVE",
"638 606 OFFCURVE",
"639 612 CURVE SMOOTH",
"664 752 LINE SMOOTH",
"665 758 OFFCURVE",
"662 763 OFFCURVE",
"655 763 CURVE SMOOTH",
"154 763 LINE SMOOTH",
"148 763 OFFCURVE",
"144 760 OFFCURVE",
"143 754 CURVE SMOOTH",
"12 11 LINE SMOOTH",
"11 5 OFFCURVE",
"14 0 OFFCURVE",
"21 0 CURVE SMOOTH",
"522 0 LINE SMOOTH",
"528 0 OFFCURVE",
"532 3 OFFCURVE",
"533 9 CURVE SMOOTH"
);
}
);
width = 624;
},
{
anchors = (
{
name = bottom;
position = "{277, 0}";
},
{
name = ogonek;
position = "{514, 0}";
},
{
name = top;
position = "{412, 763}";
},
{
name = topleft;
position = "{84, 763}";
}
);
layerId = "11907447-A26F-432E-A335-7727E0303767";
paths = (
{
closed = 1;
nodes = (
"536 72 LINE SMOOTH",
"537 78 OFFCURVE",
"534 83 OFFCURVE",
"527 83 CURVE SMOOTH",
"148 83 LINE SMOOTH",
"141 83 OFFCURVE",
"138 88 OFFCURVE",
"139 94 CURVE SMOOTH",
"181 333 LINE SMOOTH",
"182 339 OFFCURVE",
"186 342 OFFCURVE",
"192 342 CURVE SMOOTH",
"528 342 LINE SMOOTH",
"534 342 OFFCURVE",
"538 345 OFFCURVE",
"539 351 CURVE SMOOTH",
"549 413 LINE SMOOTH",
"550 419 OFFCURVE",
"547 424 OFFCURVE",
"540 424 CURVE SMOOTH",
"208 424 LINE SMOOTH",
"201 424 OFFCURVE",
"198 429 OFFCURVE",
"199 435 CURVE SMOOTH",
"240 671 LINE SMOOTH",
"241 677 OFFCURVE",
"245 680 OFFCURVE",
"251 680 CURVE SMOOTH",
"634 680 LINE SMOOTH",
"640 680 OFFCURVE",
"644 683 OFFCURVE",
"645 689 CURVE SMOOTH",
"656 752 LINE SMOOTH",
"657 758 OFFCURVE",
"654 763 OFFCURVE",
"647 763 CURVE SMOOTH",
"174 763 LINE SMOOTH",
"168 763 OFFCURVE",
"164 760 OFFCURVE",
"163 754 CURVE SMOOTH",
"32 11 LINE SMOOTH",
"31 5 OFFCURVE",
"34 0 OFFCURVE",
"41 0 CURVE SMOOTH",
"514 0 LINE SMOOTH",
"520 0 OFFCURVE",
"524 3 OFFCURVE",
"525 9 CURVE SMOOTH"
);
}
);
width = 616;
},
{
anchors = (
{
name = bottom;
position = "{274, 0}";
},
{
name = ogonek;
position = "{508, 0}";
},
{
name = top;
position = "{408, 763}";
},
{
name = topleft;
position = "{80, 763}";
}
);
layerId = "2F4EEC1B-9E89-4E08-AD53-AB625B6E887D";
paths = (
{
closed = 1;
nodes = (
"526 51 LINE SMOOTH",
"527 57 OFFCURVE",
"524 62 OFFCURVE",
"517 62 CURVE SMOOTH",
"122 62 LINE SMOOTH",
"115 62 OFFCURVE",
"112 67 OFFCURVE",
"113 73 CURVE SMOOTH",
"160 343 LINE SMOOTH",
"161 349 OFFCURVE",
"165 352 OFFCURVE",
"171 352 CURVE SMOOTH",
"519 352 LINE SMOOTH",
"525 352 OFFCURVE",
"529 355 OFFCURVE",
"530 361 CURVE SMOOTH",
"537 403 LINE SMOOTH",
"538 409 OFFCURVE",
"535 414 OFFCURVE",
"528 414 CURVE SMOOTH",
"184 414 LINE SMOOTH",
"177 414 OFFCURVE",
"174 419 OFFCURVE",
"175 425 CURVE SMOOTH",
"221 692 LINE SMOOTH",
"222 698 OFFCURVE",
"226 701 OFFCURVE",
"232 701 CURVE SMOOTH",
"631 701 LINE SMOOTH",
"637 701 OFFCURVE",
"641 704 OFFCURVE",
"642 710 CURVE SMOOTH",
"649 752 LINE SMOOTH",
"650 758 OFFCURVE",
"647 763 OFFCURVE",
"640 763 CURVE SMOOTH",
"174 763 LINE SMOOTH",
"168 763 OFFCURVE",
"164 760 OFFCURVE",
"163 754 CURVE SMOOTH",
"33 11 LINE SMOOTH",
"32 5 OFFCURVE",
"35 0 OFFCURVE",
"42 0 CURVE SMOOTH",
"508 0 LINE SMOOTH",
"514 0 OFFCURVE",
"518 3 OFFCURVE",
"519 9 CURVE SMOOTH"
);
}
);
width = 609;
}
);
leftKerningGroup = B;
note = E;
rightKerningGroup = E;
unicode = 0045;
},
{
color = 1;
glyphname = F;
lastChange = "2020-04-15 12:07:40 +0000";
layers = (
{
background = {
paths = (
{
closed = 1;
nodes = (
"223 0 LINE SMOOTH",
"233 0 OFFCURVE",
"239 6 OFFCURVE",
"239 16 CURVE SMOOTH",
"239 286 LINE SMOOTH",
"239 296 OFFCURVE",
"245 302 OFFCURVE",
"255 302 CURVE SMOOTH",
"532 302 LINE SMOOTH",
"542 302 OFFCURVE",
"548 308 OFFCURVE",
"548 318 CURVE SMOOTH",
"548 445 LINE SMOOTH",
"548 455 OFFCURVE",
"542 461 OFFCURVE",
"532 461 CURVE SMOOTH",
"255 461 LINE SMOOTH",
"245 461 OFFCURVE",
"239 467 OFFCURVE",
"239 477 CURVE SMOOTH",
"239 587 LINE SMOOTH",
"239 597 OFFCURVE",
"245 603 OFFCURVE",
"255 603 CURVE SMOOTH",
"565 603 LINE SMOOTH",
"575 603 OFFCURVE",
"581 609 OFFCURVE",
"581 619 CURVE SMOOTH",
"581 747 LINE SMOOTH",
"581 757 OFFCURVE",
"575 763 OFFCURVE",
"565 763 CURVE SMOOTH",
"76 763 LINE SMOOTH",
"66 763 OFFCURVE",
"60 757 OFFCURVE",
"60 747 CURVE SMOOTH",
"60 16 LINE SMOOTH",
"60 6 OFFCURVE",
"66 0 OFFCURVE",
"76 0 CURVE SMOOTH"
);
}
);
};
layerId = "FD6EB2BB-8839-4CDB-86BF-4EEAE3F02079";
paths = (
{
closed = 1;
nodes = (
"240 293 LINE SMOOTH",
"241 299 OFFCURVE",
"245 302 OFFCURVE",
"251 302 CURVE SMOOTH",
"542 302 LINE SMOOTH",
"548 302 OFFCURVE",
"552 305 OFFCURVE",
"553 311 CURVE SMOOTH",
"577 450 LINE SMOOTH",
"578 456 OFFCURVE",
"575 461 OFFCURVE",
"568 461 CURVE SMOOTH",
"281 461 LINE SMOOTH",
"274 461 OFFCURVE",
"271 466 OFFCURVE",
"272 472 CURVE SMOOTH",
"293 594 LINE SMOOTH",
"294 600 OFFCURVE",
"298 603 OFFCURVE",
"304 603 CURVE SMOOTH",
"628 603 LINE SMOOTH",
"634 603 OFFCURVE",
"638 606 OFFCURVE",
"639 612 CURVE SMOOTH",
"664 752 LINE SMOOTH",
"665 758 OFFCURVE",
"662 763 OFFCURVE",
"655 763 CURVE SMOOTH",
"154 763 LINE SMOOTH",
"148 763 OFFCURVE",
"144 760 OFFCURVE",
"143 754 CURVE SMOOTH",
"12 11 LINE SMOOTH",
"11 5 OFFCURVE",
"14 0 OFFCURVE",
"21 0 CURVE SMOOTH",
"180 0 LINE SMOOTH",
"186 0 OFFCURVE",
"190 3 OFFCURVE",
"191 9 CURVE SMOOTH"
);
}
);
width = 606;
},
{
background = {
paths = (
{
closed = 1;
nodes = (
"155 0 LINE SMOOTH",
"165 0 OFFCURVE",
"171 6 OFFCURVE",
"171 16 CURVE SMOOTH",
"171 326 LINE SMOOTH",
"171 336 OFFCURVE",
"177 342 OFFCURVE",
"187 342 CURVE SMOOTH",
"509 342 LINE SMOOTH",
"519 342 OFFCURVE",
"525 348 OFFCURVE",
"525 358 CURVE SMOOTH",
"525 408 LINE SMOOTH",
"525 418 OFFCURVE",
"519 424 OFFCURVE",
"509 424 CURVE SMOOTH",
"187 424 LINE SMOOTH",
"177 424 OFFCURVE",
"171 430 OFFCURVE",
"171 440 CURVE SMOOTH",
"171 664 LINE SMOOTH",
"171 674 OFFCURVE",
"177 680 OFFCURVE",
"187 680 CURVE SMOOTH",
"556 680 LINE SMOOTH",
"566 680 OFFCURVE",
"572 686 OFFCURVE",
"572 696 CURVE SMOOTH",
"572 747 LINE SMOOTH",
"572 757 OFFCURVE",
"566 763 OFFCURVE",
"556 763 CURVE SMOOTH",
"95 763 LINE SMOOTH",
"85 763 OFFCURVE",
"79 757 OFFCURVE",
"79 747 CURVE SMOOTH",
"79 16 LINE SMOOTH",
"79 6 OFFCURVE",
"85 0 OFFCURVE",
"95 0 CURVE SMOOTH"
);
}
);
};
layerId = "11907447-A26F-432E-A335-7727E0303767";
paths = (
{
closed = 1;
nodes = (
"181 333 LINE SMOOTH",
"182 339 OFFCURVE",
"186 342 OFFCURVE",
"192 342 CURVE SMOOTH",
"528 342 LINE SMOOTH",
"534 342 OFFCURVE",
"538 345 OFFCURVE",
"539 351 CURVE SMOOTH",
"549 413 LINE SMOOTH",
"550 419 OFFCURVE",
"547 424 OFFCURVE",
"540 424 CURVE SMOOTH",
"208 424 LINE SMOOTH",
"201 424 OFFCURVE",
"198 429 OFFCURVE",
"199 435 CURVE SMOOTH",
"240 671 LINE SMOOTH",
"241 677 OFFCURVE",
"245 680 OFFCURVE",
"251 680 CURVE SMOOTH",
"634 680 LINE SMOOTH",
"640 680 OFFCURVE",
"644 683 OFFCURVE",
"645 689 CURVE SMOOTH",
"656 752 LINE SMOOTH",
"657 758 OFFCURVE",
"654 763 OFFCURVE",
"647 763 CURVE SMOOTH",
"174 763 LINE SMOOTH",
"168 763 OFFCURVE",
"164 760 OFFCURVE",
"163 754 CURVE SMOOTH",
"32 11 LINE SMOOTH",
"31 5 OFFCURVE",
"34 0 OFFCURVE",
"41 0 CURVE SMOOTH",
"113 0 LINE SMOOTH",
"119 0 OFFCURVE",
"123 3 OFFCURVE",
"124 9 CURVE SMOOTH"
);
}
);
width = 601;
},
{
anchors = (
{
name = bottom;
position = "{237, 0}";
},
{
name = top;
position = "{371, 763}";
}
);
background = {
anchors = (
{
name = bottom;
position = "{285, 0}";
},
{
name = top;
position = "{285, 763}";
}
);
paths = (
{
closed = 1;
nodes = (
"138 0 LINE SMOOTH",
"144 0 OFFCURVE",
"148 4 OFFCURVE",
"148 10 CURVE SMOOTH",
"148 343 LINE SMOOTH",
"148 349 OFFCURVE",
"152 353 OFFCURVE",
"158 353 CURVE SMOOTH",
"504 353 LINE SMOOTH",
"510 353 OFFCURVE",
"514 357 OFFCURVE",
"514 363 CURVE SMOOTH",
"514 404 LINE SMOOTH",
"514 410 OFFCURVE",
"510 414 OFFCURVE",
"504 414 CURVE SMOOTH",
"158 414 LINE SMOOTH",
"152 414 OFFCURVE",
"148 418 OFFCURVE",
"148 424 CURVE SMOOTH",
"148 691 LINE SMOOTH",
"148 697 OFFCURVE",
"152 701 OFFCURVE",
"158 701 CURVE SMOOTH",
"555 701 LINE SMOOTH",
"561 701 OFFCURVE",
"565 705 OFFCURVE",
"565 711 CURVE SMOOTH",
"565 753 LINE SMOOTH",
"565 759 OFFCURVE",
"561 763 OFFCURVE",
"555 763 CURVE SMOOTH",
"89 763 LINE SMOOTH",
"83 763 OFFCURVE",
"79 759 OFFCURVE",
"79 753 CURVE SMOOTH",
"79 10 LINE SMOOTH",
"79 4 OFFCURVE",
"83 0 OFFCURVE",
"89 0 CURVE SMOOTH"
);
}
);
};
layerId = "2F4EEC1B-9E89-4E08-AD53-AB625B6E887D";
paths = (
{
closed = 1;
nodes = (
"160 344 LINE SMOOTH",
"161 350 OFFCURVE",
"165 353 OFFCURVE",
"171 353 CURVE SMOOTH",
"519 353 LINE SMOOTH",
"525 353 OFFCURVE",
"529 356 OFFCURVE",
"530 362 CURVE SMOOTH",
"537 403 LINE SMOOTH",
"538 409 OFFCURVE",
"535 414 OFFCURVE",
"528 414 CURVE SMOOTH",
"184 414 LINE SMOOTH",
"177 414 OFFCURVE",
"174 419 OFFCURVE",
"175 425 CURVE SMOOTH",
"221 692 LINE SMOOTH",
"222 698 OFFCURVE",
"226 701 OFFCURVE",
"232 701 CURVE SMOOTH",
"631 701 LINE SMOOTH",
"637 701 OFFCURVE",
"641 704 OFFCURVE",
"642 710 CURVE SMOOTH",
"649 752 LINE SMOOTH",
"650 758 OFFCURVE",
"647 763 OFFCURVE",
"640 763 CURVE SMOOTH",
"174 763 LINE SMOOTH",
"168 763 OFFCURVE",
"164 760 OFFCURVE",
"163 754 CURVE SMOOTH",
"33 11 LINE SMOOTH",
"32 5 OFFCURVE",
"35 0 OFFCURVE",
"42 0 CURVE SMOOTH",
"91 0 LINE SMOOTH",
"97 0 OFFCURVE",
"101 3 OFFCURVE",
"102 9 CURVE SMOOTH"
);
}
);
width = 594;
}
);
leftKerningGroup = B;
note = F;
rightKerningGroup = F;
unicode = 0046;
},
{
color = 1;
glyphname = G;
lastChange = "2020-04-15 12:07:43 +0000";
layers = (
{
anchors = (
{
name = bottom;
position = "{364, 0}";
},
{
name = top;
position = "{499, 763}";
}
);
guideLines = (
{
position = "{643, 505}";
}
);
layerId = "FD6EB2BB-8839-4CDB-86BF-4EEAE3F02079";
paths = (
{
closed = 1;
nodes = (
"496 -5 OFFCURVE",
"558 51 CURVE SMOOTH",
"568 60 OFFCURVE",
"576 60 OFFCURVE",
"574 50 CURVE SMOOTH",
"567 11 LINE SMOOTH",
"566 5 OFFCURVE",
"569 0 OFFCURVE",
"576 0 CURVE SMOOTH",
"719 0 LINE SMOOTH",
"725 0 OFFCURVE",
"729 3 OFFCURVE",
"730 9 CURVE SMOOTH",
"801 415 LINE SMOOTH",
"802 421 OFFCURVE",
"799 426 OFFCURVE",
"792 426 CURVE SMOOTH",
"474 426 LINE SMOOTH",
"468 426 OFFCURVE",
"464 423 OFFCURVE",
"463 417 CURVE SMOOTH",
"442 293 LINE SMOOTH",
"441 287 OFFCURVE",
"444 282 OFFCURVE",
"451 282 CURVE SMOOTH",
"587 282 LINE SMOOTH",
"594 282 OFFCURVE",
"598 278 OFFCURVE",
"596 271 CURVE SMOOTH",
"571 181 OFFCURVE",
"504 143 OFFCURVE",
"407 143 CURVE SMOOTH",
"289 143 OFFCURVE",
"231 210 OFFCURVE",
"231 318 CURVE SMOOTH",
"231 471 OFFCURVE",
"321 619 OFFCURVE",
"471 619 CURVE SMOOTH",
"561 619 OFFCURVE",
"609 584 OFFCURVE",
"617 515 CURVE SMOOTH",
"618 508 OFFCURVE",
"622 505 OFFCURVE",
"628 505 CURVE SMOOTH",
"804 505 LINE SMOOTH",
"810 505 OFFCURVE",
"814 508 OFFCURVE",
"814 515 CURVE SMOOTH",
"814 674 OFFCURVE",
"711 779 OFFCURVE",
"499 779 CURVE SMOOTH",
"229 779 OFFCURVE",
"40 564 OFFCURVE",
"40 292 CURVE SMOOTH",
"40 119 OFFCURVE",
"136 -17 OFFCURVE",
"359 -17 CURVE SMOOTH",
"422 -17 OFFCURVE"
);
}
);
width = 827;
},
{
anchors = (
{
name = bottom;
position = "{355, 0}";
},
{
name = top;
position = "{490, 763}";
}
);
layerId = "11907447-A26F-432E-A335-7727E0303767";
paths = (
{
closed = 1;
nodes = (
"546 23 OFFCURVE",
"614 92 CURVE SMOOTH",
"622 99 OFFCURVE",
"628 96 OFFCURVE",
"626 87 CURVE SMOOTH",
"613 11 LINE SMOOTH",
"612 5 OFFCURVE",
"615 0 OFFCURVE",
"622 0 CURVE SMOOTH",
"686 0 LINE SMOOTH",
"692 0 OFFCURVE",
"696 3 OFFCURVE",
"697 9 CURVE SMOOTH",
"764 388 LINE SMOOTH",
"765 394 OFFCURVE",
"762 399 OFFCURVE",
"755 399 CURVE SMOOTH",
"502 399 LINE SMOOTH",
"496 399 OFFCURVE",
"492 396 OFFCURVE",
"491 390 CURVE SMOOTH",
"480 328 LINE SMOOTH",
"479 322 OFFCURVE",
"482 317 OFFCURVE",
"489 317 CURVE SMOOTH",
"650 317 LINE SMOOTH",
"657 317 OFFCURVE",
"660 313 OFFCURVE",
"659 306 CURVE SMOOTH",
"629 161 OFFCURVE",
"518 72 OFFCURVE",
"373 72 CURVE SMOOTH",
"222 72 OFFCURVE",
"154 175 OFFCURVE",
"154 308 CURVE SMOOTH",
"154 510 OFFCURVE",
"283 691 OFFCURVE",
"480 691 CURVE SMOOTH",
"587 691 OFFCURVE",
"652 640 OFFCURVE",
"675 562 CURVE SMOOTH",
"676 556 OFFCURVE",
"680 553 OFFCURVE",
"686 553 CURVE SMOOTH",
"769 553 LINE SMOOTH",
"775 553 OFFCURVE",
"779 557 OFFCURVE",
"778 564 CURVE SMOOTH",
"756 688 OFFCURVE",
"662 773 OFFCURVE",
"497 773 CURVE SMOOTH",
"242 773 OFFCURVE",
"60 553 OFFCURVE",
"60 292 CURVE SMOOTH",
"60 128 OFFCURVE",
"147 -10 OFFCURVE",
"359 -10 CURVE SMOOTH",
"449 -10 OFFCURVE"
);
}
);
width = 807;
},
{
anchors = (
{
name = bottom;
position = "{352, 0}";
},
{
name = top;
position = "{486, 763}";
}
);
layerId = "2F4EEC1B-9E89-4E08-AD53-AB625B6E887D";
paths = (
{
closed = 1;
nodes = (
"558 27 OFFCURVE",
"617 115 CURVE SMOOTH",
"623 124 OFFCURVE",
"629 123 OFFCURVE",
"627 113 CURVE SMOOTH",
"610 11 LINE SMOOTH",
"609 5 OFFCURVE",
"612 0 OFFCURVE",
"619 0 CURVE SMOOTH",
"663 0 LINE SMOOTH",
"669 0 OFFCURVE",
"673 3 OFFCURVE",
"674 9 CURVE SMOOTH",
"739 381 LINE SMOOTH",
"740 387 OFFCURVE",
"737 392 OFFCURVE",
"730 392 CURVE SMOOTH",
"494 392 LINE SMOOTH",
"488 392 OFFCURVE",
"484 389 OFFCURVE",
"483 383 CURVE SMOOTH",
"476 341 LINE SMOOTH",
"475 335 OFFCURVE",
"478 330 OFFCURVE",
"485 330 CURVE SMOOTH",
"650 330 LINE SMOOTH",
"657 330 OFFCURVE",
"660 326 OFFCURVE",
"659 319 CURVE SMOOTH",
"627 161 OFFCURVE",
"514 52 OFFCURVE",
"361 52 CURVE SMOOTH",
"202 52 OFFCURVE",
"131 161 OFFCURVE",
"131 301 CURVE SMOOTH",
"131 517 OFFCURVE",
"267 711 OFFCURVE",
"476 711 CURVE SMOOTH",
"598 711 OFFCURVE",
"666 655 OFFCURVE",
"681 571 CURVE SMOOTH",
"682 565 OFFCURVE",
"685 562 OFFCURVE",
"691 562 CURVE SMOOTH",
"748 562 LINE SMOOTH",
"754 562 OFFCURVE",
"759 566 OFFCURVE",
"758 573 CURVE SMOOTH",
"742 689 OFFCURVE",
"653 773 OFFCURVE",
"488 773 CURVE SMOOTH",
"236 773 OFFCURVE",
"61 550 OFFCURVE",
"61 289 CURVE SMOOTH",
"61 125 OFFCURVE",
"146 -10 OFFCURVE",
"351 -10 CURVE SMOOTH",
"451 -10 OFFCURVE"
);
}
);
width = 783;
}
);
leftKerningGroup = C;
note = G;
rightKerningGroup = G;
unicode = 0047;
},
{
color = 1;
glyphname = H;
lastChange = "2020-04-15 12:07:46 +0000";
layers = (
{
anchors = (
{
name = bottom;
position = "{334, 0}";
},
{
name = center;
position = "{447, 639}";
},
{
name = top;
position = "{469, 763}";
},
{
name = topleft;
position = "{105, 763}";
}
);
background = {
paths = (
{
closed = 1;
nodes = (
"239 0 LINE",
"239 301 LINE",
"529 301 LINE",
"529 0 LINE",
"709 0 LINE",
"709 763 LINE",
"529 763 LINE",
"529 461 LINE",
"239 461 LINE",
"239 763 LINE",
"60 763 LINE",
"60 0 LINE"
);
}
);
};
layerId = "FD6EB2BB-8839-4CDB-86BF-4EEAE3F02079";
paths = (
{
closed = 1;
nodes = (
"240 292 LINE SMOOTH",
"241 298 OFFCURVE",
"245 301 OFFCURVE",
"251 301 CURVE SMOOTH",
"521 301 LINE SMOOTH",
"528 301 OFFCURVE",
"531 296 OFFCURVE",
"530 290 CURVE SMOOTH",
"481 11 LINE SMOOTH",
"480 5 OFFCURVE",
"483 0 OFFCURVE",
"490 0 CURVE SMOOTH",
"649 0 LINE SMOOTH",
"655 0 OFFCURVE",
"659 3 OFFCURVE",
"660 9 CURVE SMOOTH",
"791 752 LINE SMOOTH",
"792 758 OFFCURVE",
"789 763 OFFCURVE",
"782 763 CURVE SMOOTH",
"623 763 LINE SMOOTH",
"617 763 OFFCURVE",
"613 760 OFFCURVE",
"612 754 CURVE SMOOTH",
"562 470 LINE SMOOTH",
"561 464 OFFCURVE",
"557 461 OFFCURVE",
"551 461 CURVE SMOOTH",
"281 461 LINE SMOOTH",
"274 461 OFFCURVE",
"271 466 OFFCURVE",
"272 472 CURVE SMOOTH",
"322 752 LINE SMOOTH",
"323 758 OFFCURVE",
"320 763 OFFCURVE",
"313 763 CURVE SMOOTH",
"154 763 LINE SMOOTH",
"148 763 OFFCURVE",
"144 760 OFFCURVE",
"143 754 CURVE SMOOTH",
"12 11 LINE SMOOTH",
"11 5 OFFCURVE",
"14 0 OFFCURVE",
"21 0 CURVE SMOOTH",
"180 0 LINE SMOOTH",
"186 0 OFFCURVE",
"190 3 OFFCURVE",
"191 9 CURVE SMOOTH"
);
}
);
width = 770;
},
{
anchors = (
{
name = bottom;
position = "{314, 0}";
},
{
name = center;
position = "{423, 616}";
},
{
name = top;
position = "{449, 763}";
},
{
name = topleft;
position = "{106, 763}";
}
);
background = {
paths = (
{
closed = 1;
nodes = (
"171 0 LINE",
"171 343 LINE",
"553 343 LINE",
"553 0 LINE",
"645 0 LINE",
"645 763 LINE",
"553 763 LINE",
"553 425 LINE",
"171 425 LINE",
"171 763 LINE",
"79 763 LINE",
"79 0 LINE"
);
}
);
};
layerId = "11907447-A26F-432E-A335-7727E0303767";
paths = (
{
closed = 1;
nodes = (
"181 334 LINE SMOOTH",
"182 340 OFFCURVE",
"186 343 OFFCURVE",
"192 343 CURVE SMOOTH",
"554 343 LINE SMOOTH",
"561 343 OFFCURVE",
"564 338 OFFCURVE",
"563 332 CURVE SMOOTH",
"506 11 LINE SMOOTH",
"505 5 OFFCURVE",
"508 0 OFFCURVE",
"515 0 CURVE SMOOTH",
"587 0 LINE SMOOTH",
"593 0 OFFCURVE",
"597 3 OFFCURVE",
"598 9 CURVE SMOOTH",
"729 752 LINE SMOOTH",
"730 758 OFFCURVE",
"727 763 OFFCURVE",
"720 763 CURVE SMOOTH",
"648 763 LINE SMOOTH",
"642 763 OFFCURVE",
"638 760 OFFCURVE",
"637 754 CURVE SMOOTH",
"581 434 LINE SMOOTH",
"580 428 OFFCURVE",
"576 425 OFFCURVE",
"570 425 CURVE SMOOTH",
"208 425 LINE SMOOTH",
"201 425 OFFCURVE",
"198 430 OFFCURVE",
"199 436 CURVE SMOOTH",
"255 752 LINE SMOOTH",
"256 758 OFFCURVE",
"253 763 OFFCURVE",
"246 763 CURVE SMOOTH",
"174 763 LINE SMOOTH",
"168 763 OFFCURVE",
"164 760 OFFCURVE",
"163 754 CURVE SMOOTH",
"32 11 LINE SMOOTH",
"31 5 OFFCURVE",
"34 0 OFFCURVE",
"41 0 CURVE SMOOTH",
"113 0 LINE SMOOTH",
"119 0 OFFCURVE",
"123 3 OFFCURVE",
"124 9 CURVE SMOOTH"
);
}
);
width = 725;
},
{
anchors = (
{
name = bottom;
position = "{303, 0}";
},
{
name = center;
position = "{410, 609}";
},
{
name = top;
position = "{437, 763}";
},
{
name = topleft;
position = "{80, 763}";
}
);
background = {
anchors = (
{
name = bottom;
position = "{351, 0}";
},
{
name = center;
position = "{351, 382}";
},
{
name = top;
position = "{351, 763}";
},
{
name = topleft;
position = "{-6, 763}";
}
);
paths = (
{
closed = 1;
nodes = (
"148 0 LINE",
"148 354 LINE",
"554 354 LINE",
"554 0 LINE",
"623 0 LINE",
"623 763 LINE",
"554 763 LINE",
"554 416 LINE",
"148 416 LINE",
"148 763 LINE",
"79 763 LINE",
"79 0 LINE"
);
}
);
};
layerId = "2F4EEC1B-9E89-4E08-AD53-AB625B6E887D";
paths = (
{
closed = 1;
nodes = (
"160 345 LINE SMOOTH",
"161 351 OFFCURVE",
"165 354 OFFCURVE",
"171 354 CURVE SMOOTH",
"557 354 LINE SMOOTH",
"564 354 OFFCURVE",
"567 349 OFFCURVE",
"566 343 CURVE SMOOTH",
"508 11 LINE SMOOTH",
"507 5 OFFCURVE",
"510 0 OFFCURVE",
"517 0 CURVE SMOOTH",
"566 0 LINE SMOOTH",
"572 0 OFFCURVE",
"576 3 OFFCURVE",
"577 9 CURVE SMOOTH",
"707 752 LINE SMOOTH",
"708 758 OFFCURVE",
"705 763 OFFCURVE",
"698 763 CURVE SMOOTH",
"649 763 LINE SMOOTH",
"643 763 OFFCURVE",
"639 760 OFFCURVE",
"638 754 CURVE SMOOTH",
"581 425 LINE SMOOTH",
"580 419 OFFCURVE",
"576 416 OFFCURVE",
"570 416 CURVE SMOOTH",
"184 416 LINE SMOOTH",
"177 416 OFFCURVE",
"174 421 OFFCURVE",
"175 427 CURVE SMOOTH",
"232 752 LINE SMOOTH",
"233 758 OFFCURVE",
"230 763 OFFCURVE",
"223 763 CURVE SMOOTH",
"174 763 LINE SMOOTH",
"168 763 OFFCURVE",
"164 760 OFFCURVE",
"163 754 CURVE SMOOTH",
"33 11 LINE SMOOTH",
"32 5 OFFCURVE",
"35 0 OFFCURVE",
"42 0 CURVE SMOOTH",
"91 0 LINE SMOOTH",
"97 0 OFFCURVE",
"101 3 OFFCURVE",
"102 9 CURVE SMOOTH"
);
}
);
width = 703;
}
);
leftKerningGroup = B;
note = H;
rightKerningGroup = H;
unicode = 0048;
},
{
color = 1;
glyphname = I;
lastChange = "2020-04-15 13:27:26 +0000";
layers = (
{
anchors = (
{
name = bottom;
position = "{100, 0}";
},
{
name = ogonek;
position = "{180, 0}";
},
{
name = top;
position = "{235, 763}";
},
{
name = topleft;
position = "{77, 763}";
}
);
background = {
anchors = (
{
name = bottom;
position = "{150, 0}";
},
{
name = ogonek;
position = "{223, 0}";
},
{
name = top;
position = "{150, 763}";
},
{
name = topleft;
position = "{-8, 763}";
}
);
paths = (
{
closed = 1;
nodes = (
"223 0 LINE SMOOTH",
"233 0 OFFCURVE",
"239 6 OFFCURVE",
"239 16 CURVE SMOOTH",
"239 747 LINE SMOOTH",
"239 757 OFFCURVE",
"233 763 OFFCURVE",
"223 763 CURVE SMOOTH",
"76 763 LINE SMOOTH",
"66 763 OFFCURVE",
"60 757 OFFCURVE",
"60 747 CURVE SMOOTH",
"60 16 LINE SMOOTH",
"60 6 OFFCURVE",
"66 0 OFFCURVE",
"76 0 CURVE SMOOTH"
);
}
);
};
layerId = "FD6EB2BB-8839-4CDB-86BF-4EEAE3F02079";
paths = (
{
closed = 1;
nodes = (
"322 752 LINE SMOOTH",
"323 758 OFFCURVE",
"320 763 OFFCURVE",
"313 763 CURVE SMOOTH",
"154 763 LINE SMOOTH",
"148 763 OFFCURVE",
"144 760 OFFCURVE",
"143 754 CURVE SMOOTH",
"12 11 LINE SMOOTH",
"11 5 OFFCURVE",
"14 0 OFFCURVE",
"21 0 CURVE SMOOTH",
"180 0 LINE SMOOTH",
"186 0 OFFCURVE",
"190 3 OFFCURVE",
"191 9 CURVE SMOOTH"
);
}
);
width = 300;
},
{
anchors = (
{
name = bottom;
position = "{76, 0}";
},
{
name = ogonek;
position = "{113, 0}";
},
{
name = top;
position = "{211, 763}";
},
{
name = topleft;
position = "{84, 763}";
}
);
background = {
anchors = (
{
name = bottom;
position = "{125, 0}";
},
{
name = ogonek;
position = "{155, 0}";
},
{
name = top;
position = "{125, 763}";
},
{
name = topleft;
position = "{-2, 763}";
}
);
paths = (
{
closed = 1;
nodes = (
"155 0 LINE SMOOTH",
"165 0 OFFCURVE",
"171 6 OFFCURVE",
"171 16 CURVE SMOOTH",
"171 747 LINE SMOOTH",
"171 757 OFFCURVE",
"165 763 OFFCURVE",
"155 763 CURVE SMOOTH",
"95 763 LINE SMOOTH",
"85 763 OFFCURVE",
"79 757 OFFCURVE",
"79 747 CURVE SMOOTH",
"79 16 LINE SMOOTH",
"79 6 OFFCURVE",
"85 0 OFFCURVE",
"95 0 CURVE SMOOTH"
);
}
);
};
layerId = "11907447-A26F-432E-A335-7727E0303767";
paths = (
{
closed = 1;
nodes = (
"255 752 LINE SMOOTH",
"256 758 OFFCURVE",
"253 763 OFFCURVE",
"246 763 CURVE SMOOTH",
"174 763 LINE SMOOTH",
"168 763 OFFCURVE",
"164 760 OFFCURVE",
"163 754 CURVE SMOOTH",
"32 11 LINE SMOOTH",
"31 5 OFFCURVE",
"34 0 OFFCURVE",
"41 0 CURVE SMOOTH",
"113 0 LINE SMOOTH",
"119 0 OFFCURVE",
"123 3 OFFCURVE",
"124 9 CURVE SMOOTH"
);
}
);
width = 251;
},
{
anchors = (
{
name = bottom;
position = "{66, 0}";
},
{
name = ogonek;
position = "{91, 0}";
},
{
name = top;
position = "{200, 763}";
},
{
name = topleft;
position = "{80, 763}";
}
);
background = {
anchors = (
{
name = bottom;
position = "{114, 0}";
},
{
name = ogonek;
position = "{138, 0}";
},
{
name = top;
position = "{114, 763}";
},
{
name = topleft;
position = "{-6, 763}";
}
);
paths = (
{
closed = 1;
nodes = (
"138 0 LINE SMOOTH",
"144 0 OFFCURVE",
"148 4 OFFCURVE",
"148 10 CURVE SMOOTH",
"148 753 LINE SMOOTH",
"148 759 OFFCURVE",
"144 763 OFFCURVE",
"138 763 CURVE SMOOTH",
"89 763 LINE SMOOTH",
"83 763 OFFCURVE",
"79 759 OFFCURVE",
"79 753 CURVE SMOOTH",
"79 10 LINE SMOOTH",
"79 4 OFFCURVE",
"83 0 OFFCURVE",
"89 0 CURVE SMOOTH"
);
}
);
};
layerId = "2F4EEC1B-9E89-4E08-AD53-AB625B6E887D";
paths = (
{
closed = 1;
nodes = (
"232 752 LINE SMOOTH",
"233 758 OFFCURVE",
"230 763 OFFCURVE",
"223 763 CURVE SMOOTH",
"174 763 LINE SMOOTH",
"168 763 OFFCURVE",
"164 760 OFFCURVE",
"163 754 CURVE SMOOTH",
"33 11 LINE SMOOTH",
"32 5 OFFCURVE",
"35 0 OFFCURVE",
"42 0 CURVE SMOOTH",
"91 0 LINE SMOOTH",
"97 0 OFFCURVE",
"101 3 OFFCURVE",
"102 9 CURVE SMOOTH"
);
}
);
width = 228;
}
);
leftKerningGroup = I;
note = I;
rightKerningGroup = I;
unicode = 0049;
},
{
color = 1;
glyphname = J;
lastChange = "2020-04-15 12:07:53 +0000";
layers = (
{
background = {
paths = (
{
closed = 1;
nodes = (
"106 0 LINE SMOOTH",
"276 0 OFFCURVE",
"346 46 OFFCURVE",
"346 218 CURVE SMOOTH",
"346 747 LINE SMOOTH",
"346 757 OFFCURVE",
"340 763 OFFCURVE",
"330 763 CURVE SMOOTH",
"182 763 LINE SMOOTH",
"172 763 OFFCURVE",
"166 757 OFFCURVE",
"166 747 CURVE SMOOTH",
"166 220 LINE SMOOTH",
"166 176 OFFCURVE",
"143 160 OFFCURVE",
"106 160 CURVE SMOOTH",
"24 160 LINE SMOOTH",
"14 160 OFFCURVE",
"8 154 OFFCURVE",
"8 144 CURVE SMOOTH",
"8 16 LINE SMOOTH",
"8 6 OFFCURVE",
"14 0 OFFCURVE",
"24 0 CURVE SMOOTH"
);
}
);
};
layerId = "FD6EB2BB-8839-4CDB-86BF-4EEAE3F02079";
paths = (
{
closed = 1;
nodes = (
"226 0 OFFCURVE",
"303 46 OFFCURVE",
"334 218 CURVE SMOOTH",
"429 752 LINE SMOOTH",
"430 758 OFFCURVE",
"427 763 OFFCURVE",
"420 763 CURVE SMOOTH",
"260 763 LINE SMOOTH",
"254 763 OFFCURVE",
"250 760 OFFCURVE",
"249 754 CURVE SMOOTH",
"155 220 LINE SMOOTH",
"147 176 OFFCURVE",
"121 160 OFFCURVE",
"84 160 CURVE SMOOTH",
"-5 160 LINE SMOOTH",
"-11 160 OFFCURVE",
"-15 157 OFFCURVE",
"-16 151 CURVE SMOOTH",
"-40 11 LINE SMOOTH",
"-41 5 OFFCURVE",
"-38 0 OFFCURVE",
"-31 0 CURVE SMOOTH",
"56 0 LINE SMOOTH"
);
}
);
width = 402;
},
{
background = {
paths = (
{
closed = 1;
nodes = (
"112 0 LINE SMOOTH",
"268 0 OFFCURVE",
"307 68 OFFCURVE",
"307 184 CURVE SMOOTH",
"307 747 LINE SMOOTH",
"307 757 OFFCURVE",
"301 763 OFFCURVE",
"291 763 CURVE SMOOTH",
"231 763 LINE SMOOTH",
"221 763 OFFCURVE",
"215 757 OFFCURVE",
"215 747 CURVE SMOOTH",
"215 185 LINE SMOOTH",
"215 113 OFFCURVE",
"180 83 OFFCURVE",
"112 83 CURVE SMOOTH",
"32 83 LINE SMOOTH",
"22 83 OFFCURVE",
"16 77 OFFCURVE",
"16 67 CURVE SMOOTH",
"16 16 LINE SMOOTH",
"16 6 OFFCURVE",
"22 0 OFFCURVE",
"32 0 CURVE SMOOTH"
);
}
);
};
layerId = "11907447-A26F-432E-A335-7727E0303767";
paths = (
{
closed = 1;
nodes = (
"219 0 OFFCURVE",
"271 68 OFFCURVE",
"291 184 CURVE SMOOTH",
"391 752 LINE SMOOTH",
"392 758 OFFCURVE",
"389 763 OFFCURVE",
"382 763 CURVE SMOOTH",
"310 763 LINE SMOOTH",
"304 763 OFFCURVE",
"300 760 OFFCURVE",
"299 754 CURVE SMOOTH",
"199 185 LINE SMOOTH",
"186 113 OFFCURVE",
"146 83 OFFCURVE",
"78 83 CURVE SMOOTH",
"-9 83 LINE SMOOTH",
"-15 83 OFFCURVE",
"-19 80 OFFCURVE",
"-20 74 CURVE SMOOTH",
"-31 11 LINE SMOOTH",
"-32 5 OFFCURVE",
"-29 0 OFFCURVE",
"-22 0 CURVE SMOOTH",
"63 0 LINE SMOOTH"
);
}
);
width = 383;
},
{
anchors = (
{
name = bottom;
position = "{145, 0}";
},
{
name = top;
position = "{279, 763}";
}
);
background = {
anchors = (
{
name = bottom;
position = "{193, 0}";
},
{
name = top;
position = "{193, 763}";
}
);
paths = (
{
closed = 1;
nodes = (
"112 0 LINE SMOOTH",
"257 0 OFFCURVE",
"295 67 OFFCURVE",
"295 175 CURVE SMOOTH",
"295 753 LINE SMOOTH",
"295 759 OFFCURVE",
"291 763 OFFCURVE",
"285 763 CURVE SMOOTH",
"236 763 LINE SMOOTH",
"230 763 OFFCURVE",
"226 759 OFFCURVE",
"226 753 CURVE SMOOTH",
"226 176 LINE SMOOTH",
"226 100 OFFCURVE",
"192 62 OFFCURVE",
"112 62 CURVE SMOOTH",
"26 62 LINE SMOOTH",
"20 62 OFFCURVE",
"16 58 OFFCURVE",
"16 52 CURVE SMOOTH",
"16 10 LINE SMOOTH",
"16 4 OFFCURVE",
"20 0 OFFCURVE",
"26 0 CURVE SMOOTH"
);
}
);
};
layerId = "2F4EEC1B-9E89-4E08-AD53-AB625B6E887D";
paths = (
{
closed = 1;
nodes = (
"209 0 OFFCURVE",
"258 67 OFFCURVE",
"277 175 CURVE SMOOTH",
"379 752 LINE SMOOTH",
"380 758 OFFCURVE",
"377 763 OFFCURVE",
"370 763 CURVE SMOOTH",
"321 763 LINE SMOOTH",
"315 763 OFFCURVE",
"311 760 OFFCURVE",
"310 754 CURVE SMOOTH",
"209 176 LINE SMOOTH",
"196 100 OFFCURVE",
"155 62 OFFCURVE",
"75 62 CURVE SMOOTH",
"-12 62 LINE SMOOTH",
"-18 62 OFFCURVE",
"-22 59 OFFCURVE",
"-23 53 CURVE SMOOTH",
"-30 11 LINE SMOOTH",
"-31 5 OFFCURVE",
"-28 0 OFFCURVE",
"-21 0 CURVE SMOOTH",
"64 0 LINE SMOOTH"
);
}
);
width = 371;
}
);
leftKerningGroup = J;
note = J;
rightKerningGroup = J;
unicode = 004A;
},
{
color = 1;
glyphname = K;
lastChange = "2020-04-15 12:07:57 +0000";
layers = (
{
anchors = (
{
name = bottom;
position = "{298, 0}";
},
{
name = top;
position = "{433, 763}";
}
);
background = {
paths = (
{
closed = 1;
nodes = (
"189 0 LINE",
"234 255 LINE SMOOTH",
"244 312 OFFCURVE",
"241 328 OFFCURVE",
"229 359 CURVE",
"254 369 LINE",
"264 332 OFFCURVE",
"286 286 OFFCURVE",
"295 267 CURVE SMOOTH",
"430 0 LINE",
"643 0 LINE",
"430 393 LINE",
"778 763 LINE",
"558 763 LINE",
"331 515 LINE SMOOTH",
"317 496 OFFCURVE",
"286 458 OFFCURVE",
"279 413 CURVE",
"261 413 LINE",
"324 763 LINE",
"145 763 LINE",
"10 0 LINE"
);
}
);
};
layerId = "FD6EB2BB-8839-4CDB-86BF-4EEAE3F02079";
paths = (
{
closed = 1;
nodes = (
"247 335 LINE SMOOTH",
"249 345 OFFCURVE",
"256 344 OFFCURVE",
"260 336 CURVE SMOOTH",
"424 7 LINE SMOOTH",
"426 2 OFFCURVE",
"431 0 OFFCURVE",
"436 0 CURVE SMOOTH",
"631 0 LINE SMOOTH",
"638 0 OFFCURVE",
"642 5 OFFCURVE",
"638 12 CURVE SMOOTH",
"434 385 LINE SMOOTH",
"431 390 OFFCURVE",
"432 394 OFFCURVE",
"436 399 CURVE SMOOTH",
"764 751 LINE SMOOTH",
"770 758 OFFCURVE",
"767 763 OFFCURVE",
"759 763 CURVE SMOOTH",
"568 763 LINE SMOOTH",
"563 763 OFFCURVE",
"559 762 OFFCURVE",
"556 758 CURVE SMOOTH",
"283 462 LINE SMOOTH",
"277 455 OFFCURVE",
"270 458 OFFCURVE",
"272 467 CURVE SMOOTH",
"322 752 LINE SMOOTH",
"323 758 OFFCURVE",
"320 763 OFFCURVE",
"313 763 CURVE SMOOTH",
"154 763 LINE SMOOTH",
"148 763 OFFCURVE",
"144 760 OFFCURVE",
"143 754 CURVE SMOOTH",
"12 11 LINE SMOOTH",
"11 5 OFFCURVE",
"14 0 OFFCURVE",
"21 0 CURVE SMOOTH",
"180 0 LINE SMOOTH",
"186 0 OFFCURVE",
"190 3 OFFCURVE",
"191 9 CURVE SMOOTH"
);
}
);
width = 695;
},
{
anchors = (
{
name = bottom;
position = "{267, 0}";
},
{
name = top;
position = "{402, 763}";
}
);
background = {
paths = (
{
closed = 1;
nodes = (
"122 0 LINE",
"176 303 LINE SMOOTH",
"183 341 OFFCURVE",
"180 350 OFFCURVE",
"168 365 CURVE",
"187 381 LINE",
"201 360 OFFCURVE",
"219 332 OFFCURVE",
"227 321 CURVE SMOOTH",
"454 0 LINE",
"569 0 LINE",
"288 391 LINE",
"699 763 LINE",
"573 763 LINE",
"248 465 LINE SMOOTH",
"237 454 OFFCURVE",
"215 434 OFFCURVE",
"211 410 CURVE",
"194 410 LINE",
"257 763 LINE",
"165 763 LINE",
"30 0 LINE"
);
}
);
};
layerId = "11907447-A26F-432E-A335-7727E0303767";
paths = (
{
closed = 1;
nodes = (
"186 358 LINE SMOOTH",
"187 366 OFFCURVE",
"194 369 OFFCURVE",
"199 361 CURVE SMOOTH",
"450 6 LINE SMOOTH",
"453 1 OFFCURVE",
"457 0 OFFCURVE",
"462 0 CURVE SMOOTH",
"554 0 LINE SMOOTH",
"562 0 OFFCURVE",
"565 6 OFFCURVE",
"560 12 CURVE SMOOTH",
"294 383 LINE SMOOTH",
"291 388 OFFCURVE",
"291 393 OFFCURVE",
"295 397 CURVE SMOOTH",
"685 751 LINE SMOOTH",
"692 757 OFFCURVE",
"690 763 OFFCURVE",
"681 763 CURVE SMOOTH",
"581 763 LINE SMOOTH",
"576 763 OFFCURVE",
"573 762 OFFCURVE",
"569 758 CURVE SMOOTH",
"210 431 LINE SMOOTH",
"203 424 OFFCURVE",
"197 427 OFFCURVE",
"199 437 CURVE SMOOTH",
"255 752 LINE SMOOTH",
"256 758 OFFCURVE",
"253 763 OFFCURVE",
"246 763 CURVE SMOOTH",
"174 763 LINE SMOOTH",
"168 763 OFFCURVE",
"164 760 OFFCURVE",
"163 754 CURVE SMOOTH",
"32 11 LINE SMOOTH",
"31 5 OFFCURVE",
"34 0 OFFCURVE",
"41 0 CURVE SMOOTH",
"113 0 LINE SMOOTH",
"119 0 OFFCURVE",
"123 3 OFFCURVE",
"124 9 CURVE SMOOTH"
);
}
);
width = 632;
},
{
anchors = (
{
name = bottom;
position = "{251, 0}";
},
{
name = top;
position = "{385, 763}";
}
);
background = {
paths = (
{
closed = 1;
nodes = (
"100 0 LINE",
"156 322 LINE SMOOTH",
"162 356 OFFCURVE",
"161 361 OFFCURVE",
"152 379 CURVE",
"171 390 LINE",
"180 369 OFFCURVE",
"201 340 OFFCURVE",
"210 328 CURVE SMOOTH",
"459 0 LINE",
"546 0 LINE",
"243 392 LINE",
"670 763 LINE",
"577 763 LINE",
"230 464 LINE SMOOTH",
"217 452 OFFCURVE",
"191 430 OFFCURVE",
"188 406 CURVE",
"171 406 LINE",
"234 763 LINE",
"165 763 LINE",
"31 0 LINE"
);
}
);
};
layerId = "2F4EEC1B-9E89-4E08-AD53-AB625B6E887D";
paths = (
{
closed = 1;
nodes = (
"164 368 LINE SMOOTH",
"165 376 OFFCURVE",
"172 379 OFFCURVE",
"177 372 CURVE SMOOTH",
"454 6 LINE SMOOTH",
"457 1 OFFCURVE",
"462 0 OFFCURVE",
"467 0 CURVE SMOOTH",
"531 0 LINE SMOOTH",
"539 0 OFFCURVE",
"542 6 OFFCURVE",
"537 12 CURVE SMOOTH",
"249 384 LINE SMOOTH",
"245 389 OFFCURVE",
"245 394 OFFCURVE",
"250 398 CURVE SMOOTH",
"656 751 LINE SMOOTH",
"663 757 OFFCURVE",
"660 763 OFFCURVE",
"651 763 CURVE SMOOTH",
"584 763 LINE SMOOTH",
"579 763 OFFCURVE",
"576 762 OFFCURVE",
"572 758 CURVE SMOOTH",
"187 423 LINE SMOOTH",
"180 417 OFFCURVE",
"173 419 OFFCURVE",
"175 429 CURVE SMOOTH",
"232 752 LINE SMOOTH",
"233 758 OFFCURVE",
"230 763 OFFCURVE",
"223 763 CURVE SMOOTH",
"174 763 LINE SMOOTH",
"168 763 OFFCURVE",
"164 760 OFFCURVE",
"163 754 CURVE SMOOTH",
"33 11 LINE SMOOTH",
"32 5 OFFCURVE",
"35 0 OFFCURVE",
"42 0 CURVE SMOOTH",
"91 0 LINE SMOOTH",
"97 0 OFFCURVE",
"101 3 OFFCURVE",
"102 9 CURVE SMOOTH"
);
}
);
width = 612;
}
);
leftKerningGroup = B;
note = K;
rightKerningGroup = K;
unicode = 004B;
},
{
color = 1;
glyphname = L;
lastChange = "2020-04-15 13:17:57 +0000";
layers = (
{
anchors = (
{
name = bottom;
position = "{255, 0}";
},
{
name = center;
position = "{279, 382}";
},
{
name = top;
position = "{235, 763}";
},
{
name = topright;
position = "{363, 567}";
}
);
background = {
anchors = (
{
name = bottom;
position = "{305, 0}";
},
{
name = center;
position = "{262, 382}";
},
{
name = top;
position = "{150, 763}";
},
{
name = topright;
position = "{313, 567}";
}
);
paths = (
{
closed = 1;
nodes = (
"534 0 LINE SMOOTH",
"544 0 OFFCURVE",
"550 6 OFFCURVE",
"550 16 CURVE SMOOTH",
"550 144 LINE SMOOTH",
"550 154 OFFCURVE",
"544 160 OFFCURVE",
"534 160 CURVE SMOOTH",
"255 160 LINE SMOOTH",
"245 160 OFFCURVE",
"239 166 OFFCURVE",
"239 176 CURVE SMOOTH",
"239 747 LINE SMOOTH",
"239 757 OFFCURVE",
"233 763 OFFCURVE",
"223 763 CURVE SMOOTH",
"76 763 LINE SMOOTH",
"66 763 OFFCURVE",
"60 757 OFFCURVE",
"60 747 CURVE SMOOTH",
"60 16 LINE SMOOTH",
"60 6 OFFCURVE",
"66 0 OFFCURVE",
"76 0 CURVE SMOOTH"
);
}
);
};
layerId = "FD6EB2BB-8839-4CDB-86BF-4EEAE3F02079";
paths = (
{
closed = 1;
nodes = (
"482 0 LINE SMOOTH",
"494 0 OFFCURVE",
"501 6 OFFCURVE",
"503 18 CURVE SMOOTH",
"524 138 LINE SMOOTH",
"526 151 OFFCURVE",
"519 160 OFFCURVE",
"506 160 CURVE SMOOTH",
"239 160 LINE SMOOTH",
"226 160 OFFCURVE",
"219 169 OFFCURVE",
"221 182 CURVE SMOOTH",
"320 741 LINE SMOOTH",
"322 754 OFFCURVE",
"315 763 OFFCURVE",
"302 763 CURVE SMOOTH",
"163 763 LINE SMOOTH",
"151 763 OFFCURVE",
"144 757 OFFCURVE",
"142 745 CURVE SMOOTH",
"14 22 LINE SMOOTH",
"12 9 OFFCURVE",
"19 0 OFFCURVE",
"32 0 CURVE SMOOTH"
);
}
);
width = 558;
},
{
anchors = (
{
name = bottom;
position = "{247, 0}";
},
{
name = center;
position = "{275, 382}";
},
{
name = top;
position = "{211, 763}";
},
{
name = topright;
position = "{395, 553}";
}
);
background = {
anchors = (
{
name = bottom;
position = "{296, 0}";
},
{
name = center;
position = "{256, 382}";
},
{
name = top;
position = "{125, 763}";
},
{
name = topright;
position = "{346, 553}";
}
);
paths = (
{
closed = 1;
nodes = (
"497 0 LINE SMOOTH",
"507 0 OFFCURVE",
"513 6 OFFCURVE",
"513 16 CURVE SMOOTH",
"513 67 LINE SMOOTH",
"513 77 OFFCURVE",
"507 83 OFFCURVE",
"497 83 CURVE SMOOTH",
"187 83 LINE SMOOTH",
"177 83 OFFCURVE",
"171 89 OFFCURVE",
"171 99 CURVE SMOOTH",
"171 747 LINE SMOOTH",
"171 757 OFFCURVE",
"165 763 OFFCURVE",
"155 763 CURVE SMOOTH",
"95 763 LINE SMOOTH",
"85 763 OFFCURVE",
"79 757 OFFCURVE",
"79 747 CURVE SMOOTH",
"79 16 LINE SMOOTH",
"79 6 OFFCURVE",
"85 0 OFFCURVE",
"95 0 CURVE SMOOTH"
);
}
);
};
layerId = "11907447-A26F-432E-A335-7727E0303767";
paths = (
{
closed = 1;
nodes = (
"455 0 LINE SMOOTH",
"461 0 OFFCURVE",
"465 3 OFFCURVE",
"466 9 CURVE SMOOTH",
"477 72 LINE SMOOTH",
"478 78 OFFCURVE",
"475 83 OFFCURVE",
"468 83 CURVE SMOOTH",
"148 83 LINE SMOOTH",
"141 83 OFFCURVE",
"138 88 OFFCURVE",
"139 94 CURVE SMOOTH",
"255 752 LINE SMOOTH",
"256 758 OFFCURVE",
"253 763 OFFCURVE",
"246 763 CURVE SMOOTH",
"174 763 LINE SMOOTH",
"168 763 OFFCURVE",
"164 760 OFFCURVE",
"163 754 CURVE SMOOTH",
"32 11 LINE SMOOTH",
"31 5 OFFCURVE",
"34 0 OFFCURVE",
"41 0 CURVE SMOOTH"
);
}
);
width = 528;
},
{
anchors = (
{
name = bottom;
position = "{241, 0}";
},
{
name = center;
position = "{267, 382}";
},
{
name = top;
position = "{200, 763}";
},
{
name = topright;
position = "{379, 549}";
}
);
background = {
anchors = (
{
name = bottom;
position = "{289, 0}";
},
{
name = center;
position = "{248, 382}";
},
{
name = top;
position = "{114, 763}";
},
{
name = topright;
position = "{331, 549}";
}
);
paths = (
{
closed = 1;
nodes = (
"488 0 LINE SMOOTH",
"494 0 OFFCURVE",
"498 4 OFFCURVE",
"498 10 CURVE SMOOTH",
"498 52 LINE SMOOTH",
"498 58 OFFCURVE",
"494 62 OFFCURVE",
"488 62 CURVE SMOOTH",
"158 62 LINE SMOOTH",
"152 62 OFFCURVE",
"148 66 OFFCURVE",
"148 72 CURVE SMOOTH",
"148 753 LINE SMOOTH",
"148 759 OFFCURVE",
"144 763 OFFCURVE",
"138 763 CURVE SMOOTH",
"89 763 LINE SMOOTH",
"83 763 OFFCURVE",
"79 759 OFFCURVE",
"79 753 CURVE SMOOTH",
"79 10 LINE SMOOTH",
"79 4 OFFCURVE",
"83 0 OFFCURVE",
"89 0 CURVE SMOOTH"
);
}
);
};
layerId = "2F4EEC1B-9E89-4E08-AD53-AB625B6E887D";
paths = (
{
closed = 1;
nodes = (
"441 0 LINE SMOOTH",
"447 0 OFFCURVE",
"451 3 OFFCURVE",
"452 9 CURVE SMOOTH",
"459 51 LINE SMOOTH",
"460 57 OFFCURVE",
"457 62 OFFCURVE",
"450 62 CURVE SMOOTH",
"122 62 LINE SMOOTH",
"115 62 OFFCURVE",
"112 67 OFFCURVE",
"113 73 CURVE SMOOTH",
"232 752 LINE SMOOTH",
"233 758 OFFCURVE",
"230 763 OFFCURVE",
"223 763 CURVE SMOOTH",
"174 763 LINE SMOOTH",
"168 763 OFFCURVE",
"164 760 OFFCURVE",
"163 754 CURVE SMOOTH",
"33 11 LINE SMOOTH",
"32 5 OFFCURVE",
"35 0 OFFCURVE",
"42 0 CURVE SMOOTH"
);
}
);
width = 513;
}
);
leftKerningGroup = B;
note = L;
rightKerningGroup = L;
unicode = 004C;
},
{
color = 1;
glyphname = Lslash;
lastChange = "2020-04-15 11:20:59 +0000";
layers = (
{
anchors = (
{
name = bottom;
position = "{275, 0}";
},
{
name = center;
position = "{301, 382}";
},
{
name = top;
position = "{368, 763}";
},
{
name = topright;
position = "{622, 763}";
}
);
background = {
anchors = (
{
name = bottom;
position = "{323, 0}";
},
{
name = center;
position = "{282, 382}";
},
{
name = top;
position = "{282, 763}";
},
{
name = topright;
position = "{536, 763}";
}
);
paths = (
{
closed = 1;
nodes = (
"522 0 LINE SMOOTH",
"528 0 OFFCURVE",
"532 4 OFFCURVE",
"532 10 CURVE SMOOTH",
"532 52 LINE SMOOTH",
"532 58 OFFCURVE",
"528 62 OFFCURVE",
"522 62 CURVE SMOOTH",
"192 62 LINE SMOOTH",
"186 62 OFFCURVE",
"182 66 OFFCURVE",
"182 72 CURVE SMOOTH",
"182 380 LINE SMOOTH",
"182 385 OFFCURVE",
"184 390 OFFCURVE",
"189 392 CURVE SMOOTH",
"392 497 LINE SMOOTH",
"397 499 OFFCURVE",
"399 504 OFFCURVE",
"399 509 CURVE SMOOTH",
"399 550 LINE SMOOTH",
"399 557 OFFCURVE",
"394 561 OFFCURVE",
"387 557 CURVE SMOOTH",
"194 457 LINE SMOOTH",
"187 453 OFFCURVE",
"182 457 OFFCURVE",
"182 464 CURVE SMOOTH",
"182 753 LINE SMOOTH",
"182 759 OFFCURVE",
"178 763 OFFCURVE",
"172 763 CURVE SMOOTH",
"123 763 LINE SMOOTH",
"117 763 OFFCURVE",
"113 759 OFFCURVE",
"113 753 CURVE SMOOTH",
"113 424 LINE SMOOTH",
"113 419 OFFCURVE",
"111 414 OFFCURVE",
"106 412 CURVE SMOOTH",
"47 382 LINE SMOOTH",
"42 380 OFFCURVE",
"40 375 OFFCURVE",
"40 370 CURVE SMOOTH",
"40 328 LINE SMOOTH",
"40 321 OFFCURVE",
"45 317 OFFCURVE",
"52 321 CURVE SMOOTH",
"101 347 LINE SMOOTH",
"108 351 OFFCURVE",
"113 347 OFFCURVE",
"113 340 CURVE SMOOTH",
"113 10 LINE SMOOTH",
"113 4 OFFCURVE",
"117 0 OFFCURVE",
"123 0 CURVE SMOOTH"
);
}
);
};
layerId = "2F4EEC1B-9E89-4E08-AD53-AB625B6E887D";
paths = (
{
closed = 1;
nodes = (
"495 62 LINE",
"145 62 LINE",
"202 388 LINE",
"439 501 LINE",
"450 563 LINE",
"213 451 LINE",
"268 763 LINE",
"199 763 LINE",
"138 416 LINE",
"58 378 LINE",
"47 315 LINE",
"127 353 LINE",
"65 0 LINE",
"484 0 LINE"
);
}
);
width = 560;
},
{
anchors = (
{
name = bottom;
position = "{282, 0}";
},
{
name = center;
position = "{310, 382}";
},
{
name = top;
position = "{377, 763}";
},
{
name = topright;
position = "{635, 763}";
}
);
background = {
anchors = (
{
name = bottom;
position = "{331, 0}";
},
{
name = center;
position = "{291, 382}";
},
{
name = top;
position = "{291, 763}";
},
{
name = topright;
position = "{549, 763}";
}
);
paths = (
{
closed = 1;
nodes = (
"532 0 LINE SMOOTH",
"542 0 OFFCURVE",
"548 6 OFFCURVE",
"548 16 CURVE SMOOTH",
"548 67 LINE SMOOTH",
"548 77 OFFCURVE",
"542 83 OFFCURVE",
"532 83 CURVE SMOOTH",
"222 83 LINE SMOOTH",
"212 83 OFFCURVE",
"206 89 OFFCURVE",
"206 99 CURVE SMOOTH",
"206 376 LINE SMOOTH",
"206 385 OFFCURVE",
"210 391 OFFCURVE",
"218 395 CURVE SMOOTH",
"394 486 LINE SMOOTH",
"402 490 OFFCURVE",
"405 496 OFFCURVE",
"405 505 CURVE SMOOTH",
"405 549 LINE SMOOTH",
"405 561 OFFCURVE",
"397 566 OFFCURVE",
"386 560 CURVE SMOOTH",
"225 477 LINE SMOOTH",
"214 471 OFFCURVE",
"206 476 OFFCURVE",
"206 488 CURVE SMOOTH",
"206 747 LINE SMOOTH",
"206 757 OFFCURVE",
"200 763 OFFCURVE",
"190 763 CURVE SMOOTH",
"130 763 LINE SMOOTH",
"120 763 OFFCURVE",
"114 757 OFFCURVE",
"114 747 CURVE SMOOTH",
"114 433 LINE SMOOTH",
"114 424 OFFCURVE",
"110 418 OFFCURVE",
"102 414 CURVE SMOOTH",
"50 387 LINE SMOOTH",
"42 383 OFFCURVE",
"38 377 OFFCURVE",
"38 368 CURVE SMOOTH",
"38 323 LINE SMOOTH",
"38 311 OFFCURVE",
"46 306 OFFCURVE",
"57 312 CURVE SMOOTH",
"95 331 LINE SMOOTH",
"106 336 OFFCURVE",
"114 332 OFFCURVE",
"114 320 CURVE SMOOTH",
"114 16 LINE SMOOTH",
"114 6 OFFCURVE",
"120 0 OFFCURVE",
"130 0 CURVE SMOOTH"
);
}
);
};
layerId = "11907447-A26F-432E-A335-7727E0303767";
paths = (
{
closed = 1;
nodes = (
"514 83 LINE",
"172 83 LINE",
"226 389 LINE",
"443 492 LINE",
"457 570 LINE",
"240 467 LINE",
"292 763 LINE",
"200 763 LINE",
"139 420 LINE",
"56 381 LINE",
"43 303 LINE",
"125 340 LINE",
"65 0 LINE",
"499 0 LINE"
);
}
);
width = 568;
},
{
anchors = (
{
name = bottom;
position = "{300, 0}";
},
{
name = center;
position = "{324, 382}";
},
{
name = top;
position = "{392, 763}";
},
{
name = topright;
position = "{662, 763}";
}
);
background = {
anchors = (
{
name = bottom;
position = "{350, 0}";
},
{
name = center;
position = "{307, 382}";
},
{
name = top;
position = "{307, 763}";
},
{
name = topright;
position = "{577, 763}";
}
);
paths = (
{
closed = 1;
nodes = (
"579 0 LINE SMOOTH",
"589 0 OFFCURVE",
"595 6 OFFCURVE",
"595 16 CURVE SMOOTH",
"595 144 LINE SMOOTH",
"595 154 OFFCURVE",
"589 160 OFFCURVE",
"579 160 CURVE SMOOTH",
"300 160 LINE SMOOTH",
"290 160 OFFCURVE",
"284 166 OFFCURVE",
"284 176 CURVE SMOOTH",
"284 360 LINE SMOOTH",
"284 369 OFFCURVE",
"288 375 OFFCURVE",
"296 379 CURVE SMOOTH",
"414 440 LINE SMOOTH",
"422 444 OFFCURVE",
"425 450 OFFCURVE",
"425 459 CURVE SMOOTH",
"425 563 LINE SMOOTH",
"425 575 OFFCURVE",
"417 580 OFFCURVE",
"406 574 CURVE SMOOTH",
"303 521 LINE SMOOTH",
"292 515 OFFCURVE",
"284 520 OFFCURVE",
"284 532 CURVE SMOOTH",
"284 747 LINE SMOOTH",
"284 757 OFFCURVE",
"278 763 OFFCURVE",
"268 763 CURVE SMOOTH",
"121 763 LINE SMOOTH",
"111 763 OFFCURVE",
"105 757 OFFCURVE",
"105 747 CURVE SMOOTH",
"105 432 LINE SMOOTH",
"105 423 OFFCURVE",
"101 417 OFFCURVE",
"93 413 CURVE SMOOTH",
"43 387 LINE SMOOTH",
"35 383 OFFCURVE",
"31 377 OFFCURVE",
"31 368 CURVE SMOOTH",
"31 263 LINE SMOOTH",
"31 251 OFFCURVE",
"39 246 OFFCURVE",
"50 252 CURVE SMOOTH",
"86 270 LINE SMOOTH",
"97 275 OFFCURVE",
"105 271 OFFCURVE",
"105 259 CURVE SMOOTH",
"105 16 LINE SMOOTH",
"105 6 OFFCURVE",
"111 0 OFFCURVE",
"121 0 CURVE SMOOTH"
);
}
);
};
layerId = "FD6EB2BB-8839-4CDB-86BF-4EEAE3F02079";
paths = (
{
closed = 1;
nodes = (
"573 160 LINE",
"262 160 LINE",
"300 373 LINE",
"454 446 LINE",
"478 584 LINE",
"324 511 LINE",
"369 763 LINE",
"190 763 LINE",
"129 419 LINE",
"48 381 LINE",
"24 243 LINE",
"104 279 LINE",
"55 0 LINE",
"545 0 LINE"
);
}
);
width = 595;
}
);
unicode = 0141;
},
{
color = 1;
glyphname = M;
lastChange = "2020-04-15 13:18:01 +0000";
layers = (
{
anchors = (
{
name = bottom;
position = "{424, 0}";
},
{
name = top;
position = "{559, 763}";
}
);
layerId = "FD6EB2BB-8839-4CDB-86BF-4EEAE3F02079";
paths = (
{
closed = 1;
nodes = (
"282 527 LINE SMOOTH",
"284 541 OFFCURVE",
"303 539 OFFCURVE",
"304 526 CURVE SMOOTH",
"336 19 LINE SMOOTH",
"337 7 OFFCURVE",
"344 0 OFFCURVE",
"356 0 CURVE SMOOTH",
"494 0 LINE SMOOTH",
"505 0 OFFCURVE",
"513 4 OFFCURVE",
"517 15 CURVE SMOOTH",
"731 531 LINE SMOOTH",
"735 542 OFFCURVE",
"753 537 OFFCURVE",
"751 525 CURVE SMOOTH",
"663 22 LINE SMOOTH",
"661 9 OFFCURVE",
"668 0 OFFCURVE",
"681 0 CURVE SMOOTH",
"820 0 LINE SMOOTH",
"832 0 OFFCURVE",
"839 6 OFFCURVE",
"841 18 CURVE SMOOTH",
"969 741 LINE SMOOTH",
"971 754 OFFCURVE",
"964 763 OFFCURVE",
"951 763 CURVE SMOOTH",
"691 763 LINE SMOOTH",
"680 763 OFFCURVE",
"672 757 OFFCURVE",
"668 747 CURVE SMOOTH",
"473 266 LINE SMOOTH",
"466 248 OFFCURVE",
"450 250 OFFCURVE",
"449 270 CURVE SMOOTH",
"424 744 LINE SMOOTH",
"423 756 OFFCURVE",
"416 763 OFFCURVE",
"404 763 CURVE SMOOTH",
"163 763 LINE SMOOTH",
"151 763 OFFCURVE",
"144 757 OFFCURVE",
"142 745 CURVE SMOOTH",
"14 22 LINE SMOOTH",
"12 9 OFFCURVE",
"19 0 OFFCURVE",
"32 0 CURVE SMOOTH",
"171 0 LINE SMOOTH",
"183 0 OFFCURVE",
"190 6 OFFCURVE",
"192 18 CURVE SMOOTH"
);
}
);
width = 949;
},
{
anchors = (
{
name = bottom;
position = "{401, 0}";
},
{
name = top;
position = "{536, 763}";
}
);
layerId = "11907447-A26F-432E-A335-7727E0303767";
paths = (
{
closed = 1;
nodes = (
"240 669 LINE SMOOTH",
"242 679 OFFCURVE",
"250 677 OFFCURVE",
"251 668 CURVE SMOOTH",
"354 9 LINE SMOOTH",
"355 3 OFFCURVE",
"358 0 OFFCURVE",
"364 0 CURVE SMOOTH",
"438 0 LINE SMOOTH",
"443 0 OFFCURVE",
"448 2 OFFCURVE",
"450 7 CURVE SMOOTH",
"787 674 LINE SMOOTH",
"791 681 OFFCURVE",
"798 678 OFFCURVE",
"797 670 CURVE SMOOTH",
"681 11 LINE SMOOTH",
"680 5 OFFCURVE",
"683 0 OFFCURVE",
"690 0 CURVE SMOOTH",
"762 0 LINE SMOOTH",
"768 0 OFFCURVE",
"772 3 OFFCURVE",
"773 9 CURVE SMOOTH",
"904 752 LINE SMOOTH",
"905 758 OFFCURVE",
"902 763 OFFCURVE",
"895 763 CURVE SMOOTH",
"743 763 LINE SMOOTH",
"738 763 OFFCURVE",
"733 761 OFFCURVE",
"731 756 CURVE SMOOTH",
"425 133 LINE SMOOTH",
"421 125 OFFCURVE",
"413 126 OFFCURVE",
"412 135 CURVE SMOOTH",
"326 754 LINE SMOOTH",
"325 761 OFFCURVE",
"322 763 OFFCURVE",
"316 763 CURVE SMOOTH",
"174 763 LINE SMOOTH",
"168 763 OFFCURVE",
"164 760 OFFCURVE",
"163 754 CURVE SMOOTH",
"32 11 LINE SMOOTH",
"31 5 OFFCURVE",
"34 0 OFFCURVE",
"41 0 CURVE SMOOTH",
"113 0 LINE SMOOTH",
"119 0 OFFCURVE",
"123 3 OFFCURVE",
"124 9 CURVE SMOOTH"
);
}
);
width = 899;
},
{
anchors = (
{
name = bottom;
position = "{390, 0}";
},
{
name = top;
position = "{524, 763}";
}
);
layerId = "2F4EEC1B-9E89-4E08-AD53-AB625B6E887D";
paths = (
{
closed = 1;
nodes = (
"216 659 LINE SMOOTH",
"218 668 OFFCURVE",
"226 668 OFFCURVE",
"228 659 CURVE SMOOTH",
"345 9 LINE SMOOTH",
"346 3 OFFCURVE",
"350 0 OFFCURVE",
"356 0 CURVE SMOOTH",
"425 0 LINE SMOOTH",
"430 0 OFFCURVE",
"435 2 OFFCURVE",
"437 7 CURVE SMOOTH",
"784 658 LINE SMOOTH",
"788 666 OFFCURVE",
"797 665 OFFCURVE",
"795 655 CURVE SMOOTH",
"682 11 LINE SMOOTH",
"681 5 OFFCURVE",
"684 0 OFFCURVE",
"691 0 CURVE SMOOTH",
"740 0 LINE SMOOTH",
"746 0 OFFCURVE",
"750 3 OFFCURVE",
"751 9 CURVE SMOOTH",
"881 752 LINE SMOOTH",
"882 758 OFFCURVE",
"879 763 OFFCURVE",
"872 763 CURVE SMOOTH",
"777 763 LINE SMOOTH",
"772 763 OFFCURVE",
"767 761 OFFCURVE",
"765 756 CURVE SMOOTH",
"408 87 LINE SMOOTH",
"404 79 OFFCURVE",
"397 79 OFFCURVE",
"395 89 CURVE SMOOTH",
"275 754 LINE SMOOTH",
"274 760 OFFCURVE",
"270 763 OFFCURVE",
"264 763 CURVE SMOOTH",
"174 763 LINE SMOOTH",
"168 763 OFFCURVE",
"164 760 OFFCURVE",
"163 754 CURVE SMOOTH",
"33 11 LINE SMOOTH",
"32 5 OFFCURVE",
"35 0 OFFCURVE",
"42 0 CURVE SMOOTH",
"91 0 LINE SMOOTH",
"97 0 OFFCURVE",
"101 3 OFFCURVE",
"102 9 CURVE SMOOTH"
);
}
);
width = 876;
}
);
leftKerningGroup = B;
note = M;
rightKerningGroup = H;
unicode = 004D;
},
{
color = 1;
glyphname = N;
lastChange = "2020-04-15 13:18:05 +0000";
layers = (
{
anchors = (
{
name = bottom;
position = "{337, 0}";
},
{
name = top;
position = "{472, 763}";
}
);
layerId = "FD6EB2BB-8839-4CDB-86BF-4EEAE3F02079";
paths = (
{
closed = 1;
nodes = (
"263 423 LINE SMOOTH",
"266 443 OFFCURVE",
"281 444 OFFCURVE",
"289 427 CURVE SMOOTH",
"475 15 LINE SMOOTH",
"480 4 OFFCURVE",
"488 0 OFFCURVE",
"499 0 CURVE SMOOTH",
"646 0 LINE SMOOTH",
"658 0 OFFCURVE",
"665 6 OFFCURVE",
"667 18 CURVE SMOOTH",
"795 741 LINE SMOOTH",
"797 754 OFFCURVE",
"790 763 OFFCURVE",
"777 763 CURVE SMOOTH",
"638 763 LINE SMOOTH",
"626 763 OFFCURVE",
"619 757 OFFCURVE",
"617 745 CURVE SMOOTH",
"546 342 LINE SMOOTH",
"543 322 OFFCURVE",
"528 322 OFFCURVE",
"520 339 CURVE SMOOTH",
"334 748 LINE SMOOTH",
"329 759 OFFCURVE",
"322 763 OFFCURVE",
"311 763 CURVE SMOOTH",
"163 763 LINE SMOOTH",
"151 763 OFFCURVE",
"144 757 OFFCURVE",
"142 745 CURVE SMOOTH",
"14 22 LINE SMOOTH",
"12 9 OFFCURVE",
"19 0 OFFCURVE",
"32 0 CURVE SMOOTH",
"171 0 LINE SMOOTH",
"183 0 OFFCURVE",
"190 6 OFFCURVE",
"192 18 CURVE SMOOTH"
);
}
);
width = 774;
},
{
anchors = (
{
name = bottom;
position = "{314, 0}";
},
{
name = top;
position = "{449, 763}";
}
);
layerId = "11907447-A26F-432E-A335-7727E0303767";
paths = (
{
closed = 1;
nodes = (
"236 644 LINE SMOOTH",
"238 653 OFFCURVE",
"245 655 OFFCURVE",
"248 645 CURVE SMOOTH",
"461 8 LINE SMOOTH",
"463 3 OFFCURVE",
"468 0 OFFCURVE",
"473 0 CURVE SMOOTH",
"589 0 LINE SMOOTH",
"595 0 OFFCURVE",
"599 3 OFFCURVE",
"600 9 CURVE SMOOTH",
"731 752 LINE SMOOTH",
"732 758 OFFCURVE",
"729 763 OFFCURVE",
"722 763 CURVE SMOOTH",
"651 763 LINE SMOOTH",
"645 763 OFFCURVE",
"641 760 OFFCURVE",
"640 754 CURVE SMOOTH",
"527 117 LINE SMOOTH",
"525 108 OFFCURVE",
"518 107 OFFCURVE",
"515 116 CURVE SMOOTH",
"302 755 LINE SMOOTH",
"300 760 OFFCURVE",
"295 763 OFFCURVE",
"290 763 CURVE SMOOTH",
"174 763 LINE SMOOTH",
"168 763 OFFCURVE",
"164 760 OFFCURVE",
"163 754 CURVE SMOOTH",
"32 11 LINE SMOOTH",
"31 5 OFFCURVE",
"34 0 OFFCURVE",
"41 0 CURVE SMOOTH",
"113 0 LINE SMOOTH",
"119 0 OFFCURVE",
"123 3 OFFCURVE",
"124 9 CURVE SMOOTH"
);
}
);
width = 727;
},
{
anchors = (
{
name = bottom;
position = "{304, 0}";
},
{
name = top;
position = "{438, 763}";
}
);
layerId = "2F4EEC1B-9E89-4E08-AD53-AB625B6E887D";
paths = (
{
closed = 1;
nodes = (
"218 673 LINE SMOOTH",
"220 682 OFFCURVE",
"227 684 OFFCURVE",
"230 674 CURVE SMOOTH",
"467 8 LINE SMOOTH",
"469 2 OFFCURVE",
"474 0 OFFCURVE",
"479 0 CURVE SMOOTH",
"567 0 LINE SMOOTH",
"573 0 OFFCURVE",
"577 3 OFFCURVE",
"578 9 CURVE SMOOTH",
"708 752 LINE SMOOTH",
"709 758 OFFCURVE",
"706 763 OFFCURVE",
"699 763 CURVE SMOOTH",
"651 763 LINE SMOOTH",
"645 763 OFFCURVE",
"641 760 OFFCURVE",
"640 754 CURVE SMOOTH",
"523 87 LINE SMOOTH",
"521 78 OFFCURVE",
"514 76 OFFCURVE",
"511 86 CURVE SMOOTH",
"274 755 LINE SMOOTH",
"272 761 OFFCURVE",
"267 763 OFFCURVE",
"262 763 CURVE SMOOTH",
"174 763 LINE SMOOTH",
"168 763 OFFCURVE",
"164 760 OFFCURVE",
"163 754 CURVE SMOOTH",
"33 11 LINE SMOOTH",
"32 5 OFFCURVE",
"35 0 OFFCURVE",
"42 0 CURVE SMOOTH",
"91 0 LINE SMOOTH",
"97 0 OFFCURVE",
"101 3 OFFCURVE",
"102 9 CURVE SMOOTH"
);
}
);
width = 704;
}
);
leftKerningGroup = B;
note = N;
rightKerningGroup = H;
unicode = 004E;
},
{
color = 1;
glyphname = O;
lastChange = "2020-04-15 11:20:59 +0000";
layers = (
{
anchors = (
{
name = bottom;
position = "{362, 0}";
},
{
name = center;
position = "{429, 382}";
},
{
name = ogonek;
position = "{486, 0}";
},
{
name = top;
position = "{497, 763}";
},
{
name = topleft;
position = "{106, 763}";
},
{
name = topright;
position = "{888, 763}";
}
);
layerId = "FD6EB2BB-8839-4CDB-86BF-4EEAE3F02079";
paths = (
{
closed = 1;
nodes = (
"818 200 OFFCURVE",
"818 473 CURVE SMOOTH",
"818 645 OFFCURVE",
"721 779 OFFCURVE",
"500 779 CURVE SMOOTH",
"230 779 OFFCURVE",
"41 564 OFFCURVE",
"41 292 CURVE SMOOTH",
"41 119 OFFCURVE",
"137 -17 OFFCURVE",
"360 -17 CURVE SMOOTH",
"629 -17 OFFCURVE"
);
},
{
closed = 1;
nodes = (
"232 210 OFFCURVE",
"232 317 CURVE SMOOTH",
"232 470 OFFCURVE",
"321 619 OFFCURVE",
"472 619 CURVE SMOOTH",
"572 619 OFFCURVE",
"627 554 OFFCURVE",
"627 448 CURVE SMOOTH",
"627 294 OFFCURVE",
"539 143 OFFCURVE",
"388 143 CURVE SMOOTH",
"287 143 OFFCURVE"
);
}
);
width = 826;
},
{
anchors = (
{
name = bottom;
position = "{356, 0}";
},
{
name = center;
position = "{424, 382}";
},
{
name = ogonek;
position = "{445, 0}";
},
{
name = top;
position = "{491, 763}";
},
{
name = topleft;
position = "{104, 763}";
},
{
name = topright;
position = "{878, 763}";
}
);
layerId = "11907447-A26F-432E-A335-7727E0303767";
paths = (
{
closed = 1;
nodes = (
"787 211 OFFCURVE",
"787 473 CURVE SMOOTH",
"787 641 OFFCURVE",
"698 773 OFFCURVE",
"492 773 CURVE SMOOTH",
"237 773 OFFCURVE",
"60 552 OFFCURVE",
"60 289 CURVE SMOOTH",
"60 122 OFFCURVE",
"150 -10 OFFCURVE",
"353 -10 CURVE SMOOTH",
"609 -10 OFFCURVE"
);
},
{
closed = 1;
nodes = (
"153 165 OFFCURVE",
"153 302 CURVE SMOOTH",
"153 505 OFFCURVE",
"278 690 OFFCURVE",
"477 690 CURVE SMOOTH",
"622 690 OFFCURVE",
"694 597 OFFCURVE",
"694 461 CURVE SMOOTH",
"694 257 OFFCURVE",
"568 73 OFFCURVE",
"368 73 CURVE SMOOTH",
"226 73 OFFCURVE"
);
}
);
width = 811;
},
{
anchors = (
{
name = bottom;
position = "{350, 0}";
},
{
name = center;
position = "{417, 382}";
},
{
name = ogonek;
position = "{434, 0}";
},
{
name = top;
position = "{484, 763}";
},
{
name = topleft;
position = "{99, 763}";
},
{
name = topright;
position = "{869, 763}";
}
);
layerId = "2F4EEC1B-9E89-4E08-AD53-AB625B6E887D";
paths = (
{
closed = 1;
nodes = (
"772 215 OFFCURVE",
"772 476 CURVE SMOOTH",
"772 642 OFFCURVE",
"684 773 OFFCURVE",
"485 773 CURVE SMOOTH",
"234 773 OFFCURVE",
"60 549 OFFCURVE",
"60 288 CURVE SMOOTH",
"60 122 OFFCURVE",
"148 -10 OFFCURVE",
"347 -10 CURVE SMOOTH",
"598 -10 OFFCURVE"
);
},
{
closed = 1;
nodes = (
"130 153 OFFCURVE",
"130 297 CURVE SMOOTH",
"130 513 OFFCURVE",
"263 711 OFFCURVE",
"474 711 CURVE SMOOTH",
"628 711 OFFCURVE",
"702 610 OFFCURVE",
"702 467 CURVE SMOOTH",
"702 250 OFFCURVE",
"569 52 OFFCURVE",
"358 52 CURVE SMOOTH",
"204 52 OFFCURVE"
);
}
);
width = 794;
}
);
leftKerningGroup = C;
note = O;
rightKerningGroup = D;
unicode = 004F;
},
{
glyphname = OE;
lastChange = "2020-04-15 13:24:32 +0000";
layers = (
{
anchors = (
{
name = bottom;
position = "{555, 0}";
},
{
name = top;
position = "{689, 763}";
}
);
layerId = "2F4EEC1B-9E89-4E08-AD53-AB625B6E887D";
paths = (
{
closed = 1;
nodes = (
"566 39 OFFCURVE",
"639 124 CURVE SMOOTH",
"645 132 OFFCURVE",
"651 127 OFFCURVE",
"649 118 CURVE SMOOTH",
"630 11 LINE SMOOTH",
"629 5 OFFCURVE",
"632 0 OFFCURVE",
"639 0 CURVE SMOOTH",
"1105 0 LINE SMOOTH",
"1111 0 OFFCURVE",
"1115 3 OFFCURVE",
"1116 9 CURVE SMOOTH",
"1123 51 LINE SMOOTH",
"1124 57 OFFCURVE",
"1121 62 OFFCURVE",
"1114 62 CURVE SMOOTH",
"719 62 LINE SMOOTH",
"712 62 OFFCURVE",
"709 67 OFFCURVE",
"710 73 CURVE SMOOTH",
"757 344 LINE SMOOTH",
"758 350 OFFCURVE",
"762 353 OFFCURVE",
"768 353 CURVE SMOOTH",
"1116 353 LINE SMOOTH",
"1122 353 OFFCURVE",
"1126 356 OFFCURVE",
"1127 362 CURVE SMOOTH",
"1134 403 LINE SMOOTH",
"1135 409 OFFCURVE",
"1132 414 OFFCURVE",
"1125 414 CURVE SMOOTH",
"781 414 LINE SMOOTH",
"774 414 OFFCURVE",
"771 419 OFFCURVE",
"772 425 CURVE SMOOTH",
"818 692 LINE SMOOTH",
"819 698 OFFCURVE",
"823 701 OFFCURVE",
"829 701 CURVE SMOOTH",
"1228 701 LINE SMOOTH",
"1234 701 OFFCURVE",
"1238 704 OFFCURVE",
"1239 710 CURVE SMOOTH",
"1246 752 LINE SMOOTH",
"1247 758 OFFCURVE",
"1244 763 OFFCURVE",
"1237 763 CURVE SMOOTH",
"771 763 LINE SMOOTH",
"765 763 OFFCURVE",
"761 760 OFFCURVE",
"760 754 CURVE SMOOTH",
"741 642 LINE SMOOTH",
"739 632 OFFCURVE",
"733 632 OFFCURVE",
"728 641 CURVE SMOOTH",
"686 724 OFFCURVE",
"606 773 OFFCURVE",
"485 773 CURVE SMOOTH",
"234 773 OFFCURVE",
"60 549 OFFCURVE",
"60 288 CURVE SMOOTH",
"60 122 OFFCURVE",
"148 -10 OFFCURVE",
"347 -10 CURVE SMOOTH",
"469 -10 OFFCURVE"
);
},
{
closed = 1;
nodes = (
"130 153 OFFCURVE",
"130 297 CURVE SMOOTH",
"130 513 OFFCURVE",
"263 711 OFFCURVE",
"474 711 CURVE SMOOTH",
"628 711 OFFCURVE",
"702 610 OFFCURVE",
"702 467 CURVE SMOOTH",
"702 250 OFFCURVE",
"569 52 OFFCURVE",
"358 52 CURVE SMOOTH",
"204 52 OFFCURVE"
);
}
);
width = 1206;
},
{
anchors = (
{
name = bottom;
position = "{553, 0}";
},
{
name = top;
position = "{688, 763}";
}
);
layerId = "11907447-A26F-432E-A335-7727E0303767";
paths = (
{
closed = 1;
nodes = (
"536 24 OFFCURVE",
"621 100 CURVE SMOOTH",
"630 108 OFFCURVE",
"637 107 OFFCURVE",
"635 97 CURVE SMOOTH",
"620 11 LINE SMOOTH",
"619 5 OFFCURVE",
"622 0 OFFCURVE",
"629 0 CURVE SMOOTH",
"1102 0 LINE SMOOTH",
"1108 0 OFFCURVE",
"1112 3 OFFCURVE",
"1113 9 CURVE SMOOTH",
"1124 72 LINE SMOOTH",
"1125 78 OFFCURVE",
"1122 83 OFFCURVE",
"1115 83 CURVE SMOOTH",
"736 83 LINE SMOOTH",
"729 83 OFFCURVE",
"726 88 OFFCURVE",
"727 94 CURVE SMOOTH",
"769 333 LINE SMOOTH",
"770 339 OFFCURVE",
"774 342 OFFCURVE",
"780 342 CURVE SMOOTH",
"1116 342 LINE SMOOTH",
"1122 342 OFFCURVE",
"1126 345 OFFCURVE",
"1127 351 CURVE SMOOTH",
"1137 413 LINE SMOOTH",
"1138 419 OFFCURVE",
"1135 424 OFFCURVE",
"1128 424 CURVE SMOOTH",
"796 424 LINE SMOOTH",
"789 424 OFFCURVE",
"786 429 OFFCURVE",
"787 435 CURVE SMOOTH",
"828 671 LINE SMOOTH",
"829 677 OFFCURVE",
"833 680 OFFCURVE",
"839 680 CURVE SMOOTH",
"1222 680 LINE SMOOTH",
"1228 680 OFFCURVE",
"1232 683 OFFCURVE",
"1233 689 CURVE SMOOTH",
"1244 752 LINE SMOOTH",
"1245 758 OFFCURVE",
"1242 763 OFFCURVE",
"1235 763 CURVE SMOOTH",
"762 763 LINE SMOOTH",
"756 763 OFFCURVE",
"752 760 OFFCURVE",
"751 754 CURVE SMOOTH",
"735 663 LINE SMOOTH",
"733 655 OFFCURVE",
"727 653 OFFCURVE",
"722 661 CURVE SMOOTH",
"668 738 OFFCURVE",
"595 773 OFFCURVE",
"492 773 CURVE SMOOTH",
"237 773 OFFCURVE",
"60 552 OFFCURVE",
"60 289 CURVE SMOOTH",
"60 122 OFFCURVE",
"150 -10 OFFCURVE",
"353 -10 CURVE SMOOTH",
"450 -10 OFFCURVE"
);
},
{
closed = 1;
nodes = (
"153 165 OFFCURVE",
"153 302 CURVE SMOOTH",
"153 505 OFFCURVE",
"278 690 OFFCURVE",
"477 690 CURVE SMOOTH",
"622 690 OFFCURVE",
"694 597 OFFCURVE",
"694 461 CURVE SMOOTH",
"694 257 OFFCURVE",
"568 73 OFFCURVE",
"368 73 CURVE SMOOTH",
"226 73 OFFCURVE"
);
}
);
width = 1204;
},
{
anchors = (
{
name = bottom;
position = "{536, 0}";
},
{
name = top;
position = "{671, 763}";
}
);
layerId = "FD6EB2BB-8839-4CDB-86BF-4EEAE3F02079";
paths = (
{
closed = 1;
nodes = (
"493 5 OFFCURVE",
"546 46 CURVE SMOOTH",
"559 55 OFFCURVE",
"566 48 OFFCURVE",
"563 30 CURVE SMOOTH",
"562 22 LINE SMOOTH",
"560 8 OFFCURVE",
"567 0 OFFCURVE",
"580 0 CURVE SMOOTH",
"1061 0 LINE SMOOTH",
"1073 0 OFFCURVE",
"1080 6 OFFCURVE",
"1082 18 CURVE SMOOTH",
"1103 138 LINE SMOOTH",
"1105 151 OFFCURVE",
"1098 160 OFFCURVE",
"1085 160 CURVE SMOOTH",
"787 160 LINE SMOOTH",
"774 160 OFFCURVE",
"767 169 OFFCURVE",
"769 182 CURVE SMOOTH",
"787 284 LINE SMOOTH",
"789 296 OFFCURVE",
"796 302 OFFCURVE",
"808 302 CURVE SMOOTH",
"1081 302 LINE SMOOTH",
"1093 302 OFFCURVE",
"1100 308 OFFCURVE",
"1102 320 CURVE SMOOTH",
"1123 439 LINE SMOOTH",
"1125 452 OFFCURVE",
"1118 461 OFFCURVE",
"1105 461 CURVE SMOOTH",
"840 461 LINE SMOOTH",
"827 461 OFFCURVE",
"820 470 OFFCURVE",
"822 483 CURVE SMOOTH",
"840 585 LINE SMOOTH",
"842 597 OFFCURVE",
"849 603 OFFCURVE",
"861 603 CURVE SMOOTH",
"1167 603 LINE SMOOTH",
"1179 603 OFFCURVE",
"1186 609 OFFCURVE",
"1188 621 CURVE SMOOTH",
"1210 741 LINE SMOOTH",
"1212 755 OFFCURVE",
"1205 763 OFFCURVE",
"1192 763 CURVE SMOOTH",
"711 763 LINE SMOOTH",
"699 763 OFFCURVE",
"692 757 OFFCURVE",
"690 745 CURVE SMOOTH",
"686 724 LINE SMOOTH",
"683 707 OFFCURVE",
"673 706 OFFCURVE",
"661 717 CURVE SMOOTH",
"623 753 OFFCURVE",
"560 779 OFFCURVE",
"483 779 CURVE SMOOTH",
"224 779 OFFCURVE",
"41 556 OFFCURVE",
"41 291 CURVE SMOOTH",
"41 119 OFFCURVE",
"135 -17 OFFCURVE",
"343 -17 CURVE SMOOTH",
"422 -17 OFFCURVE"
);
},
{
closed = 1;
nodes = (
"232 210 OFFCURVE",
"232 317 CURVE SMOOTH",
"232 470 OFFCURVE",
"321 619 OFFCURVE",
"472 619 CURVE SMOOTH",
"572 619 OFFCURVE",
"627 554 OFFCURVE",
"627 448 CURVE SMOOTH",
"627 294 OFFCURVE",
"539 143 OFFCURVE",
"388 143 CURVE SMOOTH",
"287 143 OFFCURVE"
);
}
);
width = 1172;
}
);
leftKerningGroup = C;
leftMetricsKey = O;
rightKerningGroup = E;
rightMetricsKey = E;
unicode = 0152;
},
{
color = 1;
glyphname = P;
lastChange = "2020-04-15 13:18:14 +0000";
layers = (
{
anchors = (
{
name = bottom;
position = "{274, 0}";
},
{
name = top;
position = "{409, 763}";
}
);
layerId = "FD6EB2BB-8839-4CDB-86BF-4EEAE3F02079";
paths = (
{
closed = 1;
nodes = (
"238 276 LINE SMOOTH",
"240 288 OFFCURVE",
"247 294 OFFCURVE",
"259 294 CURVE SMOOTH",
"422 294 LINE SMOOTH",
"593 294 OFFCURVE",
"710 423 OFFCURVE",
"710 592 CURVE SMOOTH",
"710 714 OFFCURVE",
"627 763 OFFCURVE",
"505 763 CURVE SMOOTH",
"163 763 LINE SMOOTH",
"151 763 OFFCURVE",
"144 757 OFFCURVE",
"142 745 CURVE SMOOTH",
"14 22 LINE SMOOTH",
"12 9 OFFCURVE",
"19 0 OFFCURVE",
"32 0 CURVE SMOOTH",
"171 0 LINE SMOOTH",
"183 0 OFFCURVE",
"190 6 OFFCURVE",
"192 18 CURVE SMOOTH"
);
},
{
closed = 1;
nodes = (
"451 603 LINE SMOOTH",
"502 603 OFFCURVE",
"529 583 OFFCURVE",
"529 545 CURVE SMOOTH",
"529 487 OFFCURVE",
"481 449 OFFCURVE",
"414 449 CURVE SMOOTH",
"290 449 LINE SMOOTH",
"277 449 OFFCURVE",
"270 458 OFFCURVE",
"272 471 CURVE SMOOTH",
"292 585 LINE SMOOTH",
"294 597 OFFCURVE",
"301 603 OFFCURVE",
"313 603 CURVE SMOOTH"
);
}
);
width = 683;
},
{
anchors = (
{
name = bottom;
position = "{261, 0}";
},
{
name = top;
position = "{396, 763}";
}
);
layerId = "11907447-A26F-432E-A335-7727E0303767";
paths = (
{
closed = 1;
nodes = (
"177 313 LINE SMOOTH",
"178 319 OFFCURVE",
"182 322 OFFCURVE",
"188 322 CURVE SMOOTH",
"371 322 LINE SMOOTH",
"539 322 OFFCURVE",
"657 434 OFFCURVE",
"657 596 CURVE SMOOTH",
"657 708 OFFCURVE",
"577 763 OFFCURVE",
"449 763 CURVE SMOOTH",
"174 763 LINE SMOOTH",
"168 763 OFFCURVE",
"164 760 OFFCURVE",
"163 754 CURVE SMOOTH",
"32 11 LINE SMOOTH",
"31 5 OFFCURVE",
"34 0 OFFCURVE",
"41 0 CURVE SMOOTH",
"113 0 LINE SMOOTH",
"119 0 OFFCURVE",
"123 3 OFFCURVE",
"124 9 CURVE SMOOTH"
);
},
{
closed = 1;
nodes = (
"422 680 LINE SMOOTH",
"513 680 OFFCURVE",
"564 641 OFFCURVE",
"564 571 CURVE SMOOTH",
"564 468 OFFCURVE",
"478 404 OFFCURVE",
"363 404 CURVE SMOOTH",
"204 404 LINE SMOOTH",
"197 404 OFFCURVE",
"194 409 OFFCURVE",
"195 415 CURVE SMOOTH",
"240 671 LINE SMOOTH",
"241 677 OFFCURVE",
"245 680 OFFCURVE",
"251 680 CURVE SMOOTH"
);
}
);
width = 640;
},
{
anchors = (
{
name = bottom;
position = "{252, 0}";
},
{
name = top;
position = "{386, 763}";
}
);
layerId = "2F4EEC1B-9E89-4E08-AD53-AB625B6E887D";
paths = (
{
closed = 1;
nodes = (
"156 323 LINE SMOOTH",
"157 329 OFFCURVE",
"161 332 OFFCURVE",
"167 332 CURVE SMOOTH",
"353 332 LINE SMOOTH",
"520 332 OFFCURVE",
"637 436 OFFCURVE",
"637 596 CURVE SMOOTH",
"637 706 OFFCURVE",
"558 763 OFFCURVE",
"429 763 CURVE SMOOTH",
"174 763 LINE SMOOTH",
"168 763 OFFCURVE",
"164 760 OFFCURVE",
"163 754 CURVE SMOOTH",
"33 11 LINE SMOOTH",
"32 5 OFFCURVE",
"35 0 OFFCURVE",
"42 0 CURVE SMOOTH",
"91 0 LINE SMOOTH",
"97 0 OFFCURVE",
"101 3 OFFCURVE",
"102 9 CURVE SMOOTH"
);
},
{
closed = 1;
nodes = (
"409 701 LINE SMOOTH",
"512 701 OFFCURVE",
"568 656 OFFCURVE",
"568 578 CURVE SMOOTH",
"568 463 OFFCURVE",
"474 392 OFFCURVE",
"345 392 CURVE SMOOTH",
"180 392 LINE SMOOTH",
"173 392 OFFCURVE",
"170 397 OFFCURVE",
"171 403 CURVE SMOOTH",
"221 692 LINE SMOOTH",
"222 698 OFFCURVE",
"226 701 OFFCURVE",
"232 701 CURVE SMOOTH"
);
}
);
width = 620;
}
);
leftKerningGroup = B;
note = P;
rightKerningGroup = P;
unicode = 0050;
},
{
color = 1;
glyphname = Thorn;
lastChange = "2020-04-15 13:18:59 +0000";
layers = (
{
layerId = "FD6EB2BB-8839-4CDB-86BF-4EEAE3F02079";
paths = (
{
closed = 1;
nodes = (
"221 186 LINE SMOOTH",
"223 198 OFFCURVE",
"230 204 OFFCURVE",
"242 204 CURVE SMOOTH",
"405 204 LINE SMOOTH",
"572 204 OFFCURVE",
"692 328 OFFCURVE",
"692 493 CURVE SMOOTH",
"692 613 OFFCURVE",
"609 663 OFFCURVE",
"486 663 CURVE SMOOTH",
"327 663 LINE SMOOTH",
"314 663 OFFCURVE",
"307 671 OFFCURVE",
"309 685 CURVE SMOOTH",
"319 741 LINE SMOOTH",
"321 755 OFFCURVE",
"314 763 OFFCURVE",
"301 763 CURVE SMOOTH",
"163 763 LINE SMOOTH",
"151 763 OFFCURVE",
"144 757 OFFCURVE",
"142 745 CURVE SMOOTH",
"14 22 LINE SMOOTH",
"12 9 OFFCURVE",
"19 0 OFFCURVE",
"32 0 CURVE SMOOTH",
"170 0 LINE SMOOTH",
"182 0 OFFCURVE",
"189 6 OFFCURVE",
"191 18 CURVE SMOOTH"
);
},
{
closed = 1;
nodes = (
"438 502 LINE SMOOTH",
"484 502 OFFCURVE",
"510 484 OFFCURVE",
"510 448 CURVE SMOOTH",
"510 395 OFFCURVE",
"474 360 OFFCURVE",
"412 360 CURVE SMOOTH",
"273 360 LINE SMOOTH",
"260 360 OFFCURVE",
"253 369 OFFCURVE",
"255 382 CURVE SMOOTH",
"274 484 LINE SMOOTH",
"276 496 OFFCURVE",
"283 502 OFFCURVE",
"295 502 CURVE SMOOTH"
);
}
);
width = 672;
},
{
layerId = "11907447-A26F-432E-A335-7727E0303767";
paths = (
{
closed = 1;
nodes = (
"158 212 LINE SMOOTH",
"159 218 OFFCURVE",
"163 221 OFFCURVE",
"169 221 CURVE SMOOTH",
"352 221 LINE SMOOTH",
"519 221 OFFCURVE",
"638 328 OFFCURVE",
"638 488 CURVE SMOOTH",
"638 600 OFFCURVE",
"558 655 OFFCURVE",
"429 655 CURVE SMOOTH",
"248 655 LINE SMOOTH",
"241 655 OFFCURVE",
"238 660 OFFCURVE",
"239 666 CURVE SMOOTH",
"254 752 LINE SMOOTH",
"255 758 OFFCURVE",
"252 763 OFFCURVE",
"245 763 CURVE SMOOTH",
"174 763 LINE SMOOTH",
"168 763 OFFCURVE",
"164 760 OFFCURVE",
"163 754 CURVE SMOOTH",
"32 11 LINE SMOOTH",
"31 5 OFFCURVE",
"34 0 OFFCURVE",
"41 0 CURVE SMOOTH",
"112 0 LINE SMOOTH",
"118 0 OFFCURVE",
"122 3 OFFCURVE",
"123 9 CURVE SMOOTH"
);
},
{
closed = 1;
nodes = (
"404 572 LINE SMOOTH",
"494 572 OFFCURVE",
"545 534 OFFCURVE",
"545 465 CURVE SMOOTH",
"545 364 OFFCURVE",
"470 302 OFFCURVE",
"356 302 CURVE SMOOTH",
"185 302 LINE SMOOTH",
"178 302 OFFCURVE",
"175 307 OFFCURVE",
"176 313 CURVE SMOOTH",
"220 563 LINE SMOOTH",
"221 569 OFFCURVE",
"225 572 OFFCURVE",
"231 572 CURVE SMOOTH"
);
}
);
width = 641;
},
{
anchors = (
{
name = bottom;
position = "{252, 0}";
},
{
name = top;
position = "{386, 763}";
}
);
layerId = "2F4EEC1B-9E89-4E08-AD53-AB625B6E887D";
paths = (
{
closed = 1;
nodes = (
"136 217 LINE SMOOTH",
"137 223 OFFCURVE",
"141 226 OFFCURVE",
"147 226 CURVE SMOOTH",
"333 226 LINE SMOOTH",
"500 226 OFFCURVE",
"618 329 OFFCURVE",
"618 487 CURVE SMOOTH",
"618 596 OFFCURVE",
"539 653 OFFCURVE",
"409 653 CURVE SMOOTH",
"225 653 LINE SMOOTH",
"218 653 OFFCURVE",
"215 658 OFFCURVE",
"216 664 CURVE SMOOTH",
"231 752 LINE SMOOTH",
"232 758 OFFCURVE",
"229 763 OFFCURVE",
"222 763 CURVE SMOOTH",
"174 763 LINE SMOOTH",
"168 763 OFFCURVE",
"164 760 OFFCURVE",
"163 754 CURVE SMOOTH",
"33 11 LINE SMOOTH",
"32 5 OFFCURVE",
"35 0 OFFCURVE",
"42 0 CURVE SMOOTH",
"90 0 LINE SMOOTH",
"96 0 OFFCURVE",
"100 3 OFFCURVE",
"101 9 CURVE SMOOTH"
);
},
{
closed = 1;
nodes = (
"391 591 LINE SMOOTH",
"493 591 OFFCURVE",
"549 547 OFFCURVE",
"549 470 CURVE SMOOTH",
"549 356 OFFCURVE",
"465 287 OFFCURVE",
"337 287 CURVE SMOOTH",
"160 287 LINE SMOOTH",
"153 287 OFFCURVE",
"150 292 OFFCURVE",
"151 298 CURVE SMOOTH",
"201 582 LINE SMOOTH",
"202 588 OFFCURVE",
"206 591 OFFCURVE",
"212 591 CURVE SMOOTH"
);
}
);
width = 628;
}
);
leftKerningGroup = B;
leftMetricsKey = P;
note = Thorn;
rightKerningGroup = Thorn;
unicode = 00DE;
},
{
color = 1;
glyphname = Q;
lastChange = "2020-04-15 13:19:07 +0000";
layers = (
{
anchors = (
{
name = bottom;
position = "{364, 0}";
},
{
name = top;
position = "{499, 763}";
}
);
layerId = "FD6EB2BB-8839-4CDB-86BF-4EEAE3F02079";
paths = (
{
closed = 1;
nodes = (
"721 779 OFFCURVE",
"500 779 CURVE SMOOTH",
"230 779 OFFCURVE",
"41 564 OFFCURVE",
"41 292 CURVE SMOOTH",
"41 119 OFFCURVE",
"137 -17 OFFCURVE",
"360 -17 CURVE SMOOTH",
"397 -17 OFFCURVE",
"433 -13 OFFCURVE",
"467 -5 CURVE SMOOTH",
"479 -2 OFFCURVE",
"487 -5 OFFCURVE",
"492 -17 CURVE SMOOTH",
"516 -72 LINE SMOOTH",
"520 -82 OFFCURVE",
"529 -87 OFFCURVE",
"540 -87 CURVE SMOOTH",
"699 -87 LINE SMOOTH",
"714 -87 OFFCURVE",
"720 -77 OFFCURVE",
"714 -63 CURVE SMOOTH",
"653 68 LINE SMOOTH",
"648 78 OFFCURVE",
"650 87 OFFCURVE",
"659 95 CURVE SMOOTH",
"758 185 OFFCURVE",
"818 320 OFFCURVE",
"818 473 CURVE SMOOTH",
"818 645 OFFCURVE"
);
},
{
closed = 1;
nodes = (
"321 619 OFFCURVE",
"472 619 CURVE SMOOTH",
"572 619 OFFCURVE",
"627 554 OFFCURVE",
"627 448 CURVE SMOOTH",
"627 294 OFFCURVE",
"539 143 OFFCURVE",
"388 143 CURVE SMOOTH",
"287 143 OFFCURVE",
"232 210 OFFCURVE",
"232 317 CURVE SMOOTH",
"232 470 OFFCURVE"
);
}
);
width = 828;
},
{
anchors = (
{
name = bottom;
position = "{357, 0}";
},
{
name = top;
position = "{492, 763}";
}
);
layerId = "11907447-A26F-432E-A335-7727E0303767";
paths = (
{
closed = 1;
nodes = (
"698 773 OFFCURVE",
"492 773 CURVE SMOOTH",
"237 773 OFFCURVE",
"60 552 OFFCURVE",
"60 289 CURVE SMOOTH",
"60 122 OFFCURVE",
"150 -10 OFFCURVE",
"353 -10 CURVE SMOOTH",
"408 -10 OFFCURVE",
"460 1 OFFCURVE",
"507 19 CURVE SMOOTH",
"513 22 OFFCURVE",
"517 19 OFFCURVE",
"520 14 CURVE SMOOTH",
"567 -80 LINE SMOOTH",
"569 -85 OFFCURVE",
"574 -87 OFFCURVE",
"579 -87 CURVE SMOOTH",
"659 -87 LINE SMOOTH",
"666 -87 OFFCURVE",
"670 -82 OFFCURVE",
"667 -75 CURVE SMOOTH",
"603 63 LINE SMOOTH",
"601 68 OFFCURVE",
"601 73 OFFCURVE",
"606 76 CURVE SMOOTH",
"719 164 OFFCURVE",
"787 310 OFFCURVE",
"787 473 CURVE SMOOTH",
"787 641 OFFCURVE"
);
},
{
closed = 1;
nodes = (
"278 690 OFFCURVE",
"477 690 CURVE SMOOTH",
"622 690 OFFCURVE",
"694 597 OFFCURVE",
"694 461 CURVE SMOOTH",
"694 257 OFFCURVE",
"568 73 OFFCURVE",
"368 73 CURVE SMOOTH",
"226 73 OFFCURVE",
"153 165 OFFCURVE",
"153 302 CURVE SMOOTH",
"153 505 OFFCURVE"
);
}
);
width = 812;
},
{
anchors = (
{
name = bottom;
position = "{349, 0}";
},
{
name = top;
position = "{483, 763}";
}
);
layerId = "2F4EEC1B-9E89-4E08-AD53-AB625B6E887D";
paths = (
{
closed = 1;
nodes = (
"684 773 OFFCURVE",
"485 773 CURVE SMOOTH",
"234 773 OFFCURVE",
"60 549 OFFCURVE",
"60 288 CURVE SMOOTH",
"60 122 OFFCURVE",
"148 -10 OFFCURVE",
"347 -10 CURVE SMOOTH",
"406 -10 OFFCURVE",
"461 2 OFFCURVE",
"510 25 CURVE SMOOTH",
"516 27 OFFCURVE",
"520 26 OFFCURVE",
"523 20 CURVE SMOOTH",
"570 -80 LINE SMOOTH",
"572 -85 OFFCURVE",
"576 -87 OFFCURVE",
"581 -87 CURVE SMOOTH",
"639 -87 LINE SMOOTH",
"646 -87 OFFCURVE",
"650 -82 OFFCURVE",
"647 -75 CURVE SMOOTH",
"586 59 LINE SMOOTH",
"584 64 OFFCURVE",
"584 69 OFFCURVE",
"589 72 CURVE SMOOTH",
"703 161 OFFCURVE",
"772 311 OFFCURVE",
"772 476 CURVE SMOOTH",
"772 642 OFFCURVE"
);
},
{
closed = 1;
nodes = (
"263 711 OFFCURVE",
"474 711 CURVE SMOOTH",
"628 711 OFFCURVE",
"702 610 OFFCURVE",
"702 467 CURVE SMOOTH",
"702 250 OFFCURVE",
"569 52 OFFCURVE",
"358 52 CURVE SMOOTH",
"204 52 OFFCURVE",
"130 153 OFFCURVE",
"130 297 CURVE SMOOTH",
"130 513 OFFCURVE"
);
}
);
width = 794;
}
);
leftKerningGroup = C;
note = Q;
rightKerningGroup = Q;
unicode = 0051;
},
{
color = 1;
glyphname = R;
lastChange = "2020-04-15 13:19:11 +0000";
layers = (
{
anchors = (
{
name = bottom;
position = "{317, 0}";
},
{
name = top;
position = "{427, 763}";
}
);
layerId = "FD6EB2BB-8839-4CDB-86BF-4EEAE3F02079";
paths = (
{
closed = 1;
nodes = (
"171 0 LINE SMOOTH",
"183 0 OFFCURVE",
"190 6 OFFCURVE",
"192 18 CURVE SMOOTH",
"238 276 LINE SMOOTH",
"240 288 OFFCURVE",
"247 294 OFFCURVE",
"259 294 CURVE SMOOTH",
"369 294 LINE SMOOTH",
"381 294 OFFCURVE",
"388 287 OFFCURVE",
"391 276 CURVE SMOOTH",
"450 18 LINE SMOOTH",
"453 7 OFFCURVE",
"460 0 OFFCURVE",
"472 0 CURVE SMOOTH",
"611 0 LINE SMOOTH",
"625 0 OFFCURVE",
"632 9 OFFCURVE",
"629 22 CURVE SMOOTH",
"564 310 LINE SMOOTH",
"561 321 OFFCURVE",
"565 329 OFFCURVE",
"575 336 CURVE SMOOTH",
"659 386 OFFCURVE",
"710 481 OFFCURVE",
"710 592 CURVE SMOOTH",
"710 714 OFFCURVE",
"627 763 OFFCURVE",
"505 763 CURVE SMOOTH",
"163 763 LINE SMOOTH",
"151 763 OFFCURVE",
"144 757 OFFCURVE",
"142 745 CURVE SMOOTH",
"14 22 LINE SMOOTH",
"12 9 OFFCURVE",
"19 0 OFFCURVE",
"32 0 CURVE SMOOTH"
);
},
{
closed = 1;
nodes = (
"292 585 LINE SMOOTH",
"294 597 OFFCURVE",
"301 603 OFFCURVE",
"313 603 CURVE SMOOTH",
"451 603 LINE SMOOTH",
"502 603 OFFCURVE",
"529 583 OFFCURVE",
"529 545 CURVE SMOOTH",
"529 487 OFFCURVE",
"481 449 OFFCURVE",
"414 449 CURVE SMOOTH",
"290 449 LINE SMOOTH",
"277 449 OFFCURVE",
"270 458 OFFCURVE",
"272 471 CURVE SMOOTH"
);
}
);
width = 708;
},
{
anchors = (
{
name = bottom;
position = "{295, 0}";
},
{
name = top;
position = "{407, 763}";
}
);
layerId = "11907447-A26F-432E-A335-7727E0303767";
paths = (
{
closed = 1;
nodes = (
"113 0 LINE SMOOTH",
"119 0 OFFCURVE",
"123 3 OFFCURVE",
"124 9 CURVE SMOOTH",
"177 313 LINE SMOOTH",
"178 319 OFFCURVE",
"182 322 OFFCURVE",
"188 322 CURVE SMOOTH",
"384 322 LINE SMOOTH",
"390 322 OFFCURVE",
"394 319 OFFCURVE",
"395 313 CURVE SMOOTH",
"471 9 LINE SMOOTH",
"472 3 OFFCURVE",
"476 0 OFFCURVE",
"482 0 CURVE SMOOTH",
"554 0 LINE SMOOTH",
"561 0 OFFCURVE",
"565 4 OFFCURVE",
"563 11 CURVE SMOOTH",
"481 330 LINE SMOOTH",
"480 336 OFFCURVE",
"482 340 OFFCURVE",
"488 342 CURVE SMOOTH",
"591 381 OFFCURVE",
"657 475 OFFCURVE",
"657 596 CURVE SMOOTH",
"657 708 OFFCURVE",
"577 763 OFFCURVE",
"449 763 CURVE SMOOTH",
"174 763 LINE SMOOTH",
"168 763 OFFCURVE",
"164 760 OFFCURVE",
"163 754 CURVE SMOOTH",
"32 11 LINE SMOOTH",
"31 5 OFFCURVE",
"34 0 OFFCURVE",
"41 0 CURVE SMOOTH"
);
},
{
closed = 1;
nodes = (
"240 671 LINE SMOOTH",
"241 677 OFFCURVE",
"245 680 OFFCURVE",
"251 680 CURVE SMOOTH",
"422 680 LINE SMOOTH",
"513 680 OFFCURVE",
"564 641 OFFCURVE",
"564 571 CURVE SMOOTH",
"564 468 OFFCURVE",
"478 404 OFFCURVE",
"363 404 CURVE SMOOTH",
"204 404 LINE SMOOTH",
"197 404 OFFCURVE",
"194 409 OFFCURVE",
"195 415 CURVE SMOOTH"
);
}
);
width = 660;
},
{
anchors = (
{
name = bottom;
position = "{285, 0}";
},
{
name = top;
position = "{396, 763}";
}
);
layerId = "2F4EEC1B-9E89-4E08-AD53-AB625B6E887D";
paths = (
{
closed = 1;
nodes = (
"91 0 LINE SMOOTH",
"97 0 OFFCURVE",
"101 3 OFFCURVE",
"102 9 CURVE SMOOTH",
"156 323 LINE SMOOTH",
"157 329 OFFCURVE",
"161 332 OFFCURVE",
"167 332 CURVE SMOOTH",
"377 332 LINE SMOOTH",
"383 332 OFFCURVE",
"387 328 OFFCURVE",
"388 323 CURVE SMOOTH",
"472 9 LINE SMOOTH",
"473 4 OFFCURVE",
"477 0 OFFCURVE",
"483 0 CURVE SMOOTH",
"532 0 LINE SMOOTH",
"539 0 OFFCURVE",
"543 4 OFFCURVE",
"541 11 CURVE SMOOTH",
"455 337 LINE SMOOTH",
"453 344 OFFCURVE",
"455 347 OFFCURVE",
"461 349 CURVE SMOOTH",
"569 384 OFFCURVE",
"637 474 OFFCURVE",
"637 596 CURVE SMOOTH",
"637 706 OFFCURVE",
"558 763 OFFCURVE",
"429 763 CURVE SMOOTH",
"174 763 LINE SMOOTH",
"168 763 OFFCURVE",
"164 760 OFFCURVE",
"163 754 CURVE SMOOTH",
"33 11 LINE SMOOTH",
"32 5 OFFCURVE",
"35 0 OFFCURVE",
"42 0 CURVE SMOOTH"
);
},
{
closed = 1;
nodes = (
"221 692 LINE SMOOTH",
"222 698 OFFCURVE",
"226 701 OFFCURVE",
"232 701 CURVE SMOOTH",
"409 701 LINE SMOOTH",
"512 701 OFFCURVE",
"568 656 OFFCURVE",
"568 578 CURVE SMOOTH",
"568 463 OFFCURVE",
"474 392 OFFCURVE",
"345 392 CURVE SMOOTH",
"180 392 LINE SMOOTH",
"173 392 OFFCURVE",
"170 397 OFFCURVE",
"171 403 CURVE SMOOTH"
);
}
);
width = 639;
}
);
leftKerningGroup = B;
note = R;
rightKerningGroup = R;
unicode = 0052;
},
{
color = 1;
glyphname = S;
lastChange = "2020-04-15 13:18:51 +0000";
layers = (
{
anchors = (
{
name = bottom;
position = "{306, 0}";
},
{
name = top;
position = "{441, 763}";
}
);
guideLines = (
{
position = "{547, 525}";
},
{
position = "{106, 259}";
}
);
layerId = "FD6EB2BB-8839-4CDB-86BF-4EEAE3F02079";
paths = (
{
closed = 1;
nodes = (
"673 93 OFFCURVE",
"673 271 CURVE SMOOTH",
"673 410 OFFCURVE",
"536 444 OFFCURVE",
"423 469 CURVE SMOOTH",
"344 487 OFFCURVE",
"277 504 OFFCURVE",
"277 551 CURVE SMOOTH",
"277 606 OFFCURVE",
"337 629 OFFCURVE",
"391 629 CURVE SMOOTH",
"459 629 OFFCURVE",
"502 597 OFFCURVE",
"515 543 CURVE SMOOTH",
"518 531 OFFCURVE",
"524 525 OFFCURVE",
"536 525 CURVE SMOOTH",
"683 525 LINE SMOOTH",
"696 525 OFFCURVE",
"703 532 OFFCURVE",
"702 546 CURVE SMOOTH",
"693 702 OFFCURVE",
"574 779 OFFCURVE",
"421 779 CURVE SMOOTH",
"242 779 OFFCURVE",
"93 675 OFFCURVE",
"93 505 CURVE SMOOTH",
"93 372 OFFCURVE",
"226 340 OFFCURVE",
"338 315 CURVE SMOOTH",
"418 297 OFFCURVE",
"488 280 OFFCURVE",
"488 229 CURVE SMOOTH",
"488 169 OFFCURVE",
"425 133 OFFCURVE",
"353 133 CURVE SMOOTH",
"289 133 OFFCURVE",
"229 156 OFFCURVE",
"214 240 CURVE SMOOTH",
"212 252 OFFCURVE",
"205 259 OFFCURVE",
"193 259 CURVE SMOOTH",
"47 259 LINE SMOOTH",
"34 259 OFFCURVE",
"27 252 OFFCURVE",
"27 239 CURVE SMOOTH",
"35 62 OFFCURVE",
"149 -17 OFFCURVE",
"328 -17 CURVE SMOOTH",
"520 -17 OFFCURVE"
);
}
);
width = 712;
},
{
anchors = (
{
name = bottom;
position = "{287, 0}";
},
{
name = top;
position = "{422, 763}";
}
);
guideLines = (
{
angle = 180;
position = "{701, 552}";
},
{
position = "{645, 231}";
}
);
layerId = "11907447-A26F-432E-A335-7727E0303767";
paths = (
{
closed = 1;
nodes = (
"615 91 OFFCURVE",
"615 257 CURVE SMOOTH",
"615 385 OFFCURVE",
"497 412 OFFCURVE",
"388 436 CURVE SMOOTH",
"298 456 OFFCURVE",
"215 475 OFFCURVE",
"215 550 CURVE SMOOTH",
"215 638 OFFCURVE",
"291 691 OFFCURVE",
"395 691 CURVE SMOOTH",
"476 691 OFFCURVE",
"551 659 OFFCURVE",
"559 563 CURVE SMOOTH",
"560 556 OFFCURVE",
"564 553 OFFCURVE",
"570 553 CURVE SMOOTH",
"639 553 LINE SMOOTH",
"645 553 OFFCURVE",
"649 557 OFFCURVE",
"649 563 CURVE SMOOTH",
"644 713 OFFCURVE",
"537 773 OFFCURVE",
"411 773 CURVE SMOOTH",
"249 773 OFFCURVE",
"120 674 OFFCURVE",
"120 523 CURVE SMOOTH",
"120 408 OFFCURVE",
"230 383 OFFCURVE",
"334 361 CURVE SMOOTH",
"429 341 OFFCURVE",
"520 320 OFFCURVE",
"520 233 CURVE SMOOTH",
"520 130 OFFCURVE",
"440 72 OFFCURVE",
"323 72 CURVE SMOOTH",
"231 72 OFFCURVE",
"136 107 OFFCURVE",
"128 221 CURVE SMOOTH",
"127 228 OFFCURVE",
"123 231 OFFCURVE",
"117 231 CURVE SMOOTH",
"44 231 LINE SMOOTH",
"38 231 OFFCURVE",
"34 227 OFFCURVE",
"34 221 CURVE SMOOTH",
"39 57 OFFCURVE",
"156 -10 OFFCURVE",
"304 -10 CURVE SMOOTH",
"483 -10 OFFCURVE"
);
}
);
width = 673;
},
{
anchors = (
{
name = bottom;
position = "{278, 0}";
},
{
name = top;
position = "{412, 763}";
}
);
layerId = "2F4EEC1B-9E89-4E08-AD53-AB625B6E887D";
paths = (
{
closed = 1;
nodes = (
"597 93 OFFCURVE",
"597 256 CURVE SMOOTH",
"597 381 OFFCURVE",
"481 408 OFFCURVE",
"373 432 CURVE SMOOTH",
"280 453 OFFCURVE",
"193 473 OFFCURVE",
"193 555 CURVE SMOOTH",
"193 650 OFFCURVE",
"287 711 OFFCURVE",
"397 711 CURVE SMOOTH",
"492 711 OFFCURVE",
"556 673 OFFCURVE",
"563 572 CURVE SMOOTH",
"564 565 OFFCURVE",
"568 562 OFFCURVE",
"574 562 CURVE SMOOTH",
"620 562 LINE SMOOTH",
"626 562 OFFCURVE",
"630 566 OFFCURVE",
"630 572 CURVE SMOOTH",
"626 714 OFFCURVE",
"539 773 OFFCURVE",
"409 773 CURVE SMOOTH",
"256 773 OFFCURVE",
"122 679 OFFCURVE",
"122 535 CURVE SMOOTH",
"122 420 OFFCURVE",
"230 395 OFFCURVE",
"335 372 CURVE SMOOTH",
"433 351 OFFCURVE",
"527 329 OFFCURVE",
"527 238 CURVE SMOOTH",
"527 125 OFFCURVE",
"432 52 OFFCURVE",
"305 52 CURVE SMOOTH",
"206 52 OFFCURVE",
"108 89 OFFCURVE",
"103 206 CURVE SMOOTH",
"103 213 OFFCURVE",
"99 216 OFFCURVE",
"93 216 CURVE SMOOTH",
"43 216 LINE SMOOTH",
"37 216 OFFCURVE",
"33 212 OFFCURVE",
"33 206 CURVE SMOOTH",
"38 52 OFFCURVE",
"148 -10 OFFCURVE",
"289 -10 CURVE SMOOTH",
"465 -10 OFFCURVE"
);
}
);
width = 653;
}
);
leftKerningGroup = S;
note = S;
rightKerningGroup = S;
unicode = 0053;
},
{
color = 1;
glyphname = Germandbls;
lastChange = "2020-04-15 12:47:16 +0000";
layers = (
{
anchors = (
{
name = bottom;
position = "{279, 0}";
},
{
name = top;
position = "{413, 763}";
}
);
background = {
paths = (
{
closed = 0;
nodes = (
"399 433 LINE SMOOTH"
);
}
);
};
layerId = "2F4EEC1B-9E89-4E08-AD53-AB625B6E887D";
paths = (
{
closed = 1;
nodes = (
"178 452 LINE SMOOTH",
"195 548 OFFCURVE",
"223 615 OFFCURVE",
"259 652 CURVE SMOOTH",
"299 694 OFFCURVE",
"350 711 OFFCURVE",
"410 711 CURVE SMOOTH",
"488 711 OFFCURVE",
"522 694 OFFCURVE",
"562 655 CURVE",
"326 457 LINE",
"311 371 LINE",
"407 371 LINE SMOOTH",
"463 371 OFFCURVE",
"550 356 OFFCURVE",
"550 254 CURVE SMOOTH",
"550 125 OFFCURVE",
"459 62 OFFCURVE",
"326 62 CURVE SMOOTH",
"202 62 LINE",
"191 0 LINE",
"322 0 LINE SMOOTH",
"494 0 OFFCURVE",
"620 98 OFFCURVE",
"620 266 CURVE SMOOTH",
"620 381 OFFCURVE",
"533 433 OFFCURVE",
"427 433 CURVE SMOOTH",
"410 433 OFFCURVE",
"392 432 OFFCURVE",
"374 429 CURVE",
"621 635 LINE",
"630 688 LINE",
"570 751 OFFCURVE",
"507 773 OFFCURVE",
"421 773 CURVE SMOOTH",
"332 773 OFFCURVE",
"264 747 OFFCURVE",
"213 697 CURVE SMOOTH",
"163 646 OFFCURVE",
"130 571 OFFCURVE",
"109 452 CURVE SMOOTH",
"30 0 LINE",
"99 0 LINE"
);
}
);
width = 677;
},
{
anchors = (
{
name = bottom;
position = "{285, 0}";
},
{
name = top;
position = "{420, 763}";
}
);
layerId = "11907447-A26F-432E-A335-7727E0303767";
paths = (
{
closed = 1;
nodes = (
"212 507 LINE SMOOTH",
"226 584 OFFCURVE",
"252 627 OFFCURVE",
"288 654 CURVE SMOOTH",
"322 680 OFFCURVE",
"365 690 OFFCURVE",
"410 690 CURVE SMOOTH",
"472 690 OFFCURVE",
"527 673 OFFCURVE",
"561 636 CURVE",
"376 481 LINE",
"355 360 LINE",
"403 360 LINE SMOOTH",
"441 360 OFFCURVE",
"540 360 OFFCURVE",
"540 257 CURVE SMOOTH",
"540 132 OFFCURVE",
"456 83 OFFCURVE",
"334 83 CURVE SMOOTH",
"237 83 LINE",
"222 0 LINE",
"329 0 LINE SMOOTH",
"505 0 OFFCURVE",
"633 93 OFFCURVE",
"633 268 CURVE SMOOTH",
"633 357 OFFCURVE",
"586 413 OFFCURVE",
"495 430 CURVE SMOOTH",
"478 433 OFFCURVE",
"459 434 OFFCURVE",
"439 434 CURVE",
"635 600 LINE",
"648 675 LINE",
"592 736 OFFCURVE",
"533 773 OFFCURVE",
"425 773 CURVE SMOOTH",
"354 773 OFFCURVE",
"292 756 OFFCURVE",
"243 722 CURVE SMOOTH",
"180 679 OFFCURVE",
"138 611 OFFCURVE",
"120 507 CURVE SMOOTH",
"30 0 LINE",
"122 0 LINE"
);
}
);
width = 691;
},
{
anchors = (
{
name = bottom;
position = "{288, 0}";
},
{
name = top;
position = "{423, 763}";
}
);
layerId = "FD6EB2BB-8839-4CDB-86BF-4EEAE3F02079";
paths = (
{
closed = 1;
nodes = (
"268 450 LINE SMOOTH",
"281 525 OFFCURVE",
"299 560 OFFCURVE",
"322 583 CURVE SMOOTH",
"350 611 OFFCURVE",
"383 619 OFFCURVE",
"418 619 CURVE SMOOTH",
"459 619 OFFCURVE",
"488 602 OFFCURVE",
"509 583 CURVE",
"352 452 LINE",
"328 315 LINE",
"393 315 LINE SMOOTH",
"455 315 OFFCURVE",
"485 296 OFFCURVE",
"485 257 CURVE SMOOTH",
"485 197 OFFCURVE",
"444 160 OFFCURVE",
"372 160 CURVE SMOOTH",
"277 160 LINE",
"249 0 LINE",
"336 0 LINE SMOOTH",
"511 0 OFFCURVE",
"667 93 OFFCURVE",
"667 284 CURVE SMOOTH",
"667 346 OFFCURVE",
"642 389 OFFCURVE",
"594 413 CURVE SMOOTH",
"574 423 OFFCURVE",
"550 431 OFFCURVE",
"522 435 CURVE",
"643 535 LINE",
"670 686 LINE",
"623 738 OFFCURVE",
"548 779 OFFCURVE",
"446 779 CURVE SMOOTH",
"337 779 OFFCURVE",
"260 751 OFFCURVE",
"205 701 CURVE SMOOTH",
"144 646 OFFCURVE",
"110 567 OFFCURVE",
"89 450 CURVE SMOOTH",
"10 0 LINE",
"189 0 LINE"
);
}
);
width = 704;
}
);
leftMetricsKey = I;
rightMetricsKey = B;
unicode = 1E9E;
},
{
color = 1;
glyphname = T;
lastChange = "2020-04-15 13:18:45 +0000";
layers = (
{
anchors = (
{
name = bottom;
position = "{263, 0}";
},
{
name = center;
position = "{330, 382}";
},
{
name = top;
position = "{398, 763}";
}
);
background = {
anchors = (
{
name = bottom;
position = "{313, 0}";
},
{
name = center;
position = "{313, 382}";
},
{
name = top;
position = "{313, 763}";
}
);
paths = (
{
closed = 1;
nodes = (
"386 0 LINE SMOOTH",
"396 0 OFFCURVE",
"402 6 OFFCURVE",
"402 16 CURVE SMOOTH",
"402 587 LINE SMOOTH",
"402 597 OFFCURVE",
"408 603 OFFCURVE",
"418 603 CURVE SMOOTH",
"601 603 LINE SMOOTH",
"611 603 OFFCURVE",
"617 609 OFFCURVE",
"617 619 CURVE SMOOTH",
"617 747 LINE SMOOTH",
"617 757 OFFCURVE",
"611 763 OFFCURVE",
"601 763 CURVE SMOOTH",
"24 763 LINE SMOOTH",
"14 763 OFFCURVE",
"8 757 OFFCURVE",
"8 747 CURVE SMOOTH",
"8 619 LINE SMOOTH",
"8 609 OFFCURVE",
"14 603 OFFCURVE",
"24 603 CURVE SMOOTH",
"207 603 LINE SMOOTH",
"217 603 OFFCURVE",
"223 597 OFFCURVE",
"223 587 CURVE SMOOTH",
"223 16 LINE SMOOTH",
"223 6 OFFCURVE",
"229 0 OFFCURVE",
"239 0 CURVE SMOOTH"
);
}
);
};
layerId = "FD6EB2BB-8839-4CDB-86BF-4EEAE3F02079";
paths = (
{
closed = 1;
nodes = (
"455 585 LINE SMOOTH",
"457 597 OFFCURVE",
"464 603 OFFCURVE",
"476 603 CURVE SMOOTH",
"655 603 LINE SMOOTH",
"667 603 OFFCURVE",
"674 609 OFFCURVE",
"676 621 CURVE SMOOTH",
"698 741 LINE SMOOTH",
"700 755 OFFCURVE",
"693 763 OFFCURVE",
"680 763 CURVE SMOOTH",
"111 763 LINE SMOOTH",
"99 763 OFFCURVE",
"92 757 OFFCURVE",
"90 745 CURVE SMOOTH",
"68 625 LINE SMOOTH",
"66 611 OFFCURVE",
"73 603 OFFCURVE",
"86 603 CURVE SMOOTH",
"257 603 LINE SMOOTH",
"270 603 OFFCURVE",
"277 594 OFFCURVE",
"275 581 CURVE SMOOTH",
"177 22 LINE SMOOTH",
"175 9 OFFCURVE",
"182 0 OFFCURVE",
"195 0 CURVE SMOOTH",
"334 0 LINE SMOOTH",
"346 0 OFFCURVE",
"353 6 OFFCURVE",
"355 18 CURVE SMOOTH"
);
}
);
width = 625;
},
{
anchors = (
{
name = bottom;
position = "{270, 0}";
},
{
name = center;
position = "{338, 382}";
},
{
name = top;
position = "{405, 763}";
}
);
background = {
anchors = (
{
name = bottom;
position = "{319, 0}";
},
{
name = center;
position = "{319, 382}";
},
{
name = top;
position = "{319, 763}";
}
);
paths = (
{
closed = 1;
nodes = (
"348 0 LINE SMOOTH",
"358 0 OFFCURVE",
"364 6 OFFCURVE",
"364 16 CURVE SMOOTH",
"364 664 LINE SMOOTH",
"364 674 OFFCURVE",
"370 680 OFFCURVE",
"380 680 CURVE SMOOTH",
"607 680 LINE SMOOTH",
"617 680 OFFCURVE",
"623 686 OFFCURVE",
"623 696 CURVE SMOOTH",
"623 747 LINE SMOOTH",
"623 757 OFFCURVE",
"617 763 OFFCURVE",
"607 763 CURVE SMOOTH",
"30 763 LINE SMOOTH",
"20 763 OFFCURVE",
"14 757 OFFCURVE",
"14 747 CURVE SMOOTH",
"14 696 LINE SMOOTH",
"14 686 OFFCURVE",
"20 680 OFFCURVE",
"30 680 CURVE SMOOTH",
"256 680 LINE SMOOTH",
"266 680 OFFCURVE",
"272 674 OFFCURVE",
"272 664 CURVE SMOOTH",
"272 16 LINE SMOOTH",
"272 6 OFFCURVE",
"278 0 OFFCURVE",
"288 0 CURVE SMOOTH"
);
}
);
};
layerId = "11907447-A26F-432E-A335-7727E0303767";
paths = (
{
closed = 1;
nodes = (
"433 671 LINE SMOOTH",
"434 677 OFFCURVE",
"438 680 OFFCURVE",
"444 680 CURVE SMOOTH",
"685 680 LINE SMOOTH",
"691 680 OFFCURVE",
"695 683 OFFCURVE",
"696 689 CURVE SMOOTH",
"707 752 LINE SMOOTH",
"708 758 OFFCURVE",
"705 763 OFFCURVE",
"698 763 CURVE SMOOTH",
"109 763 LINE SMOOTH",
"103 763 OFFCURVE",
"99 760 OFFCURVE",
"98 754 CURVE SMOOTH",
"87 691 LINE SMOOTH",
"86 685 OFFCURVE",
"89 680 OFFCURVE",
"96 680 CURVE SMOOTH",
"332 680 LINE SMOOTH",
"339 680 OFFCURVE",
"342 675 OFFCURVE",
"341 669 CURVE SMOOTH",
"225 11 LINE SMOOTH",
"224 5 OFFCURVE",
"227 0 OFFCURVE",
"234 0 CURVE SMOOTH",
"306 0 LINE SMOOTH",
"312 0 OFFCURVE",
"316 3 OFFCURVE",
"317 9 CURVE SMOOTH"
);
}
);
width = 637;
},
{
anchors = (
{
name = bottom;
position = "{269, 0}";
},
{
name = center;
position = "{336, 382}";
},
{
name = top;
position = "{403, 763}";
}
);
background = {
anchors = (
{
name = bottom;
position = "{317, 0}";
},
{
name = center;
position = "{317, 382}";
},
{
name = top;
position = "{317, 763}";
}
);
paths = (
{
closed = 1;
nodes = (
"341 0 LINE SMOOTH",
"347 0 OFFCURVE",
"351 4 OFFCURVE",
"351 10 CURVE SMOOTH",
"351 691 LINE SMOOTH",
"351 697 OFFCURVE",
"355 701 OFFCURVE",
"361 701 CURVE SMOOTH",
"610 701 LINE SMOOTH",
"616 701 OFFCURVE",
"620 705 OFFCURVE",
"620 711 CURVE SMOOTH",
"620 753 LINE SMOOTH",
"620 759 OFFCURVE",
"616 763 OFFCURVE",
"610 763 CURVE SMOOTH",
"24 763 LINE SMOOTH",
"18 763 OFFCURVE",
"14 759 OFFCURVE",
"14 753 CURVE SMOOTH",
"14 711 LINE SMOOTH",
"14 705 OFFCURVE",
"18 701 OFFCURVE",
"24 701 CURVE SMOOTH",
"272 701 LINE SMOOTH",
"278 701 OFFCURVE",
"282 697 OFFCURVE",
"282 691 CURVE SMOOTH",
"282 10 LINE SMOOTH",
"282 4 OFFCURVE",
"286 0 OFFCURVE",
"292 0 CURVE SMOOTH"
);
}
);
};
layerId = "2F4EEC1B-9E89-4E08-AD53-AB625B6E887D";
paths = (
{
closed = 1;
nodes = (
"424 692 LINE SMOOTH",
"425 698 OFFCURVE",
"429 701 OFFCURVE",
"435 701 CURVE SMOOTH",
"686 701 LINE SMOOTH",
"692 701 OFFCURVE",
"696 704 OFFCURVE",
"697 710 CURVE SMOOTH",
"704 752 LINE SMOOTH",
"705 758 OFFCURVE",
"702 763 OFFCURVE",
"695 763 CURVE SMOOTH",
"109 763 LINE SMOOTH",
"103 763 OFFCURVE",
"99 760 OFFCURVE",
"98 754 CURVE SMOOTH",
"91 712 LINE SMOOTH",
"90 706 OFFCURVE",
"93 701 OFFCURVE",
"100 701 CURVE SMOOTH",
"346 701 LINE SMOOTH",
"353 701 OFFCURVE",
"356 696 OFFCURVE",
"355 690 CURVE SMOOTH",
"236 11 LINE SMOOTH",
"235 5 OFFCURVE",
"238 0 OFFCURVE",
"245 0 CURVE SMOOTH",
"294 0 LINE SMOOTH",
"300 0 OFFCURVE",
"304 3 OFFCURVE",
"305 9 CURVE SMOOTH"
);
}
);
width = 634;
}
);
leftKerningGroup = T;
note = T;
rightKerningGroup = T;
unicode = 0054;
},
{
color = 1;
glyphname = U;
lastChange = "2020-04-15 13:18:42 +0000";
layers = (
{
anchors = (
{
name = bottom;
position = "{327, 0}";
},
{
name = ogonek;
position = "{443, 0}";
},
{
name = top;
position = "{462, 763}";
},
{
name = topright;
position = "{836, 763}";
}
);
layerId = "FD6EB2BB-8839-4CDB-86BF-4EEAE3F02079";
paths = (
{
closed = 1;
nodes = (
"670 110 OFFCURVE",
"701 285 CURVE SMOOTH",
"782 741 LINE SMOOTH",
"784 754 OFFCURVE",
"777 763 OFFCURVE",
"764 763 CURVE SMOOTH",
"624 763 LINE SMOOTH",
"612 763 OFFCURVE",
"605 757 OFFCURVE",
"603 745 CURVE SMOOTH",
"521 285 LINE SMOOTH",
"508 207 OFFCURVE",
"468 143 OFFCURVE",
"352 143 CURVE SMOOTH",
"256 143 OFFCURVE",
"228 186 OFFCURVE",
"228 244 CURVE SMOOTH",
"228 257 OFFCURVE",
"230 271 OFFCURVE",
"232 285 CURVE SMOOTH",
"313 741 LINE SMOOTH",
"315 754 OFFCURVE",
"308 763 OFFCURVE",
"295 763 CURVE SMOOTH",
"155 763 LINE SMOOTH",
"143 763 OFFCURVE",
"136 757 OFFCURVE",
"134 745 CURVE SMOOTH",
"52 285 LINE SMOOTH",
"47 259 OFFCURVE",
"45 234 OFFCURVE",
"45 210 CURVE SMOOTH",
"45 75 OFFCURVE",
"123 -17 OFFCURVE",
"324 -17 CURVE SMOOTH",
"559 -17 OFFCURVE"
);
}
);
width = 754;
},
{
anchors = (
{
name = bottom;
position = "{306, 0}";
},
{
name = ogonek;
position = "{389, 0}";
},
{
name = top;
position = "{441, 763}";
},
{
name = topright;
position = "{790, 763}";
}
);
layerId = "11907447-A26F-432E-A335-7727E0303767";
paths = (
{
closed = 1;
nodes = (
"606 95 OFFCURVE",
"636 264 CURVE SMOOTH",
"722 752 LINE SMOOTH",
"723 758 OFFCURVE",
"720 763 OFFCURVE",
"713 763 CURVE SMOOTH",
"641 763 LINE SMOOTH",
"635 763 OFFCURVE",
"631 760 OFFCURVE",
"630 754 CURVE SMOOTH",
"544 264 LINE SMOOTH",
"523 145 OFFCURVE",
"452 72 OFFCURVE",
"319 72 CURVE SMOOTH",
"207 72 OFFCURVE",
"157 124 OFFCURVE",
"157 212 CURVE SMOOTH",
"157 228 OFFCURVE",
"159 246 OFFCURVE",
"162 264 CURVE SMOOTH",
"248 752 LINE SMOOTH",
"249 758 OFFCURVE",
"246 763 OFFCURVE",
"239 763 CURVE SMOOTH",
"167 763 LINE SMOOTH",
"161 763 OFFCURVE",
"157 760 OFFCURVE",
"156 754 CURVE SMOOTH",
"70 264 LINE SMOOTH",
"66 239 OFFCURVE",
"63 216 OFFCURVE",
"63 194 CURVE SMOOTH",
"63 67 OFFCURVE",
"139 -10 OFFCURVE",
"304 -10 CURVE SMOOTH",
"497 -10 OFFCURVE"
);
}
);
width = 711;
},
{
anchors = (
{
name = bottom;
position = "{297, 0}";
},
{
name = ogonek;
position = "{382, 0}";
},
{
name = top;
position = "{431, 763}";
},
{
name = topright;
position = "{773, 763}";
}
);
layerId = "2F4EEC1B-9E89-4E08-AD53-AB625B6E887D";
paths = (
{
closed = 1;
nodes = (
"585 96 OFFCURVE",
"615 270 CURVE SMOOTH",
"700 752 LINE SMOOTH",
"701 758 OFFCURVE",
"698 763 OFFCURVE",
"691 763 CURVE SMOOTH",
"642 763 LINE SMOOTH",
"636 763 OFFCURVE",
"632 760 OFFCURVE",
"631 754 CURVE SMOOTH",
"546 270 LINE SMOOTH",
"522 134 OFFCURVE",
"448 52 OFFCURVE",
"305 52 CURVE SMOOTH",
"186 52 OFFCURVE",
"134 109 OFFCURVE",
"134 207 CURVE SMOOTH",
"134 226 OFFCURVE",
"136 247 OFFCURVE",
"140 270 CURVE SMOOTH",
"225 752 LINE SMOOTH",
"226 758 OFFCURVE",
"223 763 OFFCURVE",
"216 763 CURVE SMOOTH",
"167 763 LINE SMOOTH",
"161 763 OFFCURVE",
"157 760 OFFCURVE",
"156 754 CURVE SMOOTH",
"71 270 LINE SMOOTH",
"66 243 OFFCURVE",
"64 218 OFFCURVE",
"64 195 CURVE SMOOTH",
"64 66 OFFCURVE",
"136 -10 OFFCURVE",
"294 -10 CURVE SMOOTH",
"481 -10 OFFCURVE"
);
}
);
width = 689;
}
);
leftKerningGroup = U;
note = U;
rightKerningGroup = J;
unicode = 0055;
},
{
color = 1;
glyphname = V;
lastChange = "2020-04-15 13:18:38 +0000";
layers = (
{
anchors = (
{
name = bottom;
position = "{304, 0}";
},
{
name = top;
position = "{439, 763}";
}
);
background = {
paths = (
{
closed = 1;
nodes = (
"401 0 LINE",
"797 763 LINE",
"597 763 LINE",
"372 297 LINE SMOOTH",
"346 244 OFFCURVE",
"341 212 OFFCURVE",
"337 183 CURVE",
"318 183 LINE",
"323 216 OFFCURVE",
"323 231 OFFCURVE",
"317 285 CURVE SMOOTH",
"261 763 LINE",
"81 763 LINE",
"207 0 LINE"
);
}
);
};
layerId = "FD6EB2BB-8839-4CDB-86BF-4EEAE3F02079";
paths = (
{
closed = 1;
nodes = (
"785 739 LINE SMOOTH",
"792 753 OFFCURVE",
"785 763 OFFCURVE",
"770 763 CURVE SMOOTH",
"613 763 LINE SMOOTH",
"602 763 OFFCURVE",
"595 759 OFFCURVE",
"590 748 CURVE SMOOTH",
"348 242 LINE SMOOTH",
"340 224 OFFCURVE",
"326 227 OFFCURVE",
"324 246 CURVE SMOOTH",
"263 744 LINE SMOOTH",
"262 756 OFFCURVE",
"254 763 OFFCURVE",
"242 763 CURVE SMOOTH",
"103 763 LINE SMOOTH",
"90 763 OFFCURVE",
"83 754 OFFCURVE",
"85 741 CURVE SMOOTH",
"204 18 LINE SMOOTH",
"206 5 OFFCURVE",
"213 0 OFFCURVE",
"225 0 CURVE SMOOTH",
"385 0 LINE SMOOTH",
"396 0 OFFCURVE",
"403 4 OFFCURVE",
"408 14 CURVE SMOOTH"
);
}
);
width = 708;
},
{
anchors = (
{
name = bottom;
position = "{298, 0}";
},
{
name = top;
position = "{433, 763}";
}
);
background = {
paths = (
{
closed = 1;
nodes = (
"350 0 LINE",
"765 763 LINE",
"667 763 LINE",
"348 171 LINE SMOOTH",
"335 147 OFFCURVE",
"323 122 OFFCURVE",
"318 87 CURVE",
"300 87 LINE",
"304 118 OFFCURVE",
"301 140 OFFCURVE",
"296 165 CURVE SMOOTH",
"187 763 LINE",
"99 763 LINE",
"246 0 LINE"
);
}
);
};
layerId = "11907447-A26F-432E-A335-7727E0303767";
paths = (
{
closed = 1;
nodes = (
"760 751 LINE SMOOTH",
"764 758 OFFCURVE",
"759 763 OFFCURVE",
"752 763 CURVE SMOOTH",
"679 763 LINE SMOOTH",
"674 763 OFFCURVE",
"669 761 OFFCURVE",
"667 756 CURVE SMOOTH",
"322 111 LINE SMOOTH",
"318 103 OFFCURVE",
"311 103 OFFCURVE",
"309 113 CURVE SMOOTH",
"193 754 LINE SMOOTH",
"192 760 OFFCURVE",
"188 763 OFFCURVE",
"182 763 CURVE SMOOTH",
"111 763 LINE SMOOTH",
"104 763 OFFCURVE",
"101 758 OFFCURVE",
"102 752 CURVE SMOOTH",
"244 9 LINE SMOOTH",
"245 3 OFFCURVE",
"249 0 OFFCURVE",
"255 0 CURVE SMOOTH",
"342 0 LINE SMOOTH",
"347 0 OFFCURVE",
"352 2 OFFCURVE",
"354 7 CURVE SMOOTH"
);
}
);
width = 694;
},
{
anchors = (
{
name = bottom;
position = "{296, 0}";
},
{
name = top;
position = "{430, 763}";
}
);
background = {
paths = (
{
closed = 1;
nodes = (
"336 0 LINE",
"759 763 LINE",
"684 763 LINE",
"351 158 LINE SMOOTH",
"329 118 OFFCURVE",
"318 96 OFFCURVE",
"312 63 CURVE",
"295 63 LINE",
"297 96 OFFCURVE",
"295 114 OFFCURVE",
"287 154 CURVE SMOOTH",
"170 763 LINE",
"103 763 LINE",
"256 0 LINE"
);
}
);
};
layerId = "2F4EEC1B-9E89-4E08-AD53-AB625B6E887D";
paths = (
{
closed = 1;
nodes = (
"751 751 LINE SMOOTH",
"755 758 OFFCURVE",
"752 763 OFFCURVE",
"744 763 CURVE SMOOTH",
"693 763 LINE SMOOTH",
"688 763 OFFCURVE",
"683 761 OFFCURVE",
"681 756 CURVE SMOOTH",
"315 86 LINE SMOOTH",
"311 78 OFFCURVE",
"304 78 OFFCURVE",
"302 88 CURVE SMOOTH",
"173 754 LINE SMOOTH",
"172 760 OFFCURVE",
"168 763 OFFCURVE",
"162 763 CURVE SMOOTH",
"113 763 LINE SMOOTH",
"106 763 OFFCURVE",
"103 758 OFFCURVE",
"104 752 CURVE SMOOTH",
"254 9 LINE SMOOTH",
"255 3 OFFCURVE",
"259 0 OFFCURVE",
"265 0 CURVE SMOOTH",
"328 0 LINE SMOOTH",
"333 0 OFFCURVE",
"338 2 OFFCURVE",
"340 7 CURVE SMOOTH"
);
}
);
width = 688;
}
);
leftKerningGroup = V;
note = V;
rightKerningGroup = V;
unicode = 0056;
},
{
color = 1;
glyphname = W;
lastChange = "2020-04-15 13:18:32 +0000";
layers = (
{
anchors = (
{
name = bottom;
position = "{519, 0}";
},
{
name = top;
position = "{654, 763}";
}
);
layerId = "FD6EB2BB-8839-4CDB-86BF-4EEAE3F02079";
paths = (
{
closed = 1;
nodes = (
"605 550 LINE SMOOTH",
"611 567 OFFCURVE",
"628 565 OFFCURVE",
"628 546 CURVE SMOOTH",
"625 20 LINE SMOOTH",
"625 7 OFFCURVE",
"632 0 OFFCURVE",
"645 0 CURVE SMOOTH",
"878 0 LINE SMOOTH",
"889 0 OFFCURVE",
"897 4 OFFCURVE",
"901 15 CURVE SMOOTH",
"1202 740 LINE SMOOTH",
"1208 754 OFFCURVE",
"1202 763 OFFCURVE",
"1187 763 CURVE SMOOTH",
"1036 763 LINE SMOOTH",
"1025 763 OFFCURVE",
"1017 757 OFFCURVE",
"1013 747 CURVE SMOOTH",
"793 186 LINE SMOOTH",
"786 167 OFFCURVE",
"770 172 OFFCURVE",
"770 191 CURVE SMOOTH",
"772 743 LINE SMOOTH",
"772 756 OFFCURVE",
"765 763 OFFCURVE",
"752 763 CURVE SMOOTH",
"543 763 LINE SMOOTH",
"532 763 OFFCURVE",
"524 758 OFFCURVE",
"520 747 CURVE SMOOTH",
"324 187 LINE SMOOTH",
"318 169 OFFCURVE",
"302 172 OFFCURVE",
"301 191 CURVE SMOOTH",
"280 743 LINE SMOOTH",
"280 755 OFFCURVE",
"271 763 OFFCURVE",
"259 763 CURVE SMOOTH",
"117 763 LINE SMOOTH",
"104 763 OFFCURVE",
"96 756 OFFCURVE",
"97 742 CURVE SMOOTH",
"142 19 LINE SMOOTH",
"143 7 OFFCURVE",
"150 0 OFFCURVE",
"162 0 CURVE SMOOTH",
"396 0 LINE SMOOTH",
"407 0 OFFCURVE",
"415 5 OFFCURVE",
"419 16 CURVE SMOOTH"
);
}
);
width = 1138;
},
{
anchors = (
{
name = bottom;
position = "{487, 0}";
},
{
name = top;
position = "{622, 763}";
}
);
layerId = "11907447-A26F-432E-A335-7727E0303767";
paths = (
{
closed = 1;
nodes = (
"586 593 LINE SMOOTH",
"590 601 OFFCURVE",
"598 600 OFFCURVE",
"599 591 CURVE SMOOTH",
"674 9 LINE SMOOTH",
"675 2 OFFCURVE",
"678 0 OFFCURVE",
"684 0 CURVE SMOOTH",
"771 0 LINE SMOOTH",
"776 0 OFFCURVE",
"781 2 OFFCURVE",
"783 7 CURVE SMOOTH",
"1134 751 LINE SMOOTH",
"1137 758 OFFCURVE",
"1134 763 OFFCURVE",
"1127 763 CURVE SMOOTH",
"1045 763 LINE SMOOTH",
"1040 763 OFFCURVE",
"1035 761 OFFCURVE",
"1033 756 CURVE SMOOTH",
"747 151 LINE SMOOTH",
"743 142 OFFCURVE",
"735 145 OFFCURVE",
"734 154 CURVE SMOOTH",
"661 754 LINE SMOOTH",
"660 761 OFFCURVE",
"657 763 OFFCURVE",
"651 763 CURVE SMOOTH",
"580 763 LINE SMOOTH",
"575 763 OFFCURVE",
"570 761 OFFCURVE",
"568 756 CURVE SMOOTH",
"283 152 LINE SMOOTH",
"279 143 OFFCURVE",
"271 145 OFFCURVE",
"270 154 CURVE SMOOTH",
"196 754 LINE SMOOTH",
"195 761 OFFCURVE",
"192 763 OFFCURVE",
"186 763 CURVE SMOOTH",
"117 763 LINE SMOOTH",
"111 763 OFFCURVE",
"106 758 OFFCURVE",
"107 752 CURVE SMOOTH",
"196 9 LINE SMOOTH",
"197 2 OFFCURVE",
"200 0 OFFCURVE",
"206 0 CURVE SMOOTH",
"293 0 LINE SMOOTH",
"298 0 OFFCURVE",
"303 2 OFFCURVE",
"305 7 CURVE SMOOTH"
);
}
);
width = 1074;
},
{
anchors = (
{
name = bottom;
position = "{493, 0}";
},
{
name = top;
position = "{627, 763}";
}
);
layerId = "2F4EEC1B-9E89-4E08-AD53-AB625B6E887D";
paths = (
{
closed = 1;
nodes = (
"597 631 LINE SMOOTH",
"601 639 OFFCURVE",
"609 638 OFFCURVE",
"610 629 CURVE SMOOTH",
"699 9 LINE SMOOTH",
"700 2 OFFCURVE",
"703 0 OFFCURVE",
"709 0 CURVE SMOOTH",
"772 0 LINE SMOOTH",
"777 0 OFFCURVE",
"782 2 OFFCURVE",
"784 7 CURVE SMOOTH",
"1139 751 LINE SMOOTH",
"1142 758 OFFCURVE",
"1139 763 OFFCURVE",
"1132 763 CURVE SMOOTH",
"1076 763 LINE SMOOTH",
"1071 763 OFFCURVE",
"1066 761 OFFCURVE",
"1064 756 CURVE SMOOTH",
"757 119 LINE SMOOTH",
"753 111 OFFCURVE",
"745 112 OFFCURVE",
"744 121 CURVE SMOOTH",
"655 754 LINE SMOOTH",
"654 761 OFFCURVE",
"651 763 OFFCURVE",
"645 763 CURVE SMOOTH",
"597 763 LINE SMOOTH",
"592 763 OFFCURVE",
"587 761 OFFCURVE",
"585 756 CURVE SMOOTH",
"271 118 LINE SMOOTH",
"267 110 OFFCURVE",
"259 111 OFFCURVE",
"258 120 CURVE SMOOTH",
"177 754 LINE SMOOTH",
"176 761 OFFCURVE",
"173 763 OFFCURVE",
"167 763 CURVE SMOOTH",
"119 763 LINE SMOOTH",
"113 763 OFFCURVE",
"108 758 OFFCURVE",
"109 752 CURVE SMOOTH",
"203 9 LINE SMOOTH",
"204 2 OFFCURVE",
"207 0 OFFCURVE",
"213 0 CURVE SMOOTH",
"277 0 LINE SMOOTH",
"282 0 OFFCURVE",
"287 2 OFFCURVE",
"289 7 CURVE SMOOTH"
);
}
);
width = 1081;
}
);
leftKerningGroup = W;
note = W;
rightKerningGroup = W;
unicode = 0057;
},
{
color = 1;
glyphname = X;
lastChange = "2020-04-15 13:18:27 +0000";
layers = (
{
layerId = "FD6EB2BB-8839-4CDB-86BF-4EEAE3F02079";
paths = (
{
closed = 1;
nodes = (
"366 225 LINE SMOOTH",
"376 237 OFFCURVE",
"388 235 OFFCURVE",
"394 221 CURVE SMOOTH",
"491 15 LINE SMOOTH",
"496 4 OFFCURVE",
"503 0 OFFCURVE",
"514 0 CURVE SMOOTH",
"669 0 LINE SMOOTH",
"684 0 OFFCURVE",
"690 10 OFFCURVE",
"684 24 CURVE SMOOTH",
"522 364 LINE SMOOTH",
"517 375 OFFCURVE",
"518 384 OFFCURVE",
"525 392 CURVE SMOOTH",
"812 738 LINE SMOOTH",
"823 752 OFFCURVE",
"817 763 OFFCURVE",
"800 763 CURVE SMOOTH",
"619 763 LINE SMOOTH",
"609 763 OFFCURVE",
"601 759 OFFCURVE",
"595 751 CURVE SMOOTH",
"414 521 LINE SMOOTH",
"404 508 OFFCURVE",
"392 511 OFFCURVE",
"386 525 CURVE SMOOTH",
"292 748 LINE SMOOTH",
"288 759 OFFCURVE",
"279 763 OFFCURVE",
"268 763 CURVE SMOOTH",
"113 763 LINE SMOOTH",
"98 763 OFFCURVE",
"92 753 OFFCURVE",
"98 739 CURVE SMOOTH",
"261 394 LINE SMOOTH",
"266 383 OFFCURVE",
"265 374 OFFCURVE",
"258 366 CURVE SMOOTH",
"-26 25 LINE SMOOTH",
"-37 11 OFFCURVE",
"-31 0 OFFCURVE",
"-14 0 CURVE SMOOTH",
"166 0 LINE SMOOTH",
"176 0 OFFCURVE",
"185 4 OFFCURVE",
"191 12 CURVE SMOOTH"
);
}
);
width = 749;
},
{
layerId = "11907447-A26F-432E-A335-7727E0303767";
paths = (
{
closed = 1;
nodes = (
"348 305 LINE SMOOTH",
"353 310 OFFCURVE",
"359 310 OFFCURVE",
"362 303 CURVE SMOOTH",
"513 7 LINE SMOOTH",
"515 2 OFFCURVE",
"520 0 OFFCURVE",
"525 0 CURVE SMOOTH",
"606 0 LINE SMOOTH",
"613 0 OFFCURVE",
"616 5 OFFCURVE",
"613 12 CURVE SMOOTH",
"427 377 LINE SMOOTH",
"425 382 OFFCURVE",
"425 386 OFFCURVE",
"428 390 CURVE SMOOTH",
"739 751 LINE SMOOTH",
"744 757 OFFCURVE",
"742 763 OFFCURVE",
"734 763 CURVE SMOOTH",
"640 763 LINE SMOOTH",
"635 763 OFFCURVE",
"631 761 OFFCURVE",
"628 757 CURVE SMOOTH",
"373 458 LINE SMOOTH",
"368 453 OFFCURVE",
"362 452 OFFCURVE",
"359 459 CURVE SMOOTH",
"213 756 LINE SMOOTH",
"211 761 OFFCURVE",
"206 763 OFFCURVE",
"201 763 CURVE SMOOTH",
"119 763 LINE SMOOTH",
"112 763 OFFCURVE",
"109 758 OFFCURVE",
"112 751 CURVE SMOOTH",
"295 391 LINE SMOOTH",
"297 386 OFFCURVE",
"297 382 OFFCURVE",
"294 378 CURVE SMOOTH",
"-22 12 LINE SMOOTH",
"-27 6 OFFCURVE",
"-25 0 OFFCURVE",
"-17 0 CURVE SMOOTH",
"76 0 LINE SMOOTH",
"81 0 OFFCURVE",
"85 2 OFFCURVE",
"88 6 CURVE SMOOTH"
);
}
);
width = 684;
},
{
anchors = (
{
name = bottom;
position = "{285, 0}";
},
{
name = top;
position = "{419, 763}";
}
);
layerId = "2F4EEC1B-9E89-4E08-AD53-AB625B6E887D";
paths = (
{
closed = 1;
nodes = (
"339 325 LINE SMOOTH",
"344 330 OFFCURVE",
"350 330 OFFCURVE",
"353 323 CURVE SMOOTH",
"518 7 LINE SMOOTH",
"520 2 OFFCURVE",
"525 0 OFFCURVE",
"530 0 CURVE SMOOTH",
"586 0 LINE SMOOTH",
"593 0 OFFCURVE",
"596 5 OFFCURVE",
"593 12 CURVE SMOOTH",
"402 378 LINE SMOOTH",
"400 383 OFFCURVE",
"400 386 OFFCURVE",
"404 391 CURVE SMOOTH",
"717 751 LINE SMOOTH",
"722 757 OFFCURVE",
"720 763 OFFCURVE",
"712 763 CURVE SMOOTH",
"647 763 LINE SMOOTH",
"642 763 OFFCURVE",
"638 761 OFFCURVE",
"635 757 CURVE SMOOTH",
"364 442 LINE SMOOTH",
"359 437 OFFCURVE",
"353 436 OFFCURVE",
"350 443 CURVE SMOOTH",
"191 756 LINE SMOOTH",
"189 761 OFFCURVE",
"184 763 OFFCURVE",
"179 763 CURVE SMOOTH",
"123 763 LINE SMOOTH",
"116 763 OFFCURVE",
"113 758 OFFCURVE",
"116 751 CURVE SMOOTH",
"302 392 LINE SMOOTH",
"304 387 OFFCURVE",
"304 384 OFFCURVE",
"300 379 CURVE SMOOTH",
"-18 12 LINE SMOOTH",
"-23 6 OFFCURVE",
"-21 0 OFFCURVE",
"-13 0 CURVE SMOOTH",
"51 0 LINE SMOOTH",
"56 0 OFFCURVE",
"60 2 OFFCURVE",
"63 6 CURVE SMOOTH"
);
}
);
width = 667;
}
);
leftKerningGroup = X;
note = X;
rightKerningGroup = X;
unicode = 0058;
},
{
color = 1;
glyphname = Y;
lastChange = "2020-04-15 13:18:23 +0000";
layers = (
{
anchors = (
{
name = bottom;
position = "{307, 0}";
},
{
name = top;
position = "{442, 763}";
},
{
name = topleft;
position = "{109, 763}";
}
);
layerId = "FD6EB2BB-8839-4CDB-86BF-4EEAE3F02079";
paths = (
{
closed = 1;
nodes = (
"454 290 LINE SMOOTH",
"456 300 OFFCURVE",
"458 306 OFFCURVE",
"464 313 CURVE SMOOTH",
"792 739 LINE SMOOTH",
"802 752 OFFCURVE",
"797 763 OFFCURVE",
"780 763 CURVE SMOOTH",
"602 763 LINE SMOOTH",
"592 763 OFFCURVE",
"584 760 OFFCURVE",
"578 751 CURVE SMOOTH",
"395 499 LINE SMOOTH",
"386 486 OFFCURVE",
"374 487 OFFCURVE",
"368 503 CURVE SMOOTH",
"277 747 LINE SMOOTH",
"273 757 OFFCURVE",
"265 763 OFFCURVE",
"254 763 CURVE SMOOTH",
"102 763 LINE SMOOTH",
"87 763 OFFCURVE",
"81 754 OFFCURVE",
"87 740 CURVE SMOOTH",
"263 315 LINE SMOOTH",
"267 306 OFFCURVE",
"268 299 OFFCURVE",
"266 290 CURVE SMOOTH",
"219 22 LINE SMOOTH",
"217 9 OFFCURVE",
"224 0 OFFCURVE",
"237 0 CURVE SMOOTH",
"385 0 LINE SMOOTH",
"397 0 OFFCURVE",
"404 6 OFFCURVE",
"406 18 CURVE SMOOTH"
);
}
);
width = 718;
},
{
anchors = (
{
name = bottom;
position = "{288, 0}";
},
{
name = top;
position = "{423, 763}";
},
{
name = topleft;
position = "{94, 763}";
}
);
layerId = "11907447-A26F-432E-A335-7727E0303767";
paths = (
{
closed = 1;
nodes = (
"388 286 LINE SMOOTH",
"389 290 OFFCURVE",
"390 294 OFFCURVE",
"393 297 CURVE SMOOTH",
"746 751 LINE SMOOTH",
"751 757 OFFCURVE",
"748 763 OFFCURVE",
"740 763 CURVE SMOOTH",
"651 763 LINE SMOOTH",
"646 763 OFFCURVE",
"641 761 OFFCURVE",
"638 757 CURVE SMOOTH",
"356 394 LINE SMOOTH",
"351 387 OFFCURVE",
"346 388 OFFCURVE",
"343 396 CURVE SMOOTH",
"193 755 LINE SMOOTH",
"191 761 OFFCURVE",
"187 763 OFFCURVE",
"182 763 CURVE SMOOTH",
"103 763 LINE SMOOTH",
"96 763 OFFCURVE",
"92 758 OFFCURVE",
"95 751 CURVE SMOOTH",
"290 298 LINE SMOOTH",
"292 293 OFFCURVE",
"293 289 OFFCURVE",
"292 285 CURVE SMOOTH",
"243 11 LINE SMOOTH",
"242 5 OFFCURVE",
"245 0 OFFCURVE",
"252 0 CURVE SMOOTH",
"328 0 LINE SMOOTH",
"334 0 OFFCURVE",
"338 3 OFFCURVE",
"339 9 CURVE SMOOTH"
);
}
);
width = 674;
},
{
anchors = (
{
name = bottom;
position = "{283, 0}";
},
{
name = top;
position = "{417, 763}";
},
{
name = topleft;
position = "{106, 763}";
}
);
guideLines = (
{
position = "{140, 442}";
}
);
layerId = "2F4EEC1B-9E89-4E08-AD53-AB625B6E887D";
paths = (
{
closed = 1;
nodes = (
"369 286 LINE SMOOTH",
"370 290 OFFCURVE",
"371 294 OFFCURVE",
"374 297 CURVE SMOOTH",
"730 751 LINE SMOOTH",
"735 757 OFFCURVE",
"732 763 OFFCURVE",
"724 763 CURVE SMOOTH",
"663 763 LINE SMOOTH",
"658 763 OFFCURVE",
"653 761 OFFCURVE",
"650 757 CURVE SMOOTH",
"349 370 LINE SMOOTH",
"344 363 OFFCURVE",
"339 364 OFFCURVE",
"336 372 CURVE SMOOTH",
"172 755 LINE SMOOTH",
"170 761 OFFCURVE",
"166 763 OFFCURVE",
"161 763 CURVE SMOOTH",
"107 763 LINE SMOOTH",
"100 763 OFFCURVE",
"96 758 OFFCURVE",
"99 751 CURVE SMOOTH",
"295 298 LINE SMOOTH",
"297 293 OFFCURVE",
"298 289 OFFCURVE",
"297 285 CURVE SMOOTH",
"249 11 LINE SMOOTH",
"248 5 OFFCURVE",
"251 0 OFFCURVE",
"258 0 CURVE SMOOTH",
"310 0 LINE SMOOTH",
"316 0 OFFCURVE",
"320 3 OFFCURVE",
"321 9 CURVE SMOOTH"
);
}
);
width = 662;
}
);
leftKerningGroup = Y;
note = Y;
rightKerningGroup = Y;
unicode = 0059;
},
{
color = 1;
glyphname = Z;
lastChange = "2020-04-15 13:18:18 +0000";
layers = (
{
anchors = (
{
name = bottom;
position = "{264, 0}";
},
{
name = center;
position = "{331, 382}";
},
{
name = top;
position = "{399, 763}";
}
);
layerId = "FD6EB2BB-8839-4CDB-86BF-4EEAE3F02079";
paths = (
{
closed = 1;
nodes = (
"567 138 LINE SMOOTH",
"569 151 OFFCURVE",
"562 160 OFFCURVE",
"549 160 CURVE SMOOTH",
"283 160 LINE SMOOTH",
"266 160 OFFCURVE",
"261 172 OFFCURVE",
"272 185 CURVE SMOOTH",
"644 626 LINE SMOOTH",
"650 634 OFFCURVE",
"653 639 OFFCURVE",
"655 649 CURVE SMOOTH",
"672 741 LINE SMOOTH",
"674 755 OFFCURVE",
"667 763 OFFCURVE",
"654 763 CURVE SMOOTH",
"150 763 LINE SMOOTH",
"138 763 OFFCURVE",
"131 757 OFFCURVE",
"129 745 CURVE SMOOTH",
"107 625 LINE SMOOTH",
"105 611 OFFCURVE",
"112 603 OFFCURVE",
"125 603 CURVE SMOOTH",
"374 603 LINE SMOOTH",
"391 603 OFFCURVE",
"396 591 OFFCURVE",
"385 578 CURVE SMOOTH",
"6 131 LINE SMOOTH",
"0 124 OFFCURVE",
"-3 117 OFFCURVE",
"-5 108 CURVE SMOOTH",
"-20 22 LINE SMOOTH",
"-22 9 OFFCURVE",
"-15 0 OFFCURVE",
"-2 0 CURVE SMOOTH",
"525 0 LINE SMOOTH",
"537 0 OFFCURVE",
"544 6 OFFCURVE",
"546 18 CURVE SMOOTH"
);
}
);
width = 624;
},
{
anchors = (
{
name = bottom;
position = "{269, 0}";
},
{
name = center;
position = "{337, 382}";
},
{
name = top;
position = "{404, 763}";
}
);
layerId = "11907447-A26F-432E-A335-7727E0303767";
paths = (
{
closed = 1;
nodes = (
"565 72 LINE SMOOTH",
"566 78 OFFCURVE",
"563 83 OFFCURVE",
"556 83 CURVE SMOOTH",
"140 83 LINE SMOOTH",
"132 83 OFFCURVE",
"128 89 OFFCURVE",
"134 95 CURVE SMOOTH",
"671 689 LINE SMOOTH",
"674 693 OFFCURVE",
"676 697 OFFCURVE",
"677 701 CURVE SMOOTH",
"686 752 LINE SMOOTH",
"687 758 OFFCURVE",
"684 763 OFFCURVE",
"677 763 CURVE SMOOTH",
"148 763 LINE SMOOTH",
"142 763 OFFCURVE",
"138 760 OFFCURVE",
"137 754 CURVE SMOOTH",
"126 691 LINE SMOOTH",
"125 685 OFFCURVE",
"128 680 OFFCURVE",
"135 680 CURVE SMOOTH",
"532 680 LINE SMOOTH",
"540 680 OFFCURVE",
"544 675 OFFCURVE",
"538 668 CURVE SMOOTH",
"-3 72 LINE SMOOTH",
"-6 68 OFFCURVE",
"-8 64 OFFCURVE",
"-9 60 CURVE SMOOTH",
"-18 11 LINE SMOOTH",
"-19 5 OFFCURVE",
"-16 0 OFFCURVE",
"-9 0 CURVE SMOOTH",
"543 0 LINE SMOOTH",
"549 0 OFFCURVE",
"553 3 OFFCURVE",
"554 9 CURVE SMOOTH"
);
}
);
width = 634;
},
{
anchors = (
{
name = bottom;
position = "{272, 0}";
},
{
name = center;
position = "{339, 382}";
},
{
name = top;
position = "{406, 763}";
}
);
layerId = "2F4EEC1B-9E89-4E08-AD53-AB625B6E887D";
paths = (
{
closed = 1;
nodes = (
"565 51 LINE SMOOTH",
"566 57 OFFCURVE",
"563 62 OFFCURVE",
"556 62 CURVE SMOOTH",
"94 62 LINE SMOOTH",
"86 62 OFFCURVE",
"83 67 OFFCURVE",
"89 74 CURVE SMOOTH",
"677 703 LINE SMOOTH",
"680 707 OFFCURVE",
"682 711 OFFCURVE",
"683 715 CURVE SMOOTH",
"690 752 LINE SMOOTH",
"691 758 OFFCURVE",
"688 763 OFFCURVE",
"681 763 CURVE SMOOTH",
"148 763 LINE SMOOTH",
"142 763 OFFCURVE",
"138 760 OFFCURVE",
"137 754 CURVE SMOOTH",
"130 712 LINE SMOOTH",
"129 706 OFFCURVE",
"132 701 OFFCURVE",
"139 701 CURVE SMOOTH",
"579 701 LINE SMOOTH",
"587 701 OFFCURVE",
"590 696 OFFCURVE",
"584 689 CURVE SMOOTH",
"-5 59 LINE SMOOTH",
"-8 55 OFFCURVE",
"-10 51 OFFCURVE",
"-11 47 CURVE SMOOTH",
"-17 11 LINE SMOOTH",
"-18 5 OFFCURVE",
"-14 0 OFFCURVE",
"-8 0 CURVE SMOOTH",
"547 0 LINE SMOOTH",
"553 0 OFFCURVE",
"557 3 OFFCURVE",
"558 9 CURVE SMOOTH"
);
}
);
width = 638;
}
);
leftKerningGroup = Z;
note = Z;
rightKerningGroup = Z;
unicode = 005A;
},
{
color = 1;
glyphname = a;
lastChange = "2020-04-15 13:25:55 +0000";
layers = (
{
anchors = (
{
name = bottom;
position = "{257, 0}";
},
{
name = ogonek;
position = "{484, 0}";
},
{
name = top;
position = "{357, 567}";
}
);
guideLines = (
{
angle = 270;
position = "{638, 763}";
},
{
position = "{429, 367}";
}
);
layerId = "FD6EB2BB-8839-4CDB-86BF-4EEAE3F02079";
paths = (
{
closed = 1;
nodes = (
"260 -5 OFFCURVE",
"297 18 CURVE SMOOTH",
"307 24 OFFCURVE",
"317 31 OFFCURVE",
"325 40 CURVE SMOOTH",
"336 52 OFFCURVE",
"344 46 OFFCURVE",
"339 26 CURVE SMOOTH",
"338 22 LINE SMOOTH",
"335 9 OFFCURVE",
"343 0 OFFCURVE",
"356 0 CURVE SMOOTH",
"484 0 LINE SMOOTH",
"496 0 OFFCURVE",
"503 6 OFFCURVE",
"505 18 CURVE SMOOTH",
"549 269 LINE SMOOTH",
"558 318 OFFCURVE",
"566 364 OFFCURVE",
"566 405 CURVE SMOOTH",
"566 451 OFFCURVE",
"556 491 OFFCURVE",
"524 523 CURVE SMOOTH",
"486 562 OFFCURVE",
"424 579 OFFCURVE",
"358 579 CURVE SMOOTH",
"250 579 OFFCURVE",
"131 526 OFFCURVE",
"80 401 CURVE SMOOTH",
"74 387 OFFCURVE",
"82 378 OFFCURVE",
"96 378 CURVE SMOOTH",
"221 378 LINE SMOOTH",
"232 378 OFFCURVE",
"239 383 OFFCURVE",
"244 394 CURVE SMOOTH",
"264 432 OFFCURVE",
"300 453 OFFCURVE",
"335 453 CURVE SMOOTH",
"360 453 OFFCURVE",
"378 447 OFFCURVE",
"388 433 CURVE SMOOTH",
"397 421 OFFCURVE",
"401 405 OFFCURVE",
"401 385 CURVE SMOOTH",
"401 382 OFFCURVE",
"401 379 OFFCURVE",
"401 376 CURVE SMOOTH",
"401 370 OFFCURVE",
"393 366 OFFCURVE",
"382 364 CURVE SMOOTH",
"248 341 LINE SMOOTH",
"110 317 OFFCURVE",
"8 262 OFFCURVE",
"8 123 CURVE SMOOTH",
"8 33 OFFCURVE",
"76 -12 OFFCURVE",
"167 -12 CURVE SMOOTH",
"213 -12 OFFCURVE"
);
},
{
closed = 1;
nodes = (
"179 127 OFFCURVE",
"179 156 CURVE SMOOTH",
"179 201 OFFCURVE",
"220 218 OFFCURVE",
"275 228 CURVE SMOOTH",
"357 243 LINE SMOOTH",
"372 246 OFFCURVE",
"380 238 OFFCURVE",
"376 223 CURVE SMOOTH",
"363 176 OFFCURVE",
"344 147 OFFCURVE",
"302 129 CURVE SMOOTH",
"280 120 OFFCURVE",
"257 115 OFFCURVE",
"238 115 CURVE SMOOTH",
"205 115 OFFCURVE"
);
}
);
width = 601;
},
{
anchors = (
{
name = bottom;
position = "{246, 0}";
},
{
name = ogonek;
position = "{453, 0}";
},
{
name = top;
position = "{344, 553}";
}
);
guideLines = (
{
angle = 270;
position = "{465, 351}";
}
);
layerId = "11907447-A26F-432E-A335-7727E0303767";
paths = (
{
closed = 1;
nodes = (
"273 -1 OFFCURVE",
"314 22 CURVE SMOOTH",
"337 34 OFFCURVE",
"357 50 OFFCURVE",
"378 71 CURVE SMOOTH",
"385 78 OFFCURVE",
"391 74 OFFCURVE",
"389 65 CURVE SMOOTH",
"379 11 LINE SMOOTH",
"378 5 OFFCURVE",
"381 0 OFFCURVE",
"388 0 CURVE SMOOTH",
"453 0 LINE SMOOTH",
"459 0 OFFCURVE",
"463 3 OFFCURVE",
"464 9 CURVE SMOOTH",
"520 326 LINE SMOOTH",
"523 343 OFFCURVE",
"527 369 OFFCURVE",
"527 398 CURVE SMOOTH",
"527 434 OFFCURVE",
"520 475 OFFCURVE",
"493 506 CURVE SMOOTH",
"461 544 OFFCURVE",
"406 563 OFFCURVE",
"342 563 CURVE SMOOTH",
"240 563 OFFCURVE",
"135 506 OFFCURVE",
"92 399 CURVE SMOOTH",
"90 392 OFFCURVE",
"93 387 OFFCURVE",
"100 387 CURVE SMOOTH",
"165 387 LINE SMOOTH",
"170 387 OFFCURVE",
"174 389 OFFCURVE",
"176 395 CURVE SMOOTH",
"202 452 OFFCURVE",
"262 488 OFFCURVE",
"327 488 CURVE SMOOTH",
"370 488 OFFCURVE",
"403 474 OFFCURVE",
"423 450 CURVE SMOOTH",
"436 434 OFFCURVE",
"443 413 OFFCURVE",
"443 387 CURVE SMOOTH",
"443 378 OFFCURVE",
"442 369 OFFCURVE",
"441 359 CURVE SMOOTH",
"440 354 OFFCURVE",
"436 350 OFFCURVE",
"431 349 CURVE SMOOTH",
"235 313 LINE SMOOTH",
"112 290 OFFCURVE",
"22 229 OFFCURVE",
"22 115 CURVE SMOOTH",
"22 37 OFFCURVE",
"79 -10 OFFCURVE",
"177 -10 CURVE SMOOTH",
"229 -10 OFFCURVE"
);
},
{
closed = 1;
nodes = (
"110 91 OFFCURVE",
"110 134 CURVE SMOOTH",
"110 200 OFFCURVE",
"165 231 OFFCURVE",
"242 246 CURVE SMOOTH",
"416 280 LINE SMOOTH",
"424 282 OFFCURVE",
"427 277 OFFCURVE",
"426 270 CURVE SMOOTH",
"409 184 OFFCURVE",
"374 123 OFFCURVE",
"292 84 CURVE SMOOTH",
"265 71 OFFCURVE",
"235 65 OFFCURVE",
"201 65 CURVE SMOOTH",
"144 65 OFFCURVE"
);
}
);
width = 576;
},
{
anchors = (
{
name = bottom;
position = "{240, 0}";
},
{
name = ogonek;
position = "{439, 0}";
},
{
name = top;
position = "{336, 549}";
}
);
guideLines = (
{
angle = 270;
position = "{469, 347}";
}
);
layerId = "2F4EEC1B-9E89-4E08-AD53-AB625B6E887D";
paths = (
{
closed = 1;
nodes = (
"272 2 OFFCURVE",
"310 23 CURVE SMOOTH",
"339 38 OFFCURVE",
"365 59 OFFCURVE",
"386 84 CURVE SMOOTH",
"393 92 OFFCURVE",
"399 88 OFFCURVE",
"397 79 CURVE SMOOTH",
"385 11 LINE SMOOTH",
"384 5 OFFCURVE",
"387 0 OFFCURVE",
"394 0 CURVE SMOOTH",
"439 0 LINE SMOOTH",
"445 0 OFFCURVE",
"449 3 OFFCURVE",
"450 9 CURVE SMOOTH",
"505 328 LINE SMOOTH",
"509 352 OFFCURVE",
"512 374 OFFCURVE",
"512 394 CURVE SMOOTH",
"512 438 OFFCURVE",
"501 475 OFFCURVE",
"480 502 CURVE SMOOTH",
"452 539 OFFCURVE",
"403 559 OFFCURVE",
"333 559 CURVE SMOOTH",
"231 559 OFFCURVE",
"131 502 OFFCURVE",
"92 401 CURVE SMOOTH",
"89 394 OFFCURVE",
"93 389 OFFCURVE",
"100 389 CURVE SMOOTH",
"145 389 LINE SMOOTH",
"150 389 OFFCURVE",
"154 391 OFFCURVE",
"156 397 CURVE SMOOTH",
"183 460 OFFCURVE",
"251 501 OFFCURVE",
"322 501 CURVE SMOOTH",
"373 501 OFFCURVE",
"408 488 OFFCURVE",
"427 461 CURVE SMOOTH",
"441 442 OFFCURVE",
"447 416 OFFCURVE",
"447 386 CURVE SMOOTH",
"447 376 OFFCURVE",
"446 366 OFFCURVE",
"445 356 CURVE SMOOTH",
"444 350 OFFCURVE",
"441 346 OFFCURVE",
"436 345 CURVE SMOOTH",
"241 308 LINE SMOOTH",
"123 286 OFFCURVE",
"22 235 OFFCURVE",
"22 117 CURVE SMOOTH",
"22 34 OFFCURVE",
"88 -10 OFFCURVE",
"185 -10 CURVE SMOOTH",
"229 -10 OFFCURVE"
);
},
{
closed = 1;
nodes = (
"88 76 OFFCURVE",
"88 128 CURVE SMOOTH",
"88 202 OFFCURVE",
"150 234 OFFCURVE",
"232 251 CURVE SMOOTH",
"422 290 LINE SMOOTH",
"430 292 OFFCURVE",
"433 287 OFFCURVE",
"432 280 CURVE SMOOTH",
"413 184 OFFCURVE",
"372 107 OFFCURVE",
"288 70 CURVE SMOOTH",
"255 55 OFFCURVE",
"223 48 OFFCURVE",
"190 48 CURVE SMOOTH",
"131 48 OFFCURVE"
);
}
);
width = 561;
}
);
leftKerningGroup = a;
note = a;
rightKerningGroup = a;
unicode = 0061;
},
{
glyphname = ae;
lastChange = "2020-04-16 06:45:14 +0000";
layers = (
{
anchors = (
{
name = bottom;
position = "{453, 0}";
},
{
name = top;
position = "{549, 549}";
}
);
layerId = "2F4EEC1B-9E89-4E08-AD53-AB625B6E887D";
paths = (
{
closed = 1;
nodes = (
"221 -10 OFFCURVE",
"267 -3 OFFCURVE",
"311 18 CURVE SMOOTH",
"351 37 OFFCURVE",
"391 68 OFFCURVE",
"424 116 CURVE SMOOTH",
"432 128 OFFCURVE",
"440 132 OFFCURVE",
"443 124 CURVE SMOOTH",
"472 42 OFFCURVE",
"545 -10 OFFCURVE",
"644 -10 CURVE SMOOTH",
"771 -10 OFFCURVE",
"867 66 OFFCURVE",
"919 163 CURVE SMOOTH",
"922 169 OFFCURVE",
"918 173 OFFCURVE",
"911 173 CURVE SMOOTH",
"863 173 LINE SMOOTH",
"858 173 OFFCURVE",
"854 171 OFFCURVE",
"851 166 CURVE SMOOTH",
"813 100 OFFCURVE",
"742 48 OFFCURVE",
"654 48 CURVE SMOOTH",
"550 48 OFFCURVE",
"492 128 OFFCURVE",
"492 233 CURVE SMOOTH",
"492 251 OFFCURVE",
"491 263 OFFCURVE",
"504 263 CURVE SMOOTH",
"943 263 LINE SMOOTH",
"949 263 OFFCURVE",
"953 266 OFFCURVE",
"954 272 CURVE SMOOTH",
"957 292 OFFCURVE",
"959 316 OFFCURVE",
"959 332 CURVE SMOOTH",
"959 466 OFFCURVE",
"882 559 OFFCURVE",
"743 559 CURVE SMOOTH",
"653 559 OFFCURVE",
"573 517 OFFCURVE",
"516 452 CURVE SMOOTH",
"511 445 OFFCURVE",
"506 447 OFFCURVE",
"504 454 CURVE SMOOTH",
"498 473 OFFCURVE",
"490 488 OFFCURVE",
"480 502 CURVE SMOOTH",
"452 539 OFFCURVE",
"403 559 OFFCURVE",
"333 559 CURVE SMOOTH",
"231 559 OFFCURVE",
"131 502 OFFCURVE",
"92 401 CURVE SMOOTH",
"89 394 OFFCURVE",
"93 389 OFFCURVE",
"100 389 CURVE SMOOTH",
"145 389 LINE SMOOTH",
"150 389 OFFCURVE",
"154 391 OFFCURVE",
"156 397 CURVE SMOOTH",
"183 460 OFFCURVE",
"251 501 OFFCURVE",
"322 501 CURVE SMOOTH",
"373 501 OFFCURVE",
"408 488 OFFCURVE",
"427 461 CURVE SMOOTH",
"441 442 OFFCURVE",
"447 416 OFFCURVE",
"447 386 CURVE SMOOTH",
"447 376 OFFCURVE",
"446 366 OFFCURVE",
"445 356 CURVE SMOOTH",
"444 350 OFFCURVE",
"441 346 OFFCURVE",
"436 345 CURVE SMOOTH",
"241 308 LINE SMOOTH",
"123 286 OFFCURVE",
"22 235 OFFCURVE",
"22 117 CURVE SMOOTH",
"22 34 OFFCURVE",
"88 -10 OFFCURVE",
"185 -10 CURVE SMOOTH"
);
},
{
closed = 1;
nodes = (
"131 48 OFFCURVE",
"88 76 OFFCURVE",
"88 128 CURVE SMOOTH",
"88 202 OFFCURVE",
"150 234 OFFCURVE",
"232 251 CURVE SMOOTH",
"422 290 LINE SMOOTH",
"430 292 OFFCURVE",
"433 287 OFFCURVE",
"432 280 CURVE SMOOTH",
"413 184 OFFCURVE",
"372 107 OFFCURVE",
"288 70 CURVE SMOOTH",
"255 55 OFFCURVE",
"223 48 OFFCURVE",
"190 48 CURVE SMOOTH"
);
},
{
closed = 1;
nodes = (
"512 316 OFFCURVE",
"508 320 OFFCURVE",
"511 327 CURVE SMOOTH",
"518 347 OFFCURVE",
"528 370 OFFCURVE",
"540 388 CURVE SMOOTH",
"584 459 OFFCURVE",
"654 501 OFFCURVE",
"734 501 CURVE SMOOTH",
"831 501 OFFCURVE",
"898 436 OFFCURVE",
"898 332 CURVE SMOOTH",
"898 326 LINE SMOOTH",
"898 320 OFFCURVE",
"894 316 OFFCURVE",
"888 316 CURVE SMOOTH",
"519 316 LINE SMOOTH"
);
}
);
width = 1001;
},
{
anchors = (
{
name = bottom;
position = "{456, 0}";
},
{
name = top;
position = "{554, 553}";
}
);
layerId = "11907447-A26F-432E-A335-7727E0303767";
paths = (
{
closed = 1;
nodes = (
"219 -10 OFFCURVE",
"267 -6 OFFCURVE",
"316 16 CURVE SMOOTH",
"353 33 OFFCURVE",
"391 60 OFFCURVE",
"426 104 CURVE SMOOTH",
"434 115 OFFCURVE",
"442 118 OFFCURVE",
"445 111 CURVE SMOOTH",
"478 37 OFFCURVE",
"548 -10 OFFCURVE",
"647 -10 CURVE SMOOTH",
"779 -10 OFFCURVE",
"876 68 OFFCURVE",
"931 168 CURVE SMOOTH",
"934 174 OFFCURVE",
"929 178 OFFCURVE",
"922 178 CURVE SMOOTH",
"853 178 LINE SMOOTH",
"848 178 OFFCURVE",
"844 176 OFFCURVE",
"841 171 CURVE SMOOTH",
"805 113 OFFCURVE",
"741 65 OFFCURVE",
"660 65 CURVE SMOOTH",
"567 65 OFFCURVE",
"509 142 OFFCURVE",
"509 235 CURVE SMOOTH",
"509 249 OFFCURVE",
"507 260 OFFCURVE",
"520 260 CURVE SMOOTH",
"951 260 LINE SMOOTH",
"957 260 OFFCURVE",
"961 263 OFFCURVE",
"962 269 CURVE SMOOTH",
"967 305 OFFCURVE",
"970 326 OFFCURVE",
"971 349 CURVE SMOOTH",
"971 489 OFFCURVE",
"870 563 OFFCURVE",
"747 563 CURVE SMOOTH",
"660 563 OFFCURVE",
"584 527 OFFCURVE",
"527 468 CURVE SMOOTH",
"521 463 OFFCURVE",
"517 464 OFFCURVE",
"514 471 CURVE SMOOTH",
"509 484 OFFCURVE",
"502 495 OFFCURVE",
"493 506 CURVE SMOOTH",
"461 544 OFFCURVE",
"406 563 OFFCURVE",
"342 563 CURVE SMOOTH",
"240 563 OFFCURVE",
"135 506 OFFCURVE",
"92 399 CURVE SMOOTH",
"90 392 OFFCURVE",
"93 387 OFFCURVE",
"100 387 CURVE SMOOTH",
"165 387 LINE SMOOTH",
"170 387 OFFCURVE",
"174 389 OFFCURVE",
"176 395 CURVE SMOOTH",
"202 452 OFFCURVE",
"262 488 OFFCURVE",
"327 488 CURVE SMOOTH",
"370 488 OFFCURVE",
"403 474 OFFCURVE",
"423 450 CURVE SMOOTH",
"436 434 OFFCURVE",
"443 413 OFFCURVE",
"443 387 CURVE SMOOTH",
"443 378 OFFCURVE",
"442 369 OFFCURVE",
"441 359 CURVE SMOOTH",
"440 354 OFFCURVE",
"436 350 OFFCURVE",
"431 349 CURVE SMOOTH",
"235 313 LINE SMOOTH",
"112 290 OFFCURVE",
"22 229 OFFCURVE",
"22 115 CURVE SMOOTH",
"22 37 OFFCURVE",
"79 -10 OFFCURVE",
"177 -10 CURVE SMOOTH"
);
},
{
closed = 1;
nodes = (
"144 65 OFFCURVE",
"110 91 OFFCURVE",
"110 134 CURVE SMOOTH",
"110 200 OFFCURVE",
"165 231 OFFCURVE",
"242 246 CURVE SMOOTH",
"416 280 LINE SMOOTH",
"424 282 OFFCURVE",
"427 277 OFFCURVE",
"426 270 CURVE SMOOTH",
"409 184 OFFCURVE",
"374 123 OFFCURVE",
"292 84 CURVE SMOOTH",
"265 71 OFFCURVE",
"235 65 OFFCURVE",
"201 65 CURVE SMOOTH"
);
},
{
closed = 1;
nodes = (
"536 335 OFFCURVE",
"533 340 OFFCURVE",
"535 347 CURVE SMOOTH",
"541 361 OFFCURVE",
"548 376 OFFCURVE",
"557 389 CURVE SMOOTH",
"598 452 OFFCURVE",
"661 488 OFFCURVE",
"735 488 CURVE SMOOTH",
"818 488 OFFCURVE",
"883 438 OFFCURVE",
"883 358 CURVE SMOOTH",
"883 354 OFFCURVE",
"883 349 OFFCURVE",
"883 345 CURVE SMOOTH",
"883 338 OFFCURVE",
"878 335 OFFCURVE",
"872 335 CURVE SMOOTH",
"543 335 LINE SMOOTH"
);
}
);
width = 1010;
},
{
anchors = (
{
name = bottom;
position = "{447, 0}";
},
{
name = top;
position = "{547, 567}";
}
);
layerId = "FD6EB2BB-8839-4CDB-86BF-4EEAE3F02079";
paths = (
{
closed = 1;
nodes = (
"202 -12 OFFCURVE",
"257 -11 OFFCURVE",
"314 19 CURVE SMOOTH",
"333 29 OFFCURVE",
"353 42 OFFCURVE",
"372 60 CURVE SMOOTH",
"394 80 OFFCURVE",
"408 86 OFFCURVE",
"417 75 CURVE SMOOTH",
"459 21 OFFCURVE",
"529 -12 OFFCURVE",
"621 -12 CURVE SMOOTH",
"772 -12 OFFCURVE",
"873 73 OFFCURVE",
"928 177 CURVE SMOOTH",
"933 188 OFFCURVE",
"925 196 OFFCURVE",
"910 196 CURVE SMOOTH",
"784 196 LINE SMOOTH",
"774 196 OFFCURVE",
"766 192 OFFCURVE",
"759 183 CURVE SMOOTH",
"737 154 OFFCURVE",
"700 132 OFFCURVE",
"655 132 CURVE SMOOTH",
"584 132 OFFCURVE",
"547 171 OFFCURVE",
"547 237 CURVE SMOOTH",
"547 246 OFFCURVE",
"554 248 OFFCURVE",
"567 248 CURVE SMOOTH",
"937 248 LINE SMOOTH",
"949 248 OFFCURVE",
"956 254 OFFCURVE",
"958 267 CURVE SMOOTH",
"964 302 OFFCURVE",
"967 325 OFFCURVE",
"967 350 CURVE SMOOTH",
"967 515 OFFCURVE",
"851 579 OFFCURVE",
"720 579 CURVE SMOOTH",
"654 579 OFFCURVE",
"594 561 OFFCURVE",
"542 530 CURVE SMOOTH",
"532 523 OFFCURVE",
"523 524 OFFCURVE",
"514 532 CURVE SMOOTH",
"503 541 OFFCURVE",
"490 549 OFFCURVE",
"477 555 CURVE SMOOTH",
"444 571 OFFCURVE",
"404 579 OFFCURVE",
"358 579 CURVE SMOOTH",
"250 579 OFFCURVE",
"131 526 OFFCURVE",
"80 401 CURVE SMOOTH",
"74 387 OFFCURVE",
"82 378 OFFCURVE",
"96 378 CURVE SMOOTH",
"221 378 LINE SMOOTH",
"232 378 OFFCURVE",
"239 383 OFFCURVE",
"244 394 CURVE SMOOTH",
"264 432 OFFCURVE",
"300 453 OFFCURVE",
"335 453 CURVE SMOOTH",
"360 453 OFFCURVE",
"378 447 OFFCURVE",
"388 433 CURVE SMOOTH",
"397 421 OFFCURVE",
"401 405 OFFCURVE",
"401 385 CURVE SMOOTH",
"401 382 OFFCURVE",
"401 379 OFFCURVE",
"401 376 CURVE SMOOTH",
"401 370 OFFCURVE",
"393 366 OFFCURVE",
"382 364 CURVE SMOOTH",
"248 341 LINE SMOOTH",
"110 317 OFFCURVE",
"8 262 OFFCURVE",
"8 123 CURVE SMOOTH",
"8 33 OFFCURVE",
"76 -12 OFFCURVE",
"167 -12 CURVE SMOOTH"
);
},
{
closed = 1;
nodes = (
"205 115 OFFCURVE",
"179 127 OFFCURVE",
"179 156 CURVE SMOOTH",
"179 201 OFFCURVE",
"220 218 OFFCURVE",
"275 228 CURVE SMOOTH",
"357 243 LINE SMOOTH",
"372 246 OFFCURVE",
"380 238 OFFCURVE",
"376 223 CURVE SMOOTH",
"363 176 OFFCURVE",
"344 147 OFFCURVE",
"302 129 CURVE SMOOTH",
"280 120 OFFCURVE",
"257 115 OFFCURVE",
"238 115 CURVE SMOOTH"
);
},
{
closed = 1;
nodes = (
"584 367 OFFCURVE",
"575 377 OFFCURVE",
"583 390 CURVE SMOOTH",
"589 399 OFFCURVE",
"597 409 OFFCURVE",
"608 418 CURVE SMOOTH",
"636 442 OFFCURVE",
"670 451 OFFCURVE",
"704 451 CURVE SMOOTH",
"738 451 OFFCURVE",
"768 442 OFFCURVE",
"788 418 CURVE SMOOTH",
"796 408 OFFCURVE",
"800 398 OFFCURVE",
"803 388 CURVE SMOOTH",
"806 375 OFFCURVE",
"797 367 OFFCURVE",
"784 367 CURVE SMOOTH",
"599 367 LINE SMOOTH"
);
}
);
width = 993;
}
);
leftMetricsKey = a;
rightMetricsKey = e;
unicode = 00E6;
},
{
color = 1;
glyphname = b;
lastChange = "2020-04-15 13:19:24 +0000";
layers = (
{
anchors = (
{
name = bottom;
position = "{262, 0}";
},
{
name = top;
position = "{397, 763}";
}
);
guideLines = (
{
angle = 270;
position = "{47, 0}";
}
);
layerId = "FD6EB2BB-8839-4CDB-86BF-4EEAE3F02079";
paths = (
{
closed = 1;
nodes = (
"622 169 OFFCURVE",
"622 355 CURVE SMOOTH",
"622 489 OFFCURVE",
"544 579 OFFCURVE",
"420 579 CURVE SMOOTH",
"371 579 OFFCURVE",
"329 568 OFFCURVE",
"290 534 CURVE SMOOTH",
"275 522 OFFCURVE",
"266 526 OFFCURVE",
"269 544 CURVE SMOOTH",
"304 741 LINE SMOOTH",
"306 755 OFFCURVE",
"299 763 OFFCURVE",
"286 763 CURVE SMOOTH",
"158 763 LINE SMOOTH",
"146 763 OFFCURVE",
"139 757 OFFCURVE",
"137 745 CURVE SMOOTH",
"9 22 LINE SMOOTH",
"7 9 OFFCURVE",
"14 0 OFFCURVE",
"27 0 CURVE SMOOTH",
"155 0 LINE SMOOTH",
"167 0 OFFCURVE",
"174 6 OFFCURVE",
"176 18 CURVE SMOOTH",
"179 31 LINE SMOOTH",
"182 48 OFFCURVE",
"191 47 OFFCURVE",
"202 33 CURVE SMOOTH",
"229 -1 OFFCURVE",
"267 -12 OFFCURVE",
"316 -12 CURVE SMOOTH",
"494 -12 OFFCURVE"
);
},
{
closed = 1;
nodes = (
"193 175 OFFCURVE",
"193 245 CURVE SMOOTH",
"193 339 OFFCURVE",
"253 436 OFFCURVE",
"348 436 CURVE SMOOTH",
"412 436 OFFCURVE",
"449 391 OFFCURVE",
"449 323 CURVE SMOOTH",
"449 229 OFFCURVE",
"389 131 OFFCURVE",
"294 131 CURVE SMOOTH",
"231 131 OFFCURVE"
);
}
);
width = 649;
},
{
anchors = (
{
name = bottom;
position = "{257, 0}";
},
{
name = top;
position = "{403, 763}";
}
);
guideLines = (
{
position = "{-38, 0}";
}
);
layerId = "11907447-A26F-432E-A335-7727E0303767";
paths = (
{
closed = 1;
nodes = (
"590 161 OFFCURVE",
"590 346 CURVE SMOOTH",
"590 477 OFFCURVE",
"516 563 OFFCURVE",
"389 563 CURVE SMOOTH",
"320 563 OFFCURVE",
"269 544 OFFCURVE",
"206 482 CURVE SMOOTH",
"199 476 OFFCURVE",
"193 479 OFFCURVE",
"195 488 CURVE SMOOTH",
"241 752 LINE SMOOTH",
"242 758 OFFCURVE",
"239 763 OFFCURVE",
"232 763 CURVE SMOOTH",
"167 763 LINE SMOOTH",
"161 763 OFFCURVE",
"157 760 OFFCURVE",
"156 754 CURVE SMOOTH",
"25 11 LINE SMOOTH",
"24 5 OFFCURVE",
"27 0 OFFCURVE",
"34 0 CURVE SMOOTH",
"99 0 LINE SMOOTH",
"105 0 OFFCURVE",
"109 3 OFFCURVE",
"110 9 CURVE SMOOTH",
"120 68 LINE SMOOTH",
"121 77 OFFCURVE",
"128 78 OFFCURVE",
"133 71 CURVE SMOOTH",
"174 11 OFFCURVE",
"217 -10 OFFCURVE",
"287 -10 CURVE SMOOTH",
"468 -10 OFFCURVE"
);
},
{
closed = 1;
nodes = (
"149 131 OFFCURVE",
"149 226 CURVE SMOOTH",
"149 355 OFFCURVE",
"239 488 OFFCURVE",
"367 488 CURVE SMOOTH",
"455 488 OFFCURVE",
"504 423 OFFCURVE",
"504 329 CURVE SMOOTH",
"504 200 OFFCURVE",
"420 65 OFFCURVE",
"293 65 CURVE SMOOTH",
"205 65 OFFCURVE"
);
}
);
width = 634;
},
{
anchors = (
{
name = bottom;
position = "{254, 0}";
},
{
name = top;
position = "{388, 763}";
}
);
layerId = "2F4EEC1B-9E89-4E08-AD53-AB625B6E887D";
paths = (
{
closed = 1;
nodes = (
"579 162 OFFCURVE",
"579 342 CURVE SMOOTH",
"579 472 OFFCURVE",
"506 559 OFFCURVE",
"383 559 CURVE SMOOTH",
"310 559 OFFCURVE",
"241 525 OFFCURVE",
"182 464 CURVE SMOOTH",
"175 456 OFFCURVE",
"169 460 OFFCURVE",
"171 469 CURVE SMOOTH",
"221 752 LINE SMOOTH",
"222 758 OFFCURVE",
"219 763 OFFCURVE",
"212 763 CURVE SMOOTH",
"167 763 LINE SMOOTH",
"161 763 OFFCURVE",
"157 760 OFFCURVE",
"156 754 CURVE SMOOTH",
"26 11 LINE SMOOTH",
"25 5 OFFCURVE",
"28 0 OFFCURVE",
"35 0 CURVE SMOOTH",
"80 0 LINE SMOOTH",
"86 0 OFFCURVE",
"90 3 OFFCURVE",
"91 9 CURVE SMOOTH",
"104 83 LINE SMOOTH",
"106 93 OFFCURVE",
"111 93 OFFCURVE",
"116 85 CURVE SMOOTH",
"152 25 OFFCURVE",
"209 -10 OFFCURVE",
"283 -10 CURVE SMOOTH",
"456 -10 OFFCURVE"
);
},
{
closed = 1;
nodes = (
"130 120 OFFCURVE",
"130 223 CURVE SMOOTH",
"130 364 OFFCURVE",
"233 501 OFFCURVE",
"367 501 CURVE SMOOTH",
"462 501 OFFCURVE",
"513 431 OFFCURVE",
"513 332 CURVE SMOOTH",
"513 192 OFFCURVE",
"423 48 OFFCURVE",
"287 48 CURVE SMOOTH",
"191 48 OFFCURVE"
);
}
);
width = 623;
}
);
leftKerningGroup = b;
note = b;
rightKerningGroup = b;
unicode = 0062;
},
{
color = 1;
glyphname = c;
lastChange = "2020-04-15 13:19:28 +0000";
layers = (
{
anchors = (
{
name = bottom;
position = "{267, 0}";
},
{
name = top;
position = "{367, 567}";
}
);
layerId = "FD6EB2BB-8839-4CDB-86BF-4EEAE3F02079";
paths = (
{
closed = 1;
nodes = (
"524 56 OFFCURVE",
"581 173 CURVE SMOOTH",
"587 186 OFFCURVE",
"580 196 OFFCURVE",
"565 196 CURVE SMOOTH",
"424 196 LINE SMOOTH",
"413 196 OFFCURVE",
"406 191 OFFCURVE",
"401 181 CURVE SMOOTH",
"381 143 OFFCURVE",
"350 122 OFFCURVE",
"299 122 CURVE SMOOTH",
"237 122 OFFCURVE",
"201 164 OFFCURVE",
"201 237 CURVE SMOOTH",
"201 339 OFFCURVE",
"254 446 OFFCURVE",
"356 446 CURVE SMOOTH",
"399 446 OFFCURVE",
"424 430 OFFCURVE",
"434 396 CURVE SMOOTH",
"438 384 OFFCURVE",
"444 378 OFFCURVE",
"456 378 CURVE SMOOTH",
"601 378 LINE SMOOTH",
"614 378 OFFCURVE",
"622 386 OFFCURVE",
"620 399 CURVE SMOOTH",
"603 510 OFFCURVE",
"514 579 OFFCURVE",
"379 579 CURVE SMOOTH",
"175 579 OFFCURVE",
"27 422 OFFCURVE",
"27 221 CURVE SMOOTH",
"27 78 OFFCURVE",
"120 -12 OFFCURVE",
"275 -12 CURVE SMOOTH",
"408 -12 OFFCURVE"
);
}
);
width = 633;
},
{
anchors = (
{
name = bottom;
position = "{253, 0}";
},
{
name = top;
position = "{351, 553}";
}
);
layerId = "11907447-A26F-432E-A335-7727E0303767";
paths = (
{
closed = 1;
nodes = (
"492 55 OFFCURVE",
"539 166 CURVE SMOOTH",
"542 173 OFFCURVE",
"538 178 OFFCURVE",
"531 178 CURVE SMOOTH",
"461 178 LINE SMOOTH",
"456 178 OFFCURVE",
"452 176 OFFCURVE",
"450 171 CURVE SMOOTH",
"418 107 OFFCURVE",
"353 65 OFFCURVE",
"279 65 CURVE SMOOTH",
"188 65 OFFCURVE",
"129 131 OFFCURVE",
"129 231 CURVE SMOOTH",
"129 363 OFFCURVE",
"226 488 OFFCURVE",
"353 488 CURVE SMOOTH",
"421 488 OFFCURVE",
"470 453 OFFCURVE",
"483 396 CURVE SMOOTH",
"485 390 OFFCURVE",
"488 387 OFFCURVE",
"494 387 CURVE SMOOTH",
"566 387 LINE SMOOTH",
"572 387 OFFCURVE",
"576 391 OFFCURVE",
"575 397 CURVE SMOOTH",
"565 498 OFFCURVE",
"487 563 OFFCURVE",
"367 563 CURVE SMOOTH",
"185 563 OFFCURVE",
"43 403 OFFCURVE",
"43 217 CURVE SMOOTH",
"43 82 OFFCURVE",
"128 -10 OFFCURVE",
"265 -10 CURVE SMOOTH",
"385 -10 OFFCURVE"
);
}
);
width = 602;
},
{
anchors = (
{
name = bottom;
position = "{266, 0}";
},
{
name = top;
position = "{362, 549}";
}
);
layerId = "2F4EEC1B-9E89-4E08-AD53-AB625B6E887D";
paths = (
{
closed = 1;
nodes = (
"480 56 OFFCURVE",
"525 161 CURVE SMOOTH",
"528 168 OFFCURVE",
"524 173 OFFCURVE",
"517 173 CURVE SMOOTH",
"467 173 LINE SMOOTH",
"462 173 OFFCURVE",
"458 171 OFFCURVE",
"456 165 CURVE SMOOTH",
"425 95 OFFCURVE",
"353 48 OFFCURVE",
"270 48 CURVE SMOOTH",
"171 48 OFFCURVE",
"108 119 OFFCURVE",
"108 226 CURVE SMOOTH",
"108 368 OFFCURVE",
"213 501 OFFCURVE",
"350 501 CURVE SMOOTH",
"426 501 OFFCURVE",
"481 461 OFFCURVE",
"493 398 CURVE SMOOTH",
"494 392 OFFCURVE",
"497 389 OFFCURVE",
"503 389 CURVE SMOOTH",
"554 389 LINE SMOOTH",
"560 389 OFFCURVE",
"564 393 OFFCURVE",
"563 399 CURVE SMOOTH",
"552 497 OFFCURVE",
"475 559 OFFCURVE",
"360 559 CURVE SMOOTH",
"183 559 OFFCURVE",
"43 397 OFFCURVE",
"43 216 CURVE SMOOTH",
"43 82 OFFCURVE",
"127 -10 OFFCURVE",
"260 -10 CURVE SMOOTH",
"377 -10 OFFCURVE"
);
}
);
width = 591;
}
);
leftKerningGroup = c;
note = c;
rightKerningGroup = c;
unicode = 0063;
},
{
color = 1;
glyphname = d;
lastChange = "2020-04-15 13:19:31 +0000";
layers = (
{
anchors = (
{
name = bottom;
position = "{288, 0}";
},
{
name = center;
position = "{511, 671}";
},
{
name = top;
position = "{423, 763}";
},
{
name = topright;
position = "{694, 567}";
}
);
guideLines = (
{
angle = 270;
position = "{302, 0}";
}
);
layerId = "FD6EB2BB-8839-4CDB-86BF-4EEAE3F02079";
paths = (
{
closed = 1;
nodes = (
"316 -2 OFFCURVE",
"354 29 CURVE SMOOTH",
"372 43 OFFCURVE",
"383 41 OFFCURVE",
"380 23 CURVE SMOOTH",
"380 22 LINE SMOOTH",
"378 8 OFFCURVE",
"385 0 OFFCURVE",
"398 0 CURVE SMOOTH",
"526 0 LINE SMOOTH",
"538 0 OFFCURVE",
"545 6 OFFCURVE",
"547 18 CURVE SMOOTH",
"675 741 LINE SMOOTH",
"677 754 OFFCURVE",
"670 763 OFFCURVE",
"657 763 CURVE SMOOTH",
"529 763 LINE SMOOTH",
"517 763 OFFCURVE",
"510 757 OFFCURVE",
"508 745 CURVE SMOOTH",
"471 538 LINE SMOOTH",
"468 520 OFFCURVE",
"458 520 OFFCURVE",
"447 534 CURVE SMOOTH",
"420 568 OFFCURVE",
"382 579 OFFCURVE",
"333 579 CURVE SMOOTH",
"155 579 OFFCURVE",
"27 400 OFFCURVE",
"27 213 CURVE SMOOTH",
"27 78 OFFCURVE",
"105 -12 OFFCURVE",
"229 -12 CURVE SMOOTH",
"276 -12 OFFCURVE"
);
},
{
closed = 1;
nodes = (
"200 176 OFFCURVE",
"200 245 CURVE SMOOTH",
"200 339 OFFCURVE",
"261 436 OFFCURVE",
"355 436 CURVE SMOOTH",
"418 436 OFFCURVE",
"456 392 OFFCURVE",
"456 323 CURVE SMOOTH",
"456 229 OFFCURVE",
"396 131 OFFCURVE",
"301 131 CURVE SMOOTH",
"237 131 OFFCURVE"
);
}
);
width = 649;
},
{
anchors = (
{
name = bottom;
position = "{279, 0}";
},
{
name = center;
position = "{513, 671}";
},
{
name = top;
position = "{414, 763}";
},
{
name = topright;
position = "{673, 553}";
}
);
layerId = "11907447-A26F-432E-A335-7727E0303767";
paths = (
{
closed = 1;
nodes = (
"365 10 OFFCURVE",
"424 67 CURVE SMOOTH",
"433 75 OFFCURVE",
"441 74 OFFCURVE",
"439 65 CURVE SMOOTH",
"430 11 LINE SMOOTH",
"429 5 OFFCURVE",
"432 0 OFFCURVE",
"439 0 CURVE SMOOTH",
"504 0 LINE SMOOTH",
"510 0 OFFCURVE",
"514 3 OFFCURVE",
"515 9 CURVE SMOOTH",
"646 752 LINE SMOOTH",
"647 758 OFFCURVE",
"644 763 OFFCURVE",
"637 763 CURVE SMOOTH",
"572 763 LINE SMOOTH",
"566 763 OFFCURVE",
"562 760 OFFCURVE",
"561 754 CURVE SMOOTH",
"514 485 LINE SMOOTH",
"512 476 OFFCURVE",
"506 475 OFFCURVE",
"501 483 CURVE SMOOTH",
"460 544 OFFCURVE",
"416 563 OFFCURVE",
"347 563 CURVE SMOOTH",
"166 563 OFFCURVE",
"44 392 OFFCURVE",
"44 206 CURVE SMOOTH",
"44 76 OFFCURVE",
"118 -10 OFFCURVE",
"245 -10 CURVE SMOOTH",
"314 -10 OFFCURVE"
);
},
{
closed = 1;
nodes = (
"130 130 OFFCURVE",
"130 223 CURVE SMOOTH",
"130 353 OFFCURVE",
"214 488 OFFCURVE",
"341 488 CURVE SMOOTH",
"429 488 OFFCURVE",
"485 422 OFFCURVE",
"485 326 CURVE SMOOTH",
"485 194 OFFCURVE",
"392 65 OFFCURVE",
"267 65 CURVE SMOOTH",
"179 65 OFFCURVE"
);
}
);
width = 634;
},
{
anchors = (
{
name = bottom;
position = "{275, 0}";
},
{
name = center;
position = "{513, 671}";
},
{
name = top;
position = "{409, 763}";
},
{
name = topright;
position = "{663, 549}";
}
);
layerId = "2F4EEC1B-9E89-4E08-AD53-AB625B6E887D";
paths = (
{
closed = 1;
nodes = (
"381 25 OFFCURVE",
"439 84 CURVE SMOOTH",
"447 92 OFFCURVE",
"454 89 OFFCURVE",
"452 80 CURVE SMOOTH",
"440 11 LINE SMOOTH",
"439 5 OFFCURVE",
"442 0 OFFCURVE",
"449 0 CURVE SMOOTH",
"494 0 LINE SMOOTH",
"500 0 OFFCURVE",
"504 3 OFFCURVE",
"505 9 CURVE SMOOTH",
"635 752 LINE SMOOTH",
"636 758 OFFCURVE",
"633 763 OFFCURVE",
"626 763 CURVE SMOOTH",
"581 763 LINE SMOOTH",
"575 763 OFFCURVE",
"571 760 OFFCURVE",
"570 754 CURVE SMOOTH",
"519 466 LINE SMOOTH",
"517 456 OFFCURVE",
"512 456 OFFCURVE",
"507 464 CURVE SMOOTH",
"470 525 OFFCURVE",
"414 559 OFFCURVE",
"340 559 CURVE SMOOTH",
"167 559 OFFCURVE",
"44 388 OFFCURVE",
"44 207 CURVE SMOOTH",
"44 77 OFFCURVE",
"117 -10 OFFCURVE",
"240 -10 CURVE SMOOTH",
"314 -10 OFFCURVE"
);
},
{
closed = 1;
nodes = (
"110 118 OFFCURVE",
"110 217 CURVE SMOOTH",
"110 356 OFFCURVE",
"199 501 OFFCURVE",
"336 501 CURVE SMOOTH",
"432 501 OFFCURVE",
"493 429 OFFCURVE",
"493 325 CURVE SMOOTH",
"493 185 OFFCURVE",
"390 48 OFFCURVE",
"256 48 CURVE SMOOTH",
"161 48 OFFCURVE"
);
}
);
width = 623;
}
);
leftKerningGroup = c;
note = d;
rightKerningGroup = d;
unicode = 0064;
},
{
color = 1;
glyphname = eth;
lastChange = "2020-04-15 13:20:54 +0000";
layers = (
{
layerId = "2F4EEC1B-9E89-4E08-AD53-AB625B6E887D";
paths = (
{
closed = 1;
nodes = (
"455 -10 OFFCURVE",
"576 237 OFFCURVE",
"576 504 CURVE SMOOTH",
"576 567 OFFCURVE",
"565 623 OFFCURVE",
"543 668 CURVE SMOOTH",
"540 674 OFFCURVE",
"542 679 OFFCURVE",
"547 682 CURVE SMOOTH",
"605 712 LINE SMOOTH",
"610 715 OFFCURVE",
"611 720 OFFCURVE",
"609 725 CURVE SMOOTH",
"601 746 LINE SMOOTH",
"599 752 OFFCURVE",
"594 754 OFFCURVE",
"588 751 CURVE SMOOTH",
"522 716 LINE SMOOTH",
"517 713 OFFCURVE",
"512 714 OFFCURVE",
"508 718 CURVE SMOOTH",
"473 751 OFFCURVE",
"425 771 OFFCURVE",
"360 771 CURVE SMOOTH",
"308 771 OFFCURVE",
"259 759 OFFCURVE",
"219 737 CURVE SMOOTH",
"214 734 OFFCURVE",
"213 728 OFFCURVE",
"215 723 CURVE SMOOTH",
"230 691 LINE SMOOTH",
"233 685 OFFCURVE",
"237 684 OFFCURVE",
"243 687 CURVE SMOOTH",
"303 719 OFFCURVE",
"385 726 OFFCURVE",
"440 686 CURVE SMOOTH",
"446 682 OFFCURVE",
"445 675 OFFCURVE",
"439 672 CURVE SMOOTH",
"293 597 LINE SMOOTH",
"288 594 OFFCURVE",
"287 589 OFFCURVE",
"289 584 CURVE SMOOTH",
"297 563 LINE SMOOTH",
"299 557 OFFCURVE",
"304 555 OFFCURVE",
"310 558 CURVE SMOOTH",
"472 642 LINE SMOOTH",
"477 645 OFFCURVE",
"483 643 OFFCURVE",
"486 638 CURVE SMOOTH",
"519 578 OFFCURVE",
"518 470 OFFCURVE",
"503 386 CURVE SMOOTH",
"501 378 OFFCURVE",
"498 378 OFFCURVE",
"494 385 CURVE SMOOTH",
"466 443 OFFCURVE",
"400 487 OFFCURVE",
"308 487 CURVE SMOOTH",
"147 487 OFFCURVE",
"26 353 OFFCURVE",
"26 192 CURVE SMOOTH",
"26 75 OFFCURVE",
"100 -10 OFFCURVE",
"223 -10 CURVE SMOOTH"
);
},
{
closed = 1;
nodes = (
"144 48 OFFCURVE",
"92 115 OFFCURVE",
"92 203 CURVE SMOOTH",
"92 324 OFFCURVE",
"183 429 OFFCURVE",
"301 429 CURVE SMOOTH",
"398 429 OFFCURVE",
"463 365 OFFCURVE",
"463 277 CURVE SMOOTH",
"463 159 OFFCURVE",
"361 48 OFFCURVE",
"234 48 CURVE SMOOTH"
);
}
);
width = 600;
},
{
layerId = "11907447-A26F-432E-A335-7727E0303767";
paths = (
{
closed = 1;
nodes = (
"462 -9 OFFCURVE",
"583 238 OFFCURVE",
"583 504 CURVE SMOOTH",
"583 566 OFFCURVE",
"573 620 OFFCURVE",
"552 663 CURVE SMOOTH",
"550 669 OFFCURVE",
"552 674 OFFCURVE",
"557 677 CURVE SMOOTH",
"608 704 LINE SMOOTH",
"613 707 OFFCURVE",
"614 712 OFFCURVE",
"612 717 CURVE SMOOTH",
"598 753 LINE SMOOTH",
"596 759 OFFCURVE",
"591 761 OFFCURVE",
"585 758 CURVE SMOOTH",
"519 724 LINE SMOOTH",
"514 722 OFFCURVE",
"509 722 OFFCURVE",
"505 726 CURVE SMOOTH",
"470 755 OFFCURVE",
"424 772 OFFCURVE",
"362 772 CURVE SMOOTH",
"312 772 OFFCURVE",
"266 762 OFFCURVE",
"229 744 CURVE SMOOTH",
"223 741 OFFCURVE",
"221 735 OFFCURVE",
"224 730 CURVE SMOOTH",
"249 681 LINE SMOOTH",
"252 675 OFFCURVE",
"256 674 OFFCURVE",
"262 677 CURVE SMOOTH",
"310 701 OFFCURVE",
"368 705 OFFCURVE",
"414 683 CURVE SMOOTH",
"421 679 OFFCURVE",
"421 673 OFFCURVE",
"414 669 CURVE SMOOTH",
"290 604 LINE SMOOTH",
"285 601 OFFCURVE",
"284 596 OFFCURVE",
"286 591 CURVE SMOOTH",
"300 555 LINE SMOOTH",
"302 549 OFFCURVE",
"307 547 OFFCURVE",
"313 550 CURVE SMOOTH",
"463 627 LINE SMOOTH",
"468 630 OFFCURVE",
"474 629 OFFCURVE",
"477 623 CURVE SMOOTH",
"504 570 OFFCURVE",
"504 486 OFFCURVE",
"493 410 CURVE SMOOTH",
"492 401 OFFCURVE",
"487 400 OFFCURVE",
"482 408 CURVE SMOOTH",
"442 464 OFFCURVE",
"382 492 OFFCURVE",
"311 492 CURVE SMOOTH",
"144 492 OFFCURVE",
"22 359 OFFCURVE",
"22 194 CURVE SMOOTH",
"22 75 OFFCURVE",
"100 -9 OFFCURVE",
"227 -9 CURVE SMOOTH"
);
},
{
closed = 1;
nodes = (
"157 66 OFFCURVE",
"109 130 OFFCURVE",
"109 211 CURVE SMOOTH",
"109 320 OFFCURVE",
"192 417 OFFCURVE",
"306 417 CURVE SMOOTH",
"392 417 OFFCURVE",
"449 359 OFFCURVE",
"449 280 CURVE SMOOTH",
"449 170 OFFCURVE",
"357 66 OFFCURVE",
"241 66 CURVE SMOOTH"
);
}
);
width = 605;
},
{
layerId = "FD6EB2BB-8839-4CDB-86BF-4EEAE3F02079";
paths = (
{
closed = 1;
nodes = (
"480 -17 OFFCURVE",
"609 225 OFFCURVE",
"609 484 CURVE SMOOTH",
"609 556 OFFCURVE",
"595 614 OFFCURVE",
"569 660 CURVE SMOOTH",
"562 671 OFFCURVE",
"565 681 OFFCURVE",
"576 687 CURVE SMOOTH",
"600 699 LINE SMOOTH",
"611 705 OFFCURVE",
"615 715 OFFCURVE",
"610 726 CURVE SMOOTH",
"603 743 LINE SMOOTH",
"598 755 OFFCURVE",
"588 759 OFFCURVE",
"576 753 CURVE SMOOTH",
"530 729 LINE SMOOTH",
"520 724 OFFCURVE",
"511 725 OFFCURVE",
"502 732 CURVE SMOOTH",
"458 763 OFFCURVE",
"400 779 OFFCURVE",
"331 779 CURVE SMOOTH",
"287 779 OFFCURVE",
"241 775 OFFCURVE",
"189 761 CURVE SMOOTH",
"176 757 OFFCURVE",
"172 749 OFFCURVE",
"176 736 CURVE SMOOTH",
"208 640 LINE SMOOTH",
"212 628 OFFCURVE",
"220 624 OFFCURVE",
"233 627 CURVE SMOOTH",
"252 631 OFFCURVE",
"274 633 OFFCURVE",
"295 634 CURVE SMOOTH",
"315 634 OFFCURVE",
"316 617 OFFCURVE",
"309 612 CURVE SMOOTH",
"300 606 LINE SMOOTH",
"289 599 OFFCURVE",
"286 591 OFFCURVE",
"290 582 CURVE SMOOTH",
"297 565 LINE SMOOTH",
"302 553 OFFCURVE",
"312 549 OFFCURVE",
"324 555 CURVE SMOOTH",
"394 592 LINE SMOOTH",
"404 597 OFFCURVE",
"413 596 OFFCURVE",
"421 587 CURVE SMOOTH",
"449 555 OFFCURVE",
"459 516 OFFCURVE",
"455 473 CURVE SMOOTH",
"454 457 OFFCURVE",
"444 455 OFFCURVE",
"432 466 CURVE SMOOTH",
"394 500 OFFCURVE",
"344 511 OFFCURVE",
"301 511 CURVE SMOOTH",
"126 511 OFFCURVE",
"5 375 OFFCURVE",
"5 201 CURVE SMOOTH",
"5 68 OFFCURVE",
"96 -17 OFFCURVE",
"236 -17 CURVE SMOOTH"
);
},
{
closed = 1;
nodes = (
"208 138 OFFCURVE",
"168 179 OFFCURVE",
"168 237 CURVE SMOOTH",
"168 312 OFFCURVE",
"234 377 OFFCURVE",
"308 377 CURVE SMOOTH",
"368 377 OFFCURVE",
"409 335 OFFCURVE",
"409 280 CURVE SMOOTH",
"409 208 OFFCURVE",
"344 138 OFFCURVE",
"266 138 CURVE SMOOTH"
);
}
);
width = 620;
}
);
unicode = 00F0;
},
{
color = 1;
glyphname = e;
lastChange = "2020-04-16 06:40:08 +0000";
layers = (
{
anchors = (
{
name = bottom;
position = "{275, 0}";
},
{
name = ogonek;
position = "{466, 44}";
},
{
name = top;
position = "{375, 567}";
}
);
background = {
paths = (
{
closed = 1;
nodes = (
"488 -12 OFFCURVE",
"575 84 OFFCURVE",
"607 196 CURVE",
"438 196 LINE",
"424 161 OFFCURVE",
"388 132 OFFCURVE",
"337 132 CURVE SMOOTH",
"295 132 OFFCURVE",
"261 145 OFFCURVE",
"237 175 CURVE SMOOTH",
"214 203 OFFCURVE",
"219 231 OFFCURVE",
"197 237 CURVE",
"201 248 LINE",
"616 248 LINE",
"616 277 LINE SMOOTH",
"616 496 OFFCURVE",
"472 579 OFFCURVE",
"323 579 CURVE SMOOTH",
"118 579 OFFCURVE",
"32 423 OFFCURVE",
"32 279 CURVE SMOOTH",
"32 111 OFFCURVE",
"148 -12 OFFCURVE",
"328 -12 CURVE SMOOTH"
);
},
{
closed = 1;
nodes = (
"203 370 LINE",
"223 376 OFFCURVE",
"211 390 OFFCURVE",
"239 418 CURVE SMOOTH",
"263 442 OFFCURVE",
"295 451 OFFCURVE",
"329 451 CURVE SMOOTH",
"363 451 OFFCURVE",
"395 442 OFFCURVE",
"419 418 CURVE SMOOTH",
"447 390 OFFCURVE",
"435 376 OFFCURVE",
"455 370 CURVE",
"454 367 LINE",
"204 367 LINE"
);
}
);
};
layerId = "FD6EB2BB-8839-4CDB-86BF-4EEAE3F02079";
paths = (
{
closed = 1;
nodes = (
"427 -12 OFFCURVE",
"528 73 OFFCURVE",
"583 177 CURVE SMOOTH",
"588 188 OFFCURVE",
"580 196 OFFCURVE",
"565 196 CURVE SMOOTH",
"439 196 LINE SMOOTH",
"429 196 OFFCURVE",
"421 192 OFFCURVE",
"414 183 CURVE SMOOTH",
"392 154 OFFCURVE",
"355 132 OFFCURVE",
"310 132 CURVE SMOOTH",
"239 132 OFFCURVE",
"202 171 OFFCURVE",
"202 237 CURVE SMOOTH",
"202 246 OFFCURVE",
"209 248 OFFCURVE",
"222 248 CURVE SMOOTH",
"592 248 LINE SMOOTH",
"604 248 OFFCURVE",
"611 254 OFFCURVE",
"613 267 CURVE SMOOTH",
"619 302 OFFCURVE",
"622 325 OFFCURVE",
"622 350 CURVE SMOOTH",
"622 515 OFFCURVE",
"506 579 OFFCURVE",
"375 579 CURVE SMOOTH",
"178 579 OFFCURVE",
"26 416 OFFCURVE",
"26 221 CURVE SMOOTH",
"26 83 OFFCURVE",
"118 -12 OFFCURVE",
"276 -12 CURVE SMOOTH"
);
},
{
closed = 1;
nodes = (
"239 367 OFFCURVE",
"230 377 OFFCURVE",
"238 390 CURVE SMOOTH",
"244 399 OFFCURVE",
"252 409 OFFCURVE",
"263 418 CURVE SMOOTH",
"291 442 OFFCURVE",
"325 451 OFFCURVE",
"359 451 CURVE SMOOTH",
"393 451 OFFCURVE",
"423 442 OFFCURVE",
"443 418 CURVE SMOOTH",
"451 408 OFFCURVE",
"455 398 OFFCURVE",
"458 388 CURVE SMOOTH",
"461 375 OFFCURVE",
"452 367 OFFCURVE",
"439 367 CURVE SMOOTH",
"254 367 LINE SMOOTH"
);
}
);
width = 648;
},
{
anchors = (
{
name = bottom;
position = "{265, 0}";
},
{
name = ogonek;
position = "{440, 44}";
},
{
name = top;
position = "{363, 553}";
}
);
background = {
paths = (
{
closed = 1;
nodes = (
"454 -10 OFFCURVE",
"538 74 OFFCURVE",
"572 178 CURVE",
"481 178 LINE",
"457 117 OFFCURVE",
"400 65 OFFCURVE",
"316 65 CURVE SMOOTH",
"236 65 OFFCURVE",
"171 120 OFFCURVE",
"143 205 CURVE SMOOTH",
"134 232 OFFCURVE",
"137 243 OFFCURVE",
"119 246 CURVE",
"122 262 LINE",
"100 260 LINE",
"582 260 LINE",
"582 290 LINE SMOOTH",
"582 468 OFFCURVE",
"454 563 OFFCURVE",
"315 563 CURVE SMOOTH",
"144 563 OFFCURVE",
"48 425 OFFCURVE",
"48 275 CURVE SMOOTH",
"48 112 OFFCURVE",
"158 -10 OFFCURVE",
"317 -10 CURVE SMOOTH"
);
},
{
closed = 1;
nodes = (
"128 328 LINE",
"154 348 OFFCURVE",
"137 350 OFFCURVE",
"156 389 CURVE SMOOTH",
"186 452 OFFCURVE",
"243 488 OFFCURVE",
"317 488 CURVE SMOOTH",
"388 488 OFFCURVE",
"450 453 OFFCURVE",
"479 389 CURVE SMOOTH",
"497 350 OFFCURVE",
"481 348 OFFCURVE",
"506 328 CURVE",
"495 316 LINE",
"525 335 LINE",
"114 335 LINE",
"139 316 LINE"
);
}
);
};
layerId = "11907447-A26F-432E-A335-7727E0303767";
paths = (
{
closed = 1;
nodes = (
"398 -10 OFFCURVE",
"495 68 OFFCURVE",
"550 168 CURVE SMOOTH",
"553 174 OFFCURVE",
"548 178 OFFCURVE",
"541 178 CURVE SMOOTH",
"472 178 LINE SMOOTH",
"467 178 OFFCURVE",
"463 176 OFFCURVE",
"460 171 CURVE SMOOTH",
"424 113 OFFCURVE",
"360 65 OFFCURVE",
"279 65 CURVE SMOOTH",
"186 65 OFFCURVE",
"128 142 OFFCURVE",
"128 235 CURVE SMOOTH",
"128 249 OFFCURVE",
"126 260 OFFCURVE",
"139 260 CURVE SMOOTH",
"570 260 LINE SMOOTH",
"576 260 OFFCURVE",
"580 263 OFFCURVE",
"581 269 CURVE SMOOTH",
"586 305 OFFCURVE",
"589 326 OFFCURVE",
"590 349 CURVE SMOOTH",
"590 489 OFFCURVE",
"489 563 OFFCURVE",
"366 563 CURVE SMOOTH",
"183 563 OFFCURVE",
"43 398 OFFCURVE",
"43 215 CURVE SMOOTH",
"43 83 OFFCURVE",
"127 -10 OFFCURVE",
"266 -10 CURVE SMOOTH"
);
},
{
closed = 1;
nodes = (
"155 335 OFFCURVE",
"152 340 OFFCURVE",
"154 347 CURVE SMOOTH",
"160 361 OFFCURVE",
"167 376 OFFCURVE",
"176 389 CURVE SMOOTH",
"217 452 OFFCURVE",
"280 488 OFFCURVE",
"354 488 CURVE SMOOTH",
"437 488 OFFCURVE",
"502 438 OFFCURVE",
"502 358 CURVE SMOOTH",
"502 353 OFFCURVE",
"502 349 OFFCURVE",
"502 345 CURVE SMOOTH",
"502 338 OFFCURVE",
"497 335 OFFCURVE",
"491 335 CURVE SMOOTH",
"162 335 LINE SMOOTH"
);
}
);
width = 629;
},
{
anchors = (
{
name = bottom;
position = "{260, 0}";
},
{
name = ogonek;
position = "{431, 44}";
},
{
name = top;
position = "{356, 549}";
}
);
background = {
paths = (
{
closed = 1;
nodes = (
"442 -10 OFFCURVE",
"526 71 OFFCURVE",
"558 173 CURVE",
"489 173 LINE",
"464 104 OFFCURVE",
"401 48 OFFCURVE",
"310 48 CURVE SMOOTH",
"226 48 OFFCURVE",
"157 101 OFFCURVE",
"128 187 CURVE SMOOTH",
"116 222 OFFCURVE",
"119 245 OFFCURVE",
"100 250 CURVE",
"104 265 LINE",
"83 263 LINE",
"570 263 LINE",
"570 274 OFFCURVE",
"570 284 OFFCURVE",
"569 293 CURVE SMOOTH",
"560 461 OFFCURVE",
"446 559 OFFCURVE",
"309 559 CURVE SMOOTH",
"147 559 OFFCURVE",
"48 426 OFFCURVE",
"48 274 CURVE SMOOTH",
"48 112 OFFCURVE",
"157 -10 OFFCURVE",
"310 -10 CURVE SMOOTH"
);
},
{
closed = 1;
nodes = (
"108 317 LINE",
"122 329 OFFCURVE",
"120 352 OFFCURVE",
"136 388 CURVE SMOOTH",
"167 459 OFFCURVE",
"230 501 OFFCURVE",
"310 501 CURVE SMOOTH",
"389 501 OFFCURVE",
"458 458 OFFCURVE",
"489 384 CURVE SMOOTH",
"503 350 OFFCURVE",
"501 329 OFFCURVE",
"514 317 CURVE",
"504 303 LINE",
"537 316 LINE",
"78 316 LINE",
"117 303 LINE"
);
}
);
};
layerId = "2F4EEC1B-9E89-4E08-AD53-AB625B6E887D";
paths = (
{
closed = 1;
nodes = (
"387 -10 OFFCURVE",
"483 66 OFFCURVE",
"535 163 CURVE SMOOTH",
"538 169 OFFCURVE",
"534 173 OFFCURVE",
"527 173 CURVE SMOOTH",
"479 173 LINE SMOOTH",
"474 173 OFFCURVE",
"470 171 OFFCURVE",
"467 166 CURVE SMOOTH",
"429 100 OFFCURVE",
"358 48 OFFCURVE",
"270 48 CURVE SMOOTH",
"166 48 OFFCURVE",
"108 128 OFFCURVE",
"108 233 CURVE SMOOTH",
"108 251 OFFCURVE",
"107 263 OFFCURVE",
"120 263 CURVE SMOOTH",
"559 263 LINE SMOOTH",
"565 263 OFFCURVE",
"569 266 OFFCURVE",
"570 272 CURVE SMOOTH",
"573 292 OFFCURVE",
"575 316 OFFCURVE",
"575 332 CURVE SMOOTH",
"575 466 OFFCURVE",
"498 559 OFFCURVE",
"359 559 CURVE SMOOTH",
"181 559 OFFCURVE",
"43 393 OFFCURVE",
"43 214 CURVE SMOOTH",
"43 83 OFFCURVE",
"127 -10 OFFCURVE",
"260 -10 CURVE SMOOTH"
);
},
{
closed = 1;
nodes = (
"128 316 OFFCURVE",
"124 320 OFFCURVE",
"127 327 CURVE SMOOTH",
"134 347 OFFCURVE",
"144 370 OFFCURVE",
"156 388 CURVE SMOOTH",
"200 459 OFFCURVE",
"270 501 OFFCURVE",
"350 501 CURVE SMOOTH",
"447 501 OFFCURVE",
"514 436 OFFCURVE",
"514 332 CURVE SMOOTH",
"514 330 OFFCURVE",
"514 328 OFFCURVE",
"514 326 CURVE SMOOTH",
"514 320 OFFCURVE",
"510 316 OFFCURVE",
"504 316 CURVE SMOOTH",
"135 316 LINE SMOOTH"
);
}
);
width = 617;
}
);
leftKerningGroup = c;
note = e;
rightKerningGroup = o;
unicode = 0065;
},
{
color = 1;
glyphname = f;
lastChange = "2020-04-15 13:22:00 +0000";
layers = (
{
anchors = (
{
name = bottom;
position = "{138, 0}";
},
{
name = top;
position = "{273, 763}";
}
);
layerId = "FD6EB2BB-8839-4CDB-86BF-4EEAE3F02079";
paths = (
{
closed = 1;
nodes = (
"296 419 LINE SMOOTH",
"298 431 OFFCURVE",
"305 437 OFFCURVE",
"317 437 CURVE SMOOTH",
"366 437 LINE SMOOTH",
"378 437 OFFCURVE",
"385 443 OFFCURVE",
"387 455 CURVE SMOOTH",
"403 545 LINE SMOOTH",
"405 558 OFFCURVE",
"398 567 OFFCURVE",
"385 567 CURVE SMOOTH",
"344 567 LINE SMOOTH",
"331 567 OFFCURVE",
"324 576 OFFCURVE",
"326 589 CURVE SMOOTH",
"327 597 LINE SMOOTH",
"333 628 OFFCURVE",
"354 634 OFFCURVE",
"367 634 CURVE SMOOTH",
"401 634 LINE SMOOTH",
"413 634 OFFCURVE",
"420 640 OFFCURVE",
"422 652 CURVE SMOOTH",
"438 741 LINE SMOOTH",
"440 755 OFFCURVE",
"433 763 OFFCURVE",
"420 763 CURVE SMOOTH",
"349 763 LINE SMOOTH",
"245 763 OFFCURVE",
"177 711 OFFCURVE",
"162 622 CURVE SMOOTH",
"155 585 LINE SMOOTH",
"153 573 OFFCURVE",
"146 567 OFFCURVE",
"134 567 CURVE SMOOTH",
"89 567 LINE SMOOTH",
"77 567 OFFCURVE",
"70 561 OFFCURVE",
"68 549 CURVE SMOOTH",
"52 459 LINE SMOOTH",
"50 446 OFFCURVE",
"57 437 OFFCURVE",
"70 437 CURVE SMOOTH",
"107 437 LINE SMOOTH",
"120 437 OFFCURVE",
"127 428 OFFCURVE",
"125 415 CURVE SMOOTH",
"56 22 LINE SMOOTH",
"54 9 OFFCURVE",
"61 0 OFFCURVE",
"74 0 CURVE SMOOTH",
"204 0 LINE SMOOTH",
"216 0 OFFCURVE",
"223 6 OFFCURVE",
"225 18 CURVE SMOOTH"
);
}
);
width = 378;
},
{
anchors = (
{
name = bottom;
position = "{128, 0}";
},
{
name = top;
position = "{263, 763}";
}
);
layerId = "11907447-A26F-432E-A335-7727E0303767";
paths = (
{
closed = 1;
nodes = (
"237 469 LINE SMOOTH",
"238 475 OFFCURVE",
"242 478 OFFCURVE",
"248 478 CURVE SMOOTH",
"359 478 LINE SMOOTH",
"365 478 OFFCURVE",
"369 481 OFFCURVE",
"370 487 CURVE SMOOTH",
"379 542 LINE SMOOTH",
"380 548 OFFCURVE",
"377 553 OFFCURVE",
"370 553 CURVE SMOOTH",
"263 553 LINE SMOOTH",
"257 553 OFFCURVE",
"253 558 OFFCURVE",
"254 564 CURVE SMOOTH",
"260 602 LINE SMOOTH",
"271 661 OFFCURVE",
"300 688 OFFCURVE",
"353 688 CURVE SMOOTH",
"396 688 LINE SMOOTH",
"402 688 OFFCURVE",
"406 691 OFFCURVE",
"407 697 CURVE SMOOTH",
"416 752 LINE SMOOTH",
"417 758 OFFCURVE",
"414 763 OFFCURVE",
"407 763 CURVE SMOOTH",
"347 763 LINE SMOOTH",
"252 763 OFFCURVE",
"195 711 OFFCURVE",
"177 613 CURVE SMOOTH",
"169 562 LINE SMOOTH",
"168 556 OFFCURVE",
"164 553 OFFCURVE",
"158 553 CURVE SMOOTH",
"84 553 LINE SMOOTH",
"78 553 OFFCURVE",
"74 550 OFFCURVE",
"73 544 CURVE SMOOTH",
"64 489 LINE SMOOTH",
"63 483 OFFCURVE",
"66 478 OFFCURVE",
"73 478 CURVE SMOOTH",
"143 478 LINE SMOOTH",
"150 478 OFFCURVE",
"153 473 OFFCURVE",
"152 467 CURVE SMOOTH",
"71 11 LINE SMOOTH",
"70 5 OFFCURVE",
"73 0 OFFCURVE",
"80 0 CURVE SMOOTH",
"145 0 LINE SMOOTH",
"151 0 OFFCURVE",
"155 3 OFFCURVE",
"156 9 CURVE SMOOTH"
);
}
);
width = 353;
},
{
anchors = (
{
name = bottom;
position = "{124, 0}";
},
{
name = top;
position = "{258, 763}";
}
);
layerId = "2F4EEC1B-9E89-4E08-AD53-AB625B6E887D";
paths = (
{
closed = 1;
nodes = (
"219 482 LINE SMOOTH",
"220 488 OFFCURVE",
"224 491 OFFCURVE",
"230 491 CURVE SMOOTH",
"351 491 LINE SMOOTH",
"357 491 OFFCURVE",
"361 494 OFFCURVE",
"362 500 CURVE SMOOTH",
"368 538 LINE SMOOTH",
"369 544 OFFCURVE",
"366 549 OFFCURVE",
"359 549 CURVE SMOOTH",
"242 549 LINE SMOOTH",
"235 549 OFFCURVE",
"232 554 OFFCURVE",
"233 560 CURVE SMOOTH",
"244 618 LINE SMOOTH",
"256 690 OFFCURVE",
"295 705 OFFCURVE",
"346 705 CURVE SMOOTH",
"389 705 LINE SMOOTH",
"395 705 OFFCURVE",
"399 708 OFFCURVE",
"400 714 CURVE SMOOTH",
"406 752 LINE SMOOTH",
"407 758 OFFCURVE",
"404 763 OFFCURVE",
"397 763 CURVE SMOOTH",
"342 763 LINE SMOOTH",
"250 763 OFFCURVE",
"195 711 OFFCURVE",
"177 611 CURVE SMOOTH",
"168 558 LINE SMOOTH",
"167 552 OFFCURVE",
"163 549 OFFCURVE",
"157 549 CURVE SMOOTH",
"83 549 LINE SMOOTH",
"77 549 OFFCURVE",
"73 546 OFFCURVE",
"72 540 CURVE SMOOTH",
"66 502 LINE SMOOTH",
"65 496 OFFCURVE",
"68 491 OFFCURVE",
"75 491 CURVE SMOOTH",
"145 491 LINE SMOOTH",
"152 491 OFFCURVE",
"155 486 OFFCURVE",
"154 480 CURVE SMOOTH",
"72 11 LINE SMOOTH",
"71 5 OFFCURVE",
"74 0 OFFCURVE",
"81 0 CURVE SMOOTH",
"126 0 LINE SMOOTH",
"132 0 OFFCURVE",
"136 3 OFFCURVE",
"137 9 CURVE SMOOTH"
);
}
);
width = 343;
}
);
leftKerningGroup = f;
note = f;
rightKerningGroup = f;
unicode = 0066;
},
{
color = 1;
glyphname = g;
lastChange = "2020-04-15 13:24:32 +0000";
layers = (
{
anchors = (
{
name = bottom;
position = "{233, -237}";
},
{
name = top;
position = "{375, 567}";
}
);
guideLines = (
{
angle = 270;
position = "{592, 567}";
}
);
layerId = "FD6EB2BB-8839-4CDB-86BF-4EEAE3F02079";
paths = (
{
closed = 1;
nodes = (
"517 -153 OFFCURVE",
"553 48 CURVE SMOOTH",
"641 545 LINE SMOOTH",
"643 558 OFFCURVE",
"636 567 OFFCURVE",
"623 567 CURVE SMOOTH",
"495 567 LINE SMOOTH",
"483 567 OFFCURVE",
"476 562 OFFCURVE",
"474 549 CURVE SMOOTH",
"472 537 LINE SMOOTH",
"469 520 OFFCURVE",
"459 520 OFFCURVE",
"448 534 CURVE SMOOTH",
"421 568 OFFCURVE",
"383 579 OFFCURVE",
"334 579 CURVE SMOOTH",
"161 579 OFFCURVE",
"31 408 OFFCURVE",
"31 229 CURVE SMOOTH",
"31 99 OFFCURVE",
"108 8 OFFCURVE",
"233 8 CURVE SMOOTH",
"282 8 OFFCURVE",
"324 19 OFFCURVE",
"364 53 CURVE SMOOTH",
"378 65 OFFCURVE",
"387 62 OFFCURVE",
"384 43 CURVE SMOOTH",
"378 5 LINE SMOOTH",
"370 -42 OFFCURVE",
"332 -83 OFFCURVE",
"256 -83 CURVE SMOOTH",
"212 -83 OFFCURVE",
"185 -72 OFFCURVE",
"172 -37 CURVE SMOOTH",
"168 -26 OFFCURVE",
"160 -20 OFFCURVE",
"149 -20 CURVE SMOOTH",
"19 -20 LINE SMOOTH",
"6 -20 OFFCURVE",
"-1 -27 OFFCURVE",
"0 -41 CURVE SMOOTH",
"10 -176 OFFCURVE",
"123 -208 OFFCURVE",
"235 -208 CURVE SMOOTH",
"385 -208 OFFCURVE"
);
},
{
closed = 1;
nodes = (
"204 198 OFFCURVE",
"204 261 CURVE SMOOTH",
"204 348 OFFCURVE",
"266 436 OFFCURVE",
"356 436 CURVE SMOOTH",
"420 436 OFFCURVE",
"458 390 OFFCURVE",
"458 325 CURVE SMOOTH",
"458 238 OFFCURVE",
"395 151 OFFCURVE",
"306 151 CURVE SMOOTH",
"241 151 OFFCURVE"
);
}
);
width = 650;
},
{
anchors = (
{
name = bottom;
position = "{227, -237}";
},
{
name = top;
position = "{367, 553}";
}
);
layerId = "11907447-A26F-432E-A335-7727E0303767";
paths = (
{
closed = 1;
nodes = (
"487 -161 OFFCURVE",
"519 19 CURVE SMOOTH",
"611 542 LINE SMOOTH",
"612 548 OFFCURVE",
"609 553 OFFCURVE",
"602 553 CURVE SMOOTH",
"537 553 LINE SMOOTH",
"531 553 OFFCURVE",
"527 550 OFFCURVE",
"526 544 CURVE SMOOTH",
"516 485 LINE SMOOTH",
"515 476 OFFCURVE",
"508 475 OFFCURVE",
"503 482 CURVE SMOOTH",
"462 542 OFFCURVE",
"418 563 OFFCURVE",
"348 563 CURVE SMOOTH",
"168 563 OFFCURVE",
"46 390 OFFCURVE",
"46 205 CURVE SMOOTH",
"46 76 OFFCURVE",
"120 -10 OFFCURVE",
"247 -10 CURVE SMOOTH",
"316 -10 OFFCURVE",
"367 9 OFFCURVE",
"430 71 CURVE SMOOTH",
"437 78 OFFCURVE",
"443 74 OFFCURVE",
"441 65 CURVE SMOOTH",
"431 3 LINE SMOOTH",
"415 -89 OFFCURVE",
"356 -145 OFFCURVE",
"240 -145 CURVE SMOOTH",
"153 -145 OFFCURVE",
"108 -114 OFFCURVE",
"99 -54 CURVE SMOOTH",
"98 -48 OFFCURVE",
"95 -45 OFFCURVE",
"89 -45 CURVE SMOOTH",
"21 -45 LINE SMOOTH",
"15 -45 OFFCURVE",
"11 -49 OFFCURVE",
"11 -55 CURVE SMOOTH",
"16 -181 OFFCURVE",
"118 -220 OFFCURVE",
"227 -220 CURVE SMOOTH",
"372 -220 OFFCURVE"
);
},
{
closed = 1;
nodes = (
"132 130 OFFCURVE",
"132 224 CURVE SMOOTH",
"132 353 OFFCURVE",
"216 488 OFFCURVE",
"343 488 CURVE SMOOTH",
"431 488 OFFCURVE",
"487 422 OFFCURVE",
"487 326 CURVE SMOOTH",
"487 198 OFFCURVE",
"397 65 OFFCURVE",
"269 65 CURVE SMOOTH",
"181 65 OFFCURVE"
);
}
);
width = 635;
},
{
anchors = (
{
name = bottom;
position = "{221, -237}";
},
{
name = top;
position = "{370, 549}";
}
);
layerId = "2F4EEC1B-9E89-4E08-AD53-AB625B6E887D";
paths = (
{
closed = 1;
nodes = (
"475 -161 OFFCURVE",
"504 7 CURVE SMOOTH",
"597 538 LINE SMOOTH",
"598 544 OFFCURVE",
"595 549 OFFCURVE",
"588 549 CURVE SMOOTH",
"543 549 LINE SMOOTH",
"537 549 OFFCURVE",
"533 546 OFFCURVE",
"532 540 CURVE SMOOTH",
"519 466 LINE SMOOTH",
"517 456 OFFCURVE",
"512 456 OFFCURVE",
"507 464 CURVE SMOOTH",
"471 524 OFFCURVE",
"414 559 OFFCURVE",
"340 559 CURVE SMOOTH",
"168 559 OFFCURVE",
"44 389 OFFCURVE",
"44 208 CURVE SMOOTH",
"44 78 OFFCURVE",
"117 -10 OFFCURVE",
"240 -10 CURVE SMOOTH",
"313 -10 OFFCURVE",
"382 24 OFFCURVE",
"441 85 CURVE SMOOTH",
"448 93 OFFCURVE",
"454 89 OFFCURVE",
"452 80 CURVE SMOOTH",
"437 -4 LINE SMOOTH",
"418 -108 OFFCURVE",
"356 -166 OFFCURVE",
"229 -166 CURVE SMOOTH",
"129 -166 OFFCURVE",
"86 -132 OFFCURVE",
"74 -65 CURVE SMOOTH",
"73 -59 OFFCURVE",
"70 -56 OFFCURVE",
"64 -56 CURVE SMOOTH",
"19 -56 LINE SMOOTH",
"13 -56 OFFCURVE",
"8 -60 OFFCURVE",
"9 -67 CURVE SMOOTH",
"23 -180 OFFCURVE",
"103 -224 OFFCURVE",
"220 -224 CURVE SMOOTH",
"370 -224 OFFCURVE"
);
},
{
closed = 1;
nodes = (
"110 118 OFFCURVE",
"110 217 CURVE SMOOTH",
"110 357 OFFCURVE",
"198 501 OFFCURVE",
"336 501 CURVE SMOOTH",
"432 501 OFFCURVE",
"493 429 OFFCURVE",
"493 325 CURVE SMOOTH",
"493 185 OFFCURVE",
"390 48 OFFCURVE",
"256 48 CURVE SMOOTH",
"161 48 OFFCURVE"
);
}
);
width = 621;
}
);
leftKerningGroup = c;
note = g;
rightKerningGroup = g;
rightMetricsKey = u;
unicode = 0067;
},
{
color = 1;
glyphname = h;
lastChange = "2020-04-15 13:22:07 +0000";
layers = (
{
anchors = (
{
name = bottom;
position = "{262, 0}";
},
{
name = center;
position = "{211, 660}";
},
{
name = top;
position = "{224, 763}";
}
);
layerId = "FD6EB2BB-8839-4CDB-86BF-4EEAE3F02079";
paths = (
{
closed = 1;
nodes = (
"229 319 LINE SMOOTH",
"244 402 OFFCURVE",
"271 444 OFFCURVE",
"347 444 CURVE SMOOTH",
"396 444 OFFCURVE",
"417 425 OFFCURVE",
"417 377 CURVE SMOOTH",
"417 362 OFFCURVE",
"415 343 OFFCURVE",
"411 319 CURVE SMOOTH",
"359 22 LINE SMOOTH",
"357 9 OFFCURVE",
"364 0 OFFCURVE",
"377 0 CURVE SMOOTH",
"505 0 LINE SMOOTH",
"517 0 OFFCURVE",
"524 6 OFFCURVE",
"526 18 CURVE SMOOTH",
"579 317 LINE SMOOTH",
"587 362 OFFCURVE",
"593 396 OFFCURVE",
"593 428 CURVE SMOOTH",
"593 533 OFFCURVE",
"531 579 OFFCURVE",
"420 579 CURVE SMOOTH",
"371 579 OFFCURVE",
"329 568 OFFCURVE",
"290 534 CURVE SMOOTH",
"275 522 OFFCURVE",
"266 526 OFFCURVE",
"269 544 CURVE SMOOTH",
"304 741 LINE SMOOTH",
"306 755 OFFCURVE",
"299 763 OFFCURVE",
"286 763 CURVE SMOOTH",
"158 763 LINE SMOOTH",
"146 763 OFFCURVE",
"139 757 OFFCURVE",
"137 745 CURVE SMOOTH",
"9 22 LINE SMOOTH",
"7 9 OFFCURVE",
"14 0 OFFCURVE",
"27 0 CURVE SMOOTH",
"155 0 LINE SMOOTH",
"167 0 OFFCURVE",
"174 6 OFFCURVE",
"176 18 CURVE SMOOTH"
);
}
);
width = 624;
},
{
anchors = (
{
name = bottom;
position = "{241, 0}";
},
{
name = center;
position = "{184, 660}";
},
{
name = top;
position = "{202, 763}";
}
);
layerId = "11907447-A26F-432E-A335-7727E0303767";
paths = (
{
closed = 1;
nodes = (
"150 236 LINE SMOOTH",
"175 379 OFFCURVE",
"220 488 OFFCURVE",
"345 488 CURVE SMOOTH",
"412 488 OFFCURVE",
"441 459 OFFCURVE",
"441 392 CURVE SMOOTH",
"441 375 OFFCURVE",
"439 355 OFFCURVE",
"435 333 CURVE SMOOTH",
"378 11 LINE SMOOTH",
"377 5 OFFCURVE",
"380 0 OFFCURVE",
"387 0 CURVE SMOOTH",
"452 0 LINE SMOOTH",
"458 0 OFFCURVE",
"462 3 OFFCURVE",
"463 9 CURVE SMOOTH",
"520 333 LINE SMOOTH",
"524 354 OFFCURVE",
"528 382 OFFCURVE",
"528 412 CURVE SMOOTH",
"528 510 OFFCURVE",
"476 563 OFFCURVE",
"372 563 CURVE SMOOTH",
"317 563 OFFCURVE",
"267 543 OFFCURVE",
"206 483 CURVE SMOOTH",
"199 476 OFFCURVE",
"193 479 OFFCURVE",
"195 488 CURVE SMOOTH",
"241 752 LINE SMOOTH",
"242 758 OFFCURVE",
"239 763 OFFCURVE",
"232 763 CURVE SMOOTH",
"167 763 LINE SMOOTH",
"161 763 OFFCURVE",
"157 760 OFFCURVE",
"156 754 CURVE SMOOTH",
"25 11 LINE SMOOTH",
"24 5 OFFCURVE",
"27 0 OFFCURVE",
"34 0 CURVE SMOOTH",
"99 0 LINE SMOOTH",
"105 0 OFFCURVE",
"109 3 OFFCURVE",
"110 9 CURVE SMOOTH"
);
}
);
width = 577;
},
{
anchors = (
{
name = bottom;
position = "{228, 0}";
},
{
name = center;
position = "{173, 660}";
},
{
name = top;
position = "{191, 763}";
}
);
layerId = "2F4EEC1B-9E89-4E08-AD53-AB625B6E887D";
paths = (
{
closed = 1;
nodes = (
"127 217 LINE SMOOTH",
"153 368 OFFCURVE",
"213 501 OFFCURVE",
"343 501 CURVE SMOOTH",
"409 501 OFFCURVE",
"444 466 OFFCURVE",
"444 393 CURVE SMOOTH",
"444 377 OFFCURVE",
"442 359 OFFCURVE",
"439 340 CURVE SMOOTH",
"381 11 LINE SMOOTH",
"380 5 OFFCURVE",
"383 0 OFFCURVE",
"390 0 CURVE SMOOTH",
"435 0 LINE SMOOTH",
"441 0 OFFCURVE",
"445 3 OFFCURVE",
"446 9 CURVE SMOOTH",
"503 337 LINE SMOOTH",
"507 358 OFFCURVE",
"511 383 OFFCURVE",
"511 410 CURVE SMOOTH",
"511 497 OFFCURVE",
"460 559 OFFCURVE",
"367 559 CURVE SMOOTH",
"297 559 OFFCURVE",
"238 533 OFFCURVE",
"184 474 CURVE SMOOTH",
"177 467 OFFCURVE",
"171 470 OFFCURVE",
"173 479 CURVE SMOOTH",
"221 752 LINE SMOOTH",
"222 758 OFFCURVE",
"219 763 OFFCURVE",
"212 763 CURVE SMOOTH",
"167 763 LINE SMOOTH",
"161 763 OFFCURVE",
"157 760 OFFCURVE",
"156 754 CURVE SMOOTH",
"26 11 LINE SMOOTH",
"25 5 OFFCURVE",
"28 0 OFFCURVE",
"35 0 CURVE SMOOTH",
"80 0 LINE SMOOTH",
"86 0 OFFCURVE",
"90 3 OFFCURVE",
"91 9 CURVE SMOOTH"
);
}
);
width = 559;
}
);
leftKerningGroup = b;
leftMetricsKey = b;
note = h;
rightKerningGroup = h;
rightMetricsKey = m;
unicode = 0068;
},
{
color = 1;
glyphname = idotless;
lastChange = "2020-04-15 13:25:14 +0000";
layers = (
{
anchors = (
{
name = bottom;
position = "{89, 0}";
},
{
name = ogonek;
position = "{155, 0}";
},
{
name = top;
position = "{189, 567}";
}
);
background = {
anchors = (
{
name = bottom;
position = "{139, 0}";
},
{
name = ogonek;
position = "{207, 0}";
},
{
name = top;
position = "{139, 567}";
}
);
paths = (
{
closed = 1;
nodes = (
"207 0 LINE SMOOTH",
"217 0 OFFCURVE",
"223 6 OFFCURVE",
"223 16 CURVE SMOOTH",
"223 551 LINE SMOOTH",
"223 561 OFFCURVE",
"217 567 OFFCURVE",
"207 567 CURVE SMOOTH",
"71 567 LINE SMOOTH",
"61 567 OFFCURVE",
"55 561 OFFCURVE",
"55 551 CURVE SMOOTH",
"55 16 LINE SMOOTH",
"55 6 OFFCURVE",
"61 0 OFFCURVE",
"71 0 CURVE SMOOTH"
);
}
);
};
layerId = "FD6EB2BB-8839-4CDB-86BF-4EEAE3F02079";
paths = (
{
closed = 1;
nodes = (
"269 545 LINE SMOOTH",
"271 558 OFFCURVE",
"264 567 OFFCURVE",
"251 567 CURVE SMOOTH",
"123 567 LINE SMOOTH",
"111 567 OFFCURVE",
"104 561 OFFCURVE",
"102 549 CURVE SMOOTH",
"9 22 LINE SMOOTH",
"7 9 OFFCURVE",
"14 0 OFFCURVE",
"27 0 CURVE SMOOTH",
"155 0 LINE SMOOTH",
"167 0 OFFCURVE",
"174 6 OFFCURVE",
"176 18 CURVE SMOOTH"
);
}
);
width = 278;
},
{
anchors = (
{
name = bottom;
position = "{65, 0}";
},
{
name = ogonek;
position = "{98, 0}";
},
{
name = top;
position = "{163, 553}";
}
);
background = {
anchors = (
{
name = bottom;
position = "{113, 0}";
},
{
name = ogonek;
position = "{140, 0}";
},
{
name = top;
position = "{113, 553}";
}
);
paths = (
{
closed = 1;
nodes = (
"140 0 LINE SMOOTH",
"150 0 OFFCURVE",
"156 6 OFFCURVE",
"156 16 CURVE SMOOTH",
"156 537 LINE SMOOTH",
"156 547 OFFCURVE",
"150 553 OFFCURVE",
"140 553 CURVE SMOOTH",
"86 553 LINE SMOOTH",
"76 553 OFFCURVE",
"70 547 OFFCURVE",
"70 537 CURVE SMOOTH",
"70 16 LINE SMOOTH",
"70 6 OFFCURVE",
"76 0 OFFCURVE",
"86 0 CURVE SMOOTH"
);
}
);
};
layerId = "11907447-A26F-432E-A335-7727E0303767";
paths = (
{
closed = 1;
nodes = (
"203 542 LINE SMOOTH",
"204 548 OFFCURVE",
"201 553 OFFCURVE",
"194 553 CURVE SMOOTH",
"129 553 LINE SMOOTH",
"123 553 OFFCURVE",
"119 550 OFFCURVE",
"118 544 CURVE SMOOTH",
"24 11 LINE SMOOTH",
"23 5 OFFCURVE",
"26 0 OFFCURVE",
"33 0 CURVE SMOOTH",
"98 0 LINE SMOOTH",
"104 0 OFFCURVE",
"108 3 OFFCURVE",
"109 9 CURVE SMOOTH"
);
}
);
width = 227;
},
{
anchors = (
{
name = bottom;
position = "{57, 0}";
},
{
name = ogonek;
position = "{80, 0}";
},
{
name = top;
position = "{153, 549}";
}
);
background = {
anchors = (
{
name = bottom;
position = "{105, 0}";
},
{
name = ogonek;
position = "{127, 0}";
},
{
name = top;
position = "{105, 549}";
}
);
paths = (
{
closed = 1;
nodes = (
"127 0 LINE SMOOTH",
"133 0 OFFCURVE",
"137 4 OFFCURVE",
"137 10 CURVE SMOOTH",
"137 539 LINE SMOOTH",
"137 545 OFFCURVE",
"133 549 OFFCURVE",
"127 549 CURVE SMOOTH",
"82 549 LINE SMOOTH",
"76 549 OFFCURVE",
"72 545 OFFCURVE",
"72 539 CURVE SMOOTH",
"72 10 LINE SMOOTH",
"72 4 OFFCURVE",
"76 0 OFFCURVE",
"82 0 CURVE SMOOTH"
);
}
);
};
layerId = "2F4EEC1B-9E89-4E08-AD53-AB625B6E887D";
paths = (
{
closed = 1;
nodes = (
"183 538 LINE SMOOTH",
"184 544 OFFCURVE",
"181 549 OFFCURVE",
"174 549 CURVE SMOOTH",
"129 549 LINE SMOOTH",
"123 549 OFFCURVE",
"119 546 OFFCURVE",
"118 540 CURVE SMOOTH",
"26 11 LINE SMOOTH",
"25 5 OFFCURVE",
"28 0 OFFCURVE",
"35 0 CURVE SMOOTH",
"80 0 LINE SMOOTH",
"86 0 OFFCURVE",
"90 3 OFFCURVE",
"91 9 CURVE SMOOTH"
);
}
);
width = 209;
}
);
note = dotlessi;
unicode = 0131;
},
{
color = 1;
glyphname = jdotless;
lastChange = "2020-04-15 13:22:18 +0000";
layers = (
{
anchors = (
{
name = bottom;
position = "{47, -237}";
},
{
name = top;
position = "{189, 567}";
}
);
layerId = "FD6EB2BB-8839-4CDB-86BF-4EEAE3F02079";
paths = (
{
closed = 1;
nodes = (
"91 -196 OFFCURVE",
"146 -154 OFFCURVE",
"159 -82 CURVE SMOOTH",
"269 545 LINE SMOOTH",
"271 558 OFFCURVE",
"264 567 OFFCURVE",
"251 567 CURVE SMOOTH",
"123 567 LINE SMOOTH",
"111 567 OFFCURVE",
"104 561 OFFCURVE",
"102 549 CURVE SMOOTH",
"1 -24 LINE SMOOTH",
"-5 -55 OFFCURVE",
"-25 -59 OFFCURVE",
"-41 -59 CURVE SMOOTH",
"-75 -59 LINE SMOOTH",
"-87 -59 OFFCURVE",
"-94 -65 OFFCURVE",
"-96 -77 CURVE SMOOTH",
"-114 -174 LINE SMOOTH",
"-116 -188 OFFCURVE",
"-109 -196 OFFCURVE",
"-96 -196 CURVE SMOOTH",
"8 -196 LINE SMOOTH"
);
}
);
width = 278;
},
{
anchors = (
{
name = bottom;
position = "{23, -237}";
},
{
name = top;
position = "{163, 553}";
}
);
background = {
paths = (
{
closed = 0;
nodes = (
"72 -48 LINE SMOOTH",
"72 -116 OFFCURVE",
"40 -132 OFFCURVE",
"-6 -132 CURVE SMOOTH",
"-58 -132 LINE",
"-58 -210 LINE",
"14 -210 LINE SMOOTH",
"108 -210 OFFCURVE",
"157 -159 OFFCURVE",
"157 -59 CURVE SMOOTH"
);
}
);
};
layerId = "11907447-A26F-432E-A335-7727E0303767";
paths = (
{
closed = 1;
nodes = (
"22 -210 OFFCURVE",
"80 -159 OFFCURVE",
"98 -59 CURVE SMOOTH",
"204 542 LINE SMOOTH",
"205 548 OFFCURVE",
"202 553 OFFCURVE",
"195 553 CURVE SMOOTH",
"130 553 LINE SMOOTH",
"124 553 OFFCURVE",
"120 550 OFFCURVE",
"119 544 CURVE SMOOTH",
"15 -48 LINE SMOOTH",
"3 -116 OFFCURVE",
"-32 -132 OFFCURVE",
"-78 -132 CURVE SMOOTH",
"-121 -132 LINE SMOOTH",
"-127 -132 OFFCURVE",
"-131 -135 OFFCURVE",
"-132 -141 CURVE SMOOTH",
"-142 -199 LINE SMOOTH",
"-143 -205 OFFCURVE",
"-140 -210 OFFCURVE",
"-133 -210 CURVE SMOOTH",
"-72 -210 LINE SMOOTH"
);
}
);
width = 228;
},
{
anchors = (
{
name = bottom;
position = "{15, -237}";
},
{
name = top;
position = "{153, 549}";
}
);
background = {
paths = (
{
closed = 0;
nodes = (
"72 -51 LINE SMOOTH",
"72 -128 OFFCURVE",
"40 -155 OFFCURVE",
"-16 -155 CURVE SMOOTH",
"-68 -155 LINE",
"-68 -214 LINE",
"-1 -214 LINE SMOOTH",
"90 -214 OFFCURVE",
"137 -163 OFFCURVE",
"137 -61 CURVE SMOOTH"
);
}
);
};
layerId = "2F4EEC1B-9E89-4E08-AD53-AB625B6E887D";
paths = (
{
closed = 1;
nodes = (
"4 -214 OFFCURVE",
"60 -163 OFFCURVE",
"78 -61 CURVE SMOOTH",
"183 538 LINE SMOOTH",
"184 544 OFFCURVE",
"181 549 OFFCURVE",
"174 549 CURVE SMOOTH",
"129 549 LINE SMOOTH",
"123 549 OFFCURVE",
"119 546 OFFCURVE",
"118 540 CURVE SMOOTH",
"15 -51 LINE SMOOTH",
"1 -128 OFFCURVE",
"-36 -155 OFFCURVE",
"-92 -155 CURVE SMOOTH",
"-135 -155 LINE SMOOTH",
"-141 -155 OFFCURVE",
"-145 -158 OFFCURVE",
"-146 -164 CURVE SMOOTH",
"-152 -203 LINE SMOOTH",
"-153 -209 OFFCURVE",
"-150 -214 OFFCURVE",
"-143 -214 CURVE SMOOTH",
"-87 -214 LINE SMOOTH"
);
}
);
width = 209;
}
);
note = uni0237;
unicode = 0237;
},
{
color = 1;
glyphname = k;
lastChange = "2020-04-15 13:22:21 +0000";
layers = (
{
anchors = (
{
name = bottom;
position = "{258, 0}";
},
{
name = top;
position = "{393, 763}";
}
);
background = {
paths = (
{
closed = 1;
nodes = (
"173 0 LINE",
"205 182 LINE SMOOTH",
"209 205 OFFCURVE",
"213 228 OFFCURVE",
"211 271 CURVE",
"224 275 LINE",
"240 237 OFFCURVE",
"250 219 OFFCURVE",
"260 201 CURVE SMOOTH",
"373 0 LINE",
"568 0 LINE",
"413 257 LINE SMOOTH",
"401 277 OFFCURVE",
"388 292 OFFCURVE",
"376 303 CURVE",
"378 317 LINE",
"393 326 OFFCURVE",
"411 336 OFFCURVE",
"430 353 CURVE SMOOTH",
"669 567 LINE",
"453 567 LINE",
"300 426 LINE SMOOTH",
"285 412 OFFCURVE",
"268 397 OFFCURVE",
"239 363 CURVE",
"228 368 LINE",
"246 412 OFFCURVE",
"250 435 OFFCURVE",
"254 459 CURVE SMOOTH",
"308 763 LINE",
"140 763 LINE",
"5 0 LINE"
);
}
);
};
layerId = "FD6EB2BB-8839-4CDB-86BF-4EEAE3F02079";
paths = (
{
closed = 1;
nodes = (
"214 234 LINE SMOOTH",
"217 253 OFFCURVE",
"231 255 OFFCURVE",
"240 238 CURVE SMOOTH",
"365 14 LINE SMOOTH",
"370 4 OFFCURVE",
"378 0 OFFCURVE",
"389 0 CURVE SMOOTH",
"540 0 LINE SMOOTH",
"556 0 OFFCURVE",
"561 10 OFFCURVE",
"553 24 CURVE SMOOTH",
"390 292 LINE SMOOTH",
"384 302 OFFCURVE",
"386 312 OFFCURVE",
"395 320 CURVE SMOOTH",
"642 542 LINE SMOOTH",
"656 555 OFFCURVE",
"650 567 OFFCURVE",
"632 567 CURVE SMOOTH",
"467 567 LINE SMOOTH",
"457 567 OFFCURVE",
"450 564 OFFCURVE",
"443 557 CURVE SMOOTH",
"268 396 LINE SMOOTH",
"254 383 OFFCURVE",
"242 390 OFFCURVE",
"245 408 CURVE SMOOTH",
"304 741 LINE SMOOTH",
"306 754 OFFCURVE",
"299 763 OFFCURVE",
"286 763 CURVE SMOOTH",
"158 763 LINE SMOOTH",
"146 763 OFFCURVE",
"139 757 OFFCURVE",
"137 745 CURVE SMOOTH",
"9 22 LINE SMOOTH",
"7 9 OFFCURVE",
"14 0 OFFCURVE",
"27 0 CURVE SMOOTH",
"155 0 LINE SMOOTH",
"167 0 OFFCURVE",
"174 6 OFFCURVE",
"176 18 CURVE SMOOTH"
);
}
);
width = 624;
},
{
anchors = (
{
name = bottom;
position = "{223, 0}";
},
{
name = top;
position = "{358, 763}";
}
);
background = {
paths = (
{
closed = 1;
nodes = (
"108 0 LINE",
"140 182 LINE SMOOTH",
"145 211 OFFCURVE",
"151 241 OFFCURVE",
"148 280 CURVE",
"160 285 LINE",
"180 261 OFFCURVE",
"191 246 OFFCURVE",
"202 232 CURVE SMOOTH",
"378 0 LINE",
"488 0 LINE",
"281 264 LINE SMOOTH",
"270 279 OFFCURVE",
"258 286 OFFCURVE",
"239 292 CURVE",
"241 306 LINE",
"262 311 OFFCURVE",
"275 317 OFFCURVE",
"292 330 CURVE SMOOTH",
"578 553 LINE",
"449 553 LINE",
"228 380 LINE SMOOTH",
"212 368 OFFCURVE",
"197 355 OFFCURVE",
"169 333 CURVE",
"158 339 LINE",
"174 374 OFFCURVE",
"179 400 OFFCURVE",
"183 425 CURVE SMOOTH",
"243 763 LINE",
"158 763 LINE",
"23 0 LINE"
);
}
);
};
layerId = "11907447-A26F-432E-A335-7727E0303767";
paths = (
{
closed = 1;
nodes = (
"156 272 LINE SMOOTH",
"157 280 OFFCURVE",
"164 283 OFFCURVE",
"169 276 CURVE SMOOTH",
"373 6 LINE SMOOTH",
"376 1 OFFCURVE",
"381 0 OFFCURVE",
"386 0 CURVE SMOOTH",
"471 0 LINE SMOOTH",
"479 0 OFFCURVE",
"482 6 OFFCURVE",
"477 12 CURVE SMOOTH",
"259 292 LINE SMOOTH",
"255 297 OFFCURVE",
"256 302 OFFCURVE",
"261 306 CURVE SMOOTH",
"561 541 LINE SMOOTH",
"568 547 OFFCURVE",
"566 553 OFFCURVE",
"557 553 CURVE SMOOTH",
"456 553 LINE SMOOTH",
"451 553 OFFCURVE",
"448 552 OFFCURVE",
"444 549 CURVE SMOOTH",
"182 343 LINE SMOOTH",
"175 337 OFFCURVE",
"168 341 OFFCURVE",
"170 350 CURVE SMOOTH",
"241 752 LINE SMOOTH",
"242 758 OFFCURVE",
"239 763 OFFCURVE",
"232 763 CURVE SMOOTH",
"167 763 LINE SMOOTH",
"161 763 OFFCURVE",
"157 760 OFFCURVE",
"156 754 CURVE SMOOTH",
"25 11 LINE SMOOTH",
"24 5 OFFCURVE",
"27 0 OFFCURVE",
"34 0 CURVE SMOOTH",
"99 0 LINE SMOOTH",
"105 0 OFFCURVE",
"109 3 OFFCURVE",
"110 9 CURVE SMOOTH"
);
}
);
width = 554;
},
{
anchors = (
{
name = bottom;
position = "{208, 0}";
},
{
name = top;
position = "{342, 763}";
}
);
background = {
paths = (
{
closed = 1;
nodes = (
"89 0 LINE",
"129 228 LINE SMOOTH",
"132 243 OFFCURVE",
"134 259 OFFCURVE",
"128 282 CURVE",
"142 289 LINE",
"159 268 OFFCURVE",
"169 257 OFFCURVE",
"178 246 CURVE SMOOTH",
"382 0 LINE",
"467 0 LINE",
"243 264 LINE SMOOTH",
"235 274 OFFCURVE",
"227 283 OFFCURVE",
"208 293 CURVE",
"211 307 LINE",
"232 315 OFFCURVE",
"244 324 OFFCURVE",
"255 332 CURVE SMOOTH",
"551 549 LINE",
"450 549 LINE",
"199 363 LINE SMOOTH",
"186 353 OFFCURVE",
"172 344 OFFCURVE",
"148 324 CURVE",
"137 330 LINE",
"152 357 OFFCURVE",
"155 375 OFFCURVE",
"158 392 CURVE SMOOTH",
"223 763 LINE",
"158 763 LINE",
"24 0 LINE"
);
}
);
};
guideLines = (
{
angle = 270;
position = "{257, 299}";
}
);
layerId = "2F4EEC1B-9E89-4E08-AD53-AB625B6E887D";
paths = (
{
closed = 1;
nodes = (
"137 276 LINE SMOOTH",
"138 285 OFFCURVE",
"145 286 OFFCURVE",
"150 280 CURVE SMOOTH",
"377 6 LINE SMOOTH",
"380 2 OFFCURVE",
"384 0 OFFCURVE",
"389 0 CURVE SMOOTH",
"451 0 LINE SMOOTH",
"459 0 OFFCURVE",
"462 6 OFFCURVE",
"457 12 CURVE SMOOTH",
"219 293 LINE SMOOTH",
"215 298 OFFCURVE",
"215 303 OFFCURVE",
"220 307 CURVE SMOOTH",
"535 537 LINE SMOOTH",
"542 542 OFFCURVE",
"540 549 OFFCURVE",
"531 549 CURVE SMOOTH",
"457 549 LINE SMOOTH",
"452 549 OFFCURVE",
"448 548 OFFCURVE",
"444 545 CURVE SMOOTH",
"160 335 LINE SMOOTH",
"152 329 OFFCURVE",
"148 333 OFFCURVE",
"149 342 CURVE SMOOTH",
"221 752 LINE SMOOTH",
"222 758 OFFCURVE",
"219 763 OFFCURVE",
"212 763 CURVE SMOOTH",
"167 763 LINE SMOOTH",
"161 763 OFFCURVE",
"157 760 OFFCURVE",
"156 754 CURVE SMOOTH",
"26 11 LINE SMOOTH",
"25 5 OFFCURVE",
"28 0 OFFCURVE",
"35 0 CURVE SMOOTH",
"80 0 LINE SMOOTH",
"86 0 OFFCURVE",
"90 3 OFFCURVE",
"91 9 CURVE SMOOTH"
);
}
);
width = 536;
}
);
leftKerningGroup = b;
leftMetricsKey = b;
note = k;
rightKerningGroup = k;
unicode = 006B;
},
